{
.appVersion = "118";
DisplayStrings = (
"[",
"]",
"(",
")",
"}",
"{"
);
date = "2019-05-13 17:04:55 +0000";
designer = "Jeffrey Sevier";
familyName = "Scoreboard 80";
featurePrefixes = (
{
automatic = 1;
code = "languagesystem DFLT dflt;\012";
name = Languagesystems;
}
);
features = (
{
automatic = 1;
code = "feature frac;\012";
name = aalt;
},
{
automatic = 1;
code = "sub one slash two by onehalf;\012sub seven slash eight by seveneighths;\012";
name = frac;
}
);
fontMaster = (
{
ascender = 800;
capHeight = 700;
descender = -200;
id = "50A2E4FD-7804-43F3-BCDE-AB93253BBBDA";
weightValue = 400;
widthValue = 5;
xHeight = 500;
}
);
glyphs = (
{
glyphname = A;
layers = (
{
hints = (
{
horizontal = 1;
place = "{597, 103}";
type = Stem;
},
{
place = "{132, 106}";
type = Stem;
},
{
place = "{244, 106}";
type = Stem;
},
{
place = "{356, 106}";
type = Stem;
},
{
horizontal = 1;
place = "{488, 103}";
type = Stem;
},
{
place = "{20, 106}";
type = Stem;
},
{
place = "{469, 106}";
type = Stem;
},
{
horizontal = 1;
place = "{379, 103}";
type = Stem;
},
{
horizontal = 1;
place = "{270, 103}";
type = Stem;
},
{
horizontal = 1;
place = "{161, 103}";
type = Stem;
},
{
horizontal = 1;
place = "{52, 103}";
type = Stem;
},
{
horizontal = 1;
place = "{-58, 103}";
type = Stem;
}
);
layerId = "50A2E4FD-7804-43F3-BCDE-AB93253BBBDA";
paths = (
{
closed = 1;
nodes = (
"214 597 OFFCURVE",
"238 620 OFFCURVE",
"238 649 CURVE SMOOTH",
"238 677 OFFCURVE",
"214 700 OFFCURVE",
"185 700 CURVE SMOOTH",
"155 700 OFFCURVE",
"132 677 OFFCURVE",
"132 649 CURVE SMOOTH",
"132 620 OFFCURVE",
"155 597 OFFCURVE",
"185 597 CURVE SMOOTH"
);
},
{
closed = 1;
nodes = (
"326 597 OFFCURVE",
"350 620 OFFCURVE",
"350 649 CURVE SMOOTH",
"350 677 OFFCURVE",
"326 700 OFFCURVE",
"297 700 CURVE SMOOTH",
"267 700 OFFCURVE",
"244 677 OFFCURVE",
"244 649 CURVE SMOOTH",
"244 620 OFFCURVE",
"267 597 OFFCURVE",
"297 597 CURVE SMOOTH"
);
},
{
closed = 1;
nodes = (
"438 597 OFFCURVE",
"462 620 OFFCURVE",
"462 649 CURVE SMOOTH",
"462 677 OFFCURVE",
"438 700 OFFCURVE",
"409 700 CURVE SMOOTH",
"379 700 OFFCURVE",
"356 677 OFFCURVE",
"356 649 CURVE SMOOTH",
"356 620 OFFCURVE",
"379 597 OFFCURVE",
"409 597 CURVE SMOOTH"
);
},
{
closed = 1;
nodes = (
"102 488 OFFCURVE",
"126 511 OFFCURVE",
"126 540 CURVE SMOOTH",
"126 568 OFFCURVE",
"102 591 OFFCURVE",
"73 591 CURVE SMOOTH",
"43 591 OFFCURVE",
"20 568 OFFCURVE",
"20 540 CURVE SMOOTH",
"20 511 OFFCURVE",
"43 488 OFFCURVE",
"73 488 CURVE SMOOTH"
);
},
{
closed = 1;
nodes = (
"551 488 OFFCURVE",
"575 511 OFFCURVE",
"575 540 CURVE SMOOTH",
"575 568 OFFCURVE",
"551 591 OFFCURVE",
"522 591 CURVE SMOOTH",
"492 591 OFFCURVE",
"469 568 OFFCURVE",
"469 540 CURVE SMOOTH",
"469 511 OFFCURVE",
"492 488 OFFCURVE",
"522 488 CURVE SMOOTH"
);
},
{
closed = 1;
nodes = (
"102 379 OFFCURVE",
"126 402 OFFCURVE",
"126 431 CURVE SMOOTH",
"126 459 OFFCURVE",
"102 482 OFFCURVE",
"73 482 CURVE SMOOTH",
"43 482 OFFCURVE",
"20 459 OFFCURVE",
"20 431 CURVE SMOOTH",
"20 402 OFFCURVE",
"43 379 OFFCURVE",
"73 379 CURVE SMOOTH"
);
},
{
closed = 1;
nodes = (
"551 379 OFFCURVE",
"575 402 OFFCURVE",
"575 431 CURVE SMOOTH",
"575 459 OFFCURVE",
"551 482 OFFCURVE",
"522 482 CURVE SMOOTH",
"492 482 OFFCURVE",
"469 459 OFFCURVE",
"469 431 CURVE SMOOTH",
"469 402 OFFCURVE",
"492 379 OFFCURVE",
"522 379 CURVE SMOOTH"
);
},
{
closed = 1;
nodes = (
"102 270 OFFCURVE",
"126 293 OFFCURVE",
"126 322 CURVE SMOOTH",
"126 350 OFFCURVE",
"102 373 OFFCURVE",
"73 373 CURVE SMOOTH",
"43 373 OFFCURVE",
"20 350 OFFCURVE",
"20 322 CURVE SMOOTH",
"20 293 OFFCURVE",
"43 270 OFFCURVE",
"73 270 CURVE SMOOTH"
);
},
{
closed = 1;
nodes = (
"214 270 OFFCURVE",
"238 293 OFFCURVE",
"238 322 CURVE SMOOTH",
"238 350 OFFCURVE",
"214 373 OFFCURVE",
"185 373 CURVE SMOOTH",
"155 373 OFFCURVE",
"132 350 OFFCURVE",
"132 322 CURVE SMOOTH",
"132 293 OFFCURVE",
"155 270 OFFCURVE",
"185 270 CURVE SMOOTH"
);
},
{
closed = 1;
nodes = (
"326 270 OFFCURVE",
"350 293 OFFCURVE",
"350 322 CURVE SMOOTH",
"350 350 OFFCURVE",
"326 373 OFFCURVE",
"297 373 CURVE SMOOTH",
"267 373 OFFCURVE",
"244 350 OFFCURVE",
"244 322 CURVE SMOOTH",
"244 293 OFFCURVE",
"267 270 OFFCURVE",
"297 270 CURVE SMOOTH"
);
},
{
closed = 1;
nodes = (
"438 270 OFFCURVE",
"462 293 OFFCURVE",
"462 322 CURVE SMOOTH",
"462 350 OFFCURVE",
"438 373 OFFCURVE",
"409 373 CURVE SMOOTH",
"379 373 OFFCURVE",
"356 350 OFFCURVE",
"356 322 CURVE SMOOTH",
"356 293 OFFCURVE",
"379 270 OFFCURVE",
"409 270 CURVE SMOOTH"
);
},
{
closed = 1;
nodes = (
"551 270 OFFCURVE",
"575 293 OFFCURVE",
"575 322 CURVE SMOOTH",
"575 350 OFFCURVE",
"551 373 OFFCURVE",
"522 373 CURVE SMOOTH",
"492 373 OFFCURVE",
"469 350 OFFCURVE",
"469 322 CURVE SMOOTH",
"469 293 OFFCURVE",
"492 270 OFFCURVE",
"522 270 CURVE SMOOTH"
);
},
{
closed = 1;
nodes = (
"102 161 OFFCURVE",
"126 184 OFFCURVE",
"126 213 CURVE SMOOTH",
"126 241 OFFCURVE",
"102 264 OFFCURVE",
"73 264 CURVE SMOOTH",
"43 264 OFFCURVE",
"20 241 OFFCURVE",
"20 213 CURVE SMOOTH",
"20 184 OFFCURVE",
"43 161 OFFCURVE",
"73 161 CURVE SMOOTH"
);
},
{
closed = 1;
nodes = (
"551 161 OFFCURVE",
"575 184 OFFCURVE",
"575 213 CURVE SMOOTH",
"575 241 OFFCURVE",
"551 264 OFFCURVE",
"522 264 CURVE SMOOTH",
"492 264 OFFCURVE",
"469 241 OFFCURVE",
"469 213 CURVE SMOOTH",
"469 184 OFFCURVE",
"492 161 OFFCURVE",
"522 161 CURVE SMOOTH"
);
},
{
closed = 1;
nodes = (
"102 52 OFFCURVE",
"126 75 OFFCURVE",
"126 104 CURVE SMOOTH",
"126 132 OFFCURVE",
"102 155 OFFCURVE",
"73 155 CURVE SMOOTH",
"43 155 OFFCURVE",
"20 132 OFFCURVE",
"20 104 CURVE SMOOTH",
"20 75 OFFCURVE",
"43 52 OFFCURVE",
"73 52 CURVE SMOOTH"
);
},
{
closed = 1;
nodes = (
"551 52 OFFCURVE",
"575 75 OFFCURVE",
"575 104 CURVE SMOOTH",
"575 132 OFFCURVE",
"551 155 OFFCURVE",
"522 155 CURVE SMOOTH",
"492 155 OFFCURVE",
"469 132 OFFCURVE",
"469 104 CURVE SMOOTH",
"469 75 OFFCURVE",
"492 52 OFFCURVE",
"522 52 CURVE SMOOTH"
);
},
{
closed = 1;
nodes = (
"102 -58 OFFCURVE",
"126 -35 OFFCURVE",
"126 -6 CURVE SMOOTH",
"126 22 OFFCURVE",
"102 45 OFFCURVE",
"73 45 CURVE SMOOTH",
"43 45 OFFCURVE",
"20 22 OFFCURVE",
"20 -6 CURVE SMOOTH",
"20 -35 OFFCURVE",
"43 -58 OFFCURVE",
"73 -58 CURVE SMOOTH"
);
},
{
closed = 1;
nodes = (
"551 -58 OFFCURVE",
"575 -35 OFFCURVE",
"575 -6 CURVE SMOOTH",
"575 22 OFFCURVE",
"551 45 OFFCURVE",
"522 45 CURVE SMOOTH",
"492 45 OFFCURVE",
"469 22 OFFCURVE",
"469 -6 CURVE SMOOTH",
"469 -35 OFFCURVE",
"492 -58 OFFCURVE",
"522 -58 CURVE SMOOTH"
);
}
);
width = 600;
}
);
note = A;
unicode = 0041;
},
{
glyphname = B;
layers = (
{
hints = (
{
horizontal = 1;
place = "{-58, 103}";
type = Stem;
},
{
horizontal = 1;
place = "{270, 103}";
type = Stem;
},
{
horizontal = 1;
place = "{597, 103}";
type = Stem;
},
{
place = "{20, 106}";
type = Stem;
},
{
place = "{244, 106}";
type = Stem;
},
{
place = "{469, 106}";
type = Stem;
},
{
place = "{132, 106}";
type = Stem;
},
{
place = "{356, 106}";
type = Stem;
},
{
horizontal = 1;
place = "{488, 103}";
type = Stem;
},
{
horizontal = 1;
place = "{379, 103}";
type = Stem;
},
{
horizontal = 1;
place = "{161, 103}";
type = Stem;
},
{
horizontal = 1;
place = "{52, 103}";
type = Stem;
}
);
layerId = "50A2E4FD-7804-43F3-BCDE-AB93253BBBDA";
paths = (
{
closed = 1;
nodes = (
"102 597 OFFCURVE",
"126 620 OFFCURVE",
"126 649 CURVE SMOOTH",
"126 677 OFFCURVE",
"102 700 OFFCURVE",
"73 700 CURVE SMOOTH",
"43 700 OFFCURVE",
"20 677 OFFCURVE",
"20 649 CURVE SMOOTH",
"20 620 OFFCURVE",
"43 597 OFFCURVE",
"73 597 CURVE SMOOTH"
);
},
{
closed = 1;
nodes = (
"214 597 OFFCURVE",
"238 620 OFFCURVE",
"238 649 CURVE SMOOTH",
"238 677 OFFCURVE",
"214 700 OFFCURVE",
"185 700 CURVE SMOOTH",
"155 700 OFFCURVE",
"132 677 OFFCURVE",
"132 649 CURVE SMOOTH",
"132 620 OFFCURVE",
"155 597 OFFCURVE",
"185 597 CURVE SMOOTH"
);
},
{
closed = 1;
nodes = (
"326 597 OFFCURVE",
"350 620 OFFCURVE",
"350 649 CURVE SMOOTH",
"350 677 OFFCURVE",
"326 700 OFFCURVE",
"297 700 CURVE SMOOTH",
"267 700 OFFCURVE",
"244 677 OFFCURVE",
"244 649 CURVE SMOOTH",
"244 620 OFFCURVE",
"267 597 OFFCURVE",
"297 597 CURVE SMOOTH"
);
},
{
closed = 1;
nodes = (
"438 597 OFFCURVE",
"462 620 OFFCURVE",
"462 649 CURVE SMOOTH",
"462 677 OFFCURVE",
"438 700 OFFCURVE",
"409 700 CURVE SMOOTH",
"379 700 OFFCURVE",
"356 677 OFFCURVE",
"356 649 CURVE SMOOTH",
"356 620 OFFCURVE",
"379 597 OFFCURVE",
"409 597 CURVE SMOOTH"
);
},
{
closed = 1;
nodes = (
"102 488 OFFCURVE",
"126 511 OFFCURVE",
"126 540 CURVE SMOOTH",
"126 568 OFFCURVE",
"102 591 OFFCURVE",
"73 591 CURVE SMOOTH",
"43 591 OFFCURVE",
"20 568 OFFCURVE",
"20 540 CURVE SMOOTH",
"20 511 OFFCURVE",
"43 488 OFFCURVE",
"73 488 CURVE SMOOTH"
);
},
{
closed = 1;
nodes = (
"551 488 OFFCURVE",
"575 511 OFFCURVE",
"575 540 CURVE SMOOTH",
"575 568 OFFCURVE",
"551 591 OFFCURVE",
"522 591 CURVE SMOOTH",
"492 591 OFFCURVE",
"469 568 OFFCURVE",
"469 540 CURVE SMOOTH",
"469 511 OFFCURVE",
"492 488 OFFCURVE",
"522 488 CURVE SMOOTH"
);
},
{
closed = 1;
nodes = (
"102 379 OFFCURVE",
"126 402 OFFCURVE",
"126 431 CURVE SMOOTH",
"126 459 OFFCURVE",
"102 482 OFFCURVE",
"73 482 CURVE SMOOTH",
"43 482 OFFCURVE",
"20 459 OFFCURVE",
"20 431 CURVE SMOOTH",
"20 402 OFFCURVE",
"43 379 OFFCURVE",
"73 379 CURVE SMOOTH"
);
},
{
closed = 1;
nodes = (
"551 379 OFFCURVE",
"575 402 OFFCURVE",
"575 431 CURVE SMOOTH",
"575 459 OFFCURVE",
"551 482 OFFCURVE",
"522 482 CURVE SMOOTH",
"492 482 OFFCURVE",
"469 459 OFFCURVE",
"469 431 CURVE SMOOTH",
"469 402 OFFCURVE",
"492 379 OFFCURVE",
"522 379 CURVE SMOOTH"
);
},
{
closed = 1;
nodes = (
"102 270 OFFCURVE",
"126 293 OFFCURVE",
"126 322 CURVE SMOOTH",
"126 350 OFFCURVE",
"102 373 OFFCURVE",
"73 373 CURVE SMOOTH",
"43 373 OFFCURVE",
"20 350 OFFCURVE",
"20 322 CURVE SMOOTH",
"20 293 OFFCURVE",
"43 270 OFFCURVE",
"73 270 CURVE SMOOTH"
);
},
{
closed = 1;
nodes = (
"214 270 OFFCURVE",
"238 293 OFFCURVE",
"238 322 CURVE SMOOTH",
"238 350 OFFCURVE",
"214 373 OFFCURVE",
"185 373 CURVE SMOOTH",
"155 373 OFFCURVE",
"132 350 OFFCURVE",
"132 322 CURVE SMOOTH",
"132 293 OFFCURVE",
"155 270 OFFCURVE",
"185 270 CURVE SMOOTH"
);
},
{
closed = 1;
nodes = (
"326 270 OFFCURVE",
"350 293 OFFCURVE",
"350 322 CURVE SMOOTH",
"350 350 OFFCURVE",
"326 373 OFFCURVE",
"297 373 CURVE SMOOTH",
"267 373 OFFCURVE",
"244 350 OFFCURVE",
"244 322 CURVE SMOOTH",
"244 293 OFFCURVE",
"267 270 OFFCURVE",
"297 270 CURVE SMOOTH"
);
},
{
closed = 1;
nodes = (
"438 270 OFFCURVE",
"462 293 OFFCURVE",
"462 322 CURVE SMOOTH",
"462 350 OFFCURVE",
"438 373 OFFCURVE",
"409 373 CURVE SMOOTH",
"379 373 OFFCURVE",
"356 350 OFFCURVE",
"356 322 CURVE SMOOTH",
"356 293 OFFCURVE",
"379 270 OFFCURVE",
"409 270 CURVE SMOOTH"
);
},
{
closed = 1;
nodes = (
"102 161 OFFCURVE",
"126 184 OFFCURVE",
"126 213 CURVE SMOOTH",
"126 241 OFFCURVE",
"102 264 OFFCURVE",
"73 264 CURVE SMOOTH",
"43 264 OFFCURVE",
"20 241 OFFCURVE",
"20 213 CURVE SMOOTH",
"20 184 OFFCURVE",
"43 161 OFFCURVE",
"73 161 CURVE SMOOTH"
);
},
{
closed = 1;
nodes = (
"551 161 OFFCURVE",
"575 184 OFFCURVE",
"575 213 CURVE SMOOTH",
"575 241 OFFCURVE",
"551 264 OFFCURVE",
"522 264 CURVE SMOOTH",
"492 264 OFFCURVE",
"469 241 OFFCURVE",
"469 213 CURVE SMOOTH",
"469 184 OFFCURVE",
"492 161 OFFCURVE",
"522 161 CURVE SMOOTH"
);
},
{
closed = 1;
nodes = (
"102 52 OFFCURVE",
"126 75 OFFCURVE",
"126 104 CURVE SMOOTH",
"126 132 OFFCURVE",
"102 155 OFFCURVE",
"73 155 CURVE SMOOTH",
"43 155 OFFCURVE",
"20 132 OFFCURVE",
"20 104 CURVE SMOOTH",
"20 75 OFFCURVE",
"43 52 OFFCURVE",
"73 52 CURVE SMOOTH"
);
},
{
closed = 1;
nodes = (
"551 52 OFFCURVE",
"575 75 OFFCURVE",
"575 104 CURVE SMOOTH",
"575 132 OFFCURVE",
"551 155 OFFCURVE",
"522 155 CURVE SMOOTH",
"492 155 OFFCURVE",
"469 132 OFFCURVE",
"469 104 CURVE SMOOTH",
"469 75 OFFCURVE",
"492 52 OFFCURVE",
"522 52 CURVE SMOOTH"
);
},
{
closed = 1;
nodes = (
"102 -58 OFFCURVE",
"126 -35 OFFCURVE",
"126 -6 CURVE SMOOTH",
"126 22 OFFCURVE",
"102 45 OFFCURVE",
"73 45 CURVE SMOOTH",
"43 45 OFFCURVE",
"20 22 OFFCURVE",
"20 -6 CURVE SMOOTH",
"20 -35 OFFCURVE",
"43 -58 OFFCURVE",
"73 -58 CURVE SMOOTH"
);
},
{
closed = 1;
nodes = (
"214 -58 OFFCURVE",
"238 -35 OFFCURVE",
"238 -6 CURVE SMOOTH",
"238 22 OFFCURVE",
"214 45 OFFCURVE",
"185 45 CURVE SMOOTH",
"155 45 OFFCURVE",
"132 22 OFFCURVE",
"132 -6 CURVE SMOOTH",
"132 -35 OFFCURVE",
"155 -58 OFFCURVE",
"185 -58 CURVE SMOOTH"
);
},
{
closed = 1;
nodes = (
"326 -58 OFFCURVE",
"350 -35 OFFCURVE",
"350 -6 CURVE SMOOTH",
"350 22 OFFCURVE",
"326 45 OFFCURVE",
"297 45 CURVE SMOOTH",
"267 45 OFFCURVE",
"244 22 OFFCURVE",
"244 -6 CURVE SMOOTH",
"244 -35 OFFCURVE",
"267 -58 OFFCURVE",
"297 -58 CURVE SMOOTH"
);
},
{
closed = 1;
nodes = (
"438 -58 OFFCURVE",
"462 -35 OFFCURVE",
"462 -6 CURVE SMOOTH",
"462 22 OFFCURVE",
"438 45 OFFCURVE",
"409 45 CURVE SMOOTH",
"379 45 OFFCURVE",
"356 22 OFFCURVE",
"356 -6 CURVE SMOOTH",
"356 -35 OFFCURVE",
"379 -58 OFFCURVE",
"409 -58 CURVE SMOOTH"
);
}
);
width = 600;
}
);
note = B;
unicode = 0042;
},
{
glyphname = C;
layers = (
{
hints = (
{
horizontal = 1;
place = "{597, 103}";
type = Stem;
},
{
place = "{132, 106}";
type = Stem;
},
{
place = "{244, 106}";
type = Stem;
},
{
place = "{356, 106}";
type = Stem;
},
{
horizontal = 1;
place = "{488, 103}";
type = Stem;
},
{
place = "{20, 106}";
type = Stem;
},
{
place = "{469, 106}";
type = Stem;
},
{
horizontal = 1;
place = "{379, 103}";
type = Stem;
},
{
horizontal = 1;
place = "{270, 103}";
type = Stem;
},
{
horizontal = 1;
place = "{161, 103}";
type = Stem;
},
{
horizontal = 1;
place = "{52, 103}";
type = Stem;
},
{
horizontal = 1;
place = "{-58, 103}";
type = Stem;
}
);
layerId = "50A2E4FD-7804-43F3-BCDE-AB93253BBBDA";
paths = (
{
closed = 1;
nodes = (
"214 597 OFFCURVE",
"238 620 OFFCURVE",
"238 649 CURVE SMOOTH",
"238 677 OFFCURVE",
"214 700 OFFCURVE",
"185 700 CURVE SMOOTH",
"155 700 OFFCURVE",
"132 677 OFFCURVE",
"132 649 CURVE SMOOTH",
"132 620 OFFCURVE",
"155 597 OFFCURVE",
"185 597 CURVE SMOOTH"
);
},
{
closed = 1;
nodes = (
"326 597 OFFCURVE",
"350 620 OFFCURVE",
"350 649 CURVE SMOOTH",
"350 677 OFFCURVE",
"326 700 OFFCURVE",
"297 700 CURVE SMOOTH",
"267 700 OFFCURVE",
"244 677 OFFCURVE",
"244 649 CURVE SMOOTH",
"244 620 OFFCURVE",
"267 597 OFFCURVE",
"297 597 CURVE SMOOTH"
);
},
{
closed = 1;
nodes = (
"438 597 OFFCURVE",
"462 620 OFFCURVE",
"462 649 CURVE SMOOTH",
"462 677 OFFCURVE",
"438 700 OFFCURVE",
"409 700 CURVE SMOOTH",
"379 700 OFFCURVE",
"356 677 OFFCURVE",
"356 649 CURVE SMOOTH",
"356 620 OFFCURVE",
"379 597 OFFCURVE",
"409 597 CURVE SMOOTH"
);
},
{
closed = 1;
nodes = (
"102 488 OFFCURVE",
"126 511 OFFCURVE",
"126 540 CURVE SMOOTH",
"126 568 OFFCURVE",
"102 591 OFFCURVE",
"73 591 CURVE SMOOTH",
"43 591 OFFCURVE",
"20 568 OFFCURVE",
"20 540 CURVE SMOOTH",
"20 511 OFFCURVE",
"43 488 OFFCURVE",
"73 488 CURVE SMOOTH"
);
},
{
closed = 1;
nodes = (
"551 488 OFFCURVE",
"575 511 OFFCURVE",
"575 540 CURVE SMOOTH",
"575 568 OFFCURVE",
"551 591 OFFCURVE",
"522 591 CURVE SMOOTH",
"492 591 OFFCURVE",
"469 568 OFFCURVE",
"469 540 CURVE SMOOTH",
"469 511 OFFCURVE",
"492 488 OFFCURVE",
"522 488 CURVE SMOOTH"
);
},
{
closed = 1;
nodes = (
"102 379 OFFCURVE",
"126 402 OFFCURVE",
"126 431 CURVE SMOOTH",
"126 459 OFFCURVE",
"102 482 OFFCURVE",
"73 482 CURVE SMOOTH",
"43 482 OFFCURVE",
"20 459 OFFCURVE",
"20 431 CURVE SMOOTH",
"20 402 OFFCURVE",
"43 379 OFFCURVE",
"73 379 CURVE SMOOTH"
);
},
{
closed = 1;
nodes = (
"102 270 OFFCURVE",
"126 293 OFFCURVE",
"126 322 CURVE SMOOTH",
"126 350 OFFCURVE",
"102 373 OFFCURVE",
"73 373 CURVE SMOOTH",
"43 373 OFFCURVE",
"20 350 OFFCURVE",
"20 322 CURVE SMOOTH",
"20 293 OFFCURVE",
"43 270 OFFCURVE",
"73 270 CURVE SMOOTH"
);
},
{
closed = 1;
nodes = (
"102 161 OFFCURVE",
"126 184 OFFCURVE",
"126 213 CURVE SMOOTH",
"126 241 OFFCURVE",
"102 264 OFFCURVE",
"73 264 CURVE SMOOTH",
"43 264 OFFCURVE",
"20 241 OFFCURVE",
"20 213 CURVE SMOOTH",
"20 184 OFFCURVE",
"43 161 OFFCURVE",
"73 161 CURVE SMOOTH"
);
},
{
closed = 1;
nodes = (
"102 52 OFFCURVE",
"126 75 OFFCURVE",
"126 104 CURVE SMOOTH",
"126 132 OFFCURVE",
"102 155 OFFCURVE",
"73 155 CURVE SMOOTH",
"43 155 OFFCURVE",
"20 132 OFFCURVE",
"20 104 CURVE SMOOTH",
"20 75 OFFCURVE",
"43 52 OFFCURVE",
"73 52 CURVE SMOOTH"
);
},
{
closed = 1;
nodes = (
"551 52 OFFCURVE",
"575 75 OFFCURVE",
"575 104 CURVE SMOOTH",
"575 132 OFFCURVE",
"551 155 OFFCURVE",
"522 155 CURVE SMOOTH",
"492 155 OFFCURVE",
"469 132 OFFCURVE",
"469 104 CURVE SMOOTH",
"469 75 OFFCURVE",
"492 52 OFFCURVE",
"522 52 CURVE SMOOTH"
);
},
{
closed = 1;
nodes = (
"214 -58 OFFCURVE",
"238 -35 OFFCURVE",
"238 -6 CURVE SMOOTH",
"238 22 OFFCURVE",
"214 45 OFFCURVE",
"185 45 CURVE SMOOTH",
"155 45 OFFCURVE",
"132 22 OFFCURVE",
"132 -6 CURVE SMOOTH",
"132 -35 OFFCURVE",
"155 -58 OFFCURVE",
"185 -58 CURVE SMOOTH"
);
},
{
closed = 1;
nodes = (
"326 -58 OFFCURVE",
"350 -35 OFFCURVE",
"350 -6 CURVE SMOOTH",
"350 22 OFFCURVE",
"326 45 OFFCURVE",
"297 45 CURVE SMOOTH",
"267 45 OFFCURVE",
"244 22 OFFCURVE",
"244 -6 CURVE SMOOTH",
"244 -35 OFFCURVE",
"267 -58 OFFCURVE",
"297 -58 CURVE SMOOTH"
);
},
{
closed = 1;
nodes = (
"438 -58 OFFCURVE",
"462 -35 OFFCURVE",
"462 -6 CURVE SMOOTH",
"462 22 OFFCURVE",
"438 45 OFFCURVE",
"409 45 CURVE SMOOTH",
"379 45 OFFCURVE",
"356 22 OFFCURVE",
"356 -6 CURVE SMOOTH",
"356 -35 OFFCURVE",
"379 -58 OFFCURVE",
"409 -58 CURVE SMOOTH"
);
}
);
width = 600;
}
);
note = C;
unicode = 0043;
},
{
glyphname = D;
layers = (
{
hints = (
{
horizontal = 1;
place = "{-58, 103}";
type = Stem;
},
{
horizontal = 1;
place = "{161, 103}";
type = Stem;
},
{
horizontal = 1;
place = "{379, 103}";
type = Stem;
},
{
horizontal = 1;
place = "{597, 103}";
type = Stem;
},
{
place = "{20, 106}";
type = Stem;
},
{
place = "{244, 106}";
type = Stem;
},
{
place = "{469, 106}";
type = Stem;
},
{
place = "{132, 106}";
type = Stem;
},
{
place = "{356, 106}";
type = Stem;
},
{
horizontal = 1;
place = "{488, 103}";
type = Stem;
},
{
horizontal = 1;
place = "{270, 103}";
type = Stem;
},
{
horizontal = 1;
place = "{52, 103}";
type = Stem;
}
);
layerId = "50A2E4FD-7804-43F3-BCDE-AB93253BBBDA";
paths = (
{
closed = 1;
nodes = (
"102 597 OFFCURVE",
"126 620 OFFCURVE",
"126 649 CURVE SMOOTH",
"126 677 OFFCURVE",
"102 700 OFFCURVE",
"73 700 CURVE SMOOTH",
"43 700 OFFCURVE",
"20 677 OFFCURVE",
"20 649 CURVE SMOOTH",
"20 620 OFFCURVE",
"43 597 OFFCURVE",
"73 597 CURVE SMOOTH"
);
},
{
closed = 1;
nodes = (
"214 597 OFFCURVE",
"238 620 OFFCURVE",
"238 649 CURVE SMOOTH",
"238 677 OFFCURVE",
"214 700 OFFCURVE",
"185 700 CURVE SMOOTH",
"155 700 OFFCURVE",
"132 677 OFFCURVE",
"132 649 CURVE SMOOTH",
"132 620 OFFCURVE",
"155 597 OFFCURVE",
"185 597 CURVE SMOOTH"
);
},
{
closed = 1;
nodes = (
"326 597 OFFCURVE",
"350 620 OFFCURVE",
"350 649 CURVE SMOOTH",
"350 677 OFFCURVE",
"326 700 OFFCURVE",
"297 700 CURVE SMOOTH",
"267 700 OFFCURVE",
"244 677 OFFCURVE",
"244 649 CURVE SMOOTH",
"244 620 OFFCURVE",
"267 597 OFFCURVE",
"297 597 CURVE SMOOTH"
);
},
{
closed = 1;
nodes = (
"438 597 OFFCURVE",
"462 620 OFFCURVE",
"462 649 CURVE SMOOTH",
"462 677 OFFCURVE",
"438 700 OFFCURVE",
"409 700 CURVE SMOOTH",
"379 700 OFFCURVE",
"356 677 OFFCURVE",
"356 649 CURVE SMOOTH",
"356 620 OFFCURVE",
"379 597 OFFCURVE",
"409 597 CURVE SMOOTH"
);
},
{
closed = 1;
nodes = (
"102 488 OFFCURVE",
"126 511 OFFCURVE",
"126 540 CURVE SMOOTH",
"126 568 OFFCURVE",
"102 591 OFFCURVE",
"73 591 CURVE SMOOTH",
"43 591 OFFCURVE",
"20 568 OFFCURVE",
"20 540 CURVE SMOOTH",
"20 511 OFFCURVE",
"43 488 OFFCURVE",
"73 488 CURVE SMOOTH"
);
},
{
closed = 1;
nodes = (
"551 488 OFFCURVE",
"575 511 OFFCURVE",
"575 540 CURVE SMOOTH",
"575 568 OFFCURVE",
"551 591 OFFCURVE",
"522 591 CURVE SMOOTH",
"492 591 OFFCURVE",
"469 568 OFFCURVE",
"469 540 CURVE SMOOTH",
"469 511 OFFCURVE",
"492 488 OFFCURVE",
"522 488 CURVE SMOOTH"
);
},
{
closed = 1;
nodes = (
"102 379 OFFCURVE",
"126 402 OFFCURVE",
"126 431 CURVE SMOOTH",
"126 459 OFFCURVE",
"102 482 OFFCURVE",
"73 482 CURVE SMOOTH",
"43 482 OFFCURVE",
"20 459 OFFCURVE",
"20 431 CURVE SMOOTH",
"20 402 OFFCURVE",
"43 379 OFFCURVE",
"73 379 CURVE SMOOTH"
);
},
{
closed = 1;
nodes = (
"551 379 OFFCURVE",
"575 402 OFFCURVE",
"575 431 CURVE SMOOTH",
"575 459 OFFCURVE",
"551 482 OFFCURVE",
"522 482 CURVE SMOOTH",
"492 482 OFFCURVE",
"469 459 OFFCURVE",
"469 431 CURVE SMOOTH",
"469 402 OFFCURVE",
"492 379 OFFCURVE",
"522 379 CURVE SMOOTH"
);
},
{
closed = 1;
nodes = (
"102 270 OFFCURVE",
"126 293 OFFCURVE",
"126 322 CURVE SMOOTH",
"126 350 OFFCURVE",
"102 373 OFFCURVE",
"73 373 CURVE SMOOTH",
"43 373 OFFCURVE",
"20 350 OFFCURVE",
"20 322 CURVE SMOOTH",
"20 293 OFFCURVE",
"43 270 OFFCURVE",
"73 270 CURVE SMOOTH"
);
},
{
closed = 1;
nodes = (
"551 270 OFFCURVE",
"575 293 OFFCURVE",
"575 322 CURVE SMOOTH",
"575 350 OFFCURVE",
"551 373 OFFCURVE",
"522 373 CURVE SMOOTH",
"492 373 OFFCURVE",
"469 350 OFFCURVE",
"469 322 CURVE SMOOTH",
"469 293 OFFCURVE",
"492 270 OFFCURVE",
"522 270 CURVE SMOOTH"
);
},
{
closed = 1;
nodes = (
"102 161 OFFCURVE",
"126 184 OFFCURVE",
"126 213 CURVE SMOOTH",
"126 241 OFFCURVE",
"102 264 OFFCURVE",
"73 264 CURVE SMOOTH",
"43 264 OFFCURVE",
"20 241 OFFCURVE",
"20 213 CURVE SMOOTH",
"20 184 OFFCURVE",
"43 161 OFFCURVE",
"73 161 CURVE SMOOTH"
);
},
{
closed = 1;
nodes = (
"551 161 OFFCURVE",
"575 184 OFFCURVE",
"575 213 CURVE SMOOTH",
"575 241 OFFCURVE",
"551 264 OFFCURVE",
"522 264 CURVE SMOOTH",
"492 264 OFFCURVE",
"469 241 OFFCURVE",
"469 213 CURVE SMOOTH",
"469 184 OFFCURVE",
"492 161 OFFCURVE",
"522 161 CURVE SMOOTH"
);
},
{
closed = 1;
nodes = (
"102 52 OFFCURVE",
"126 75 OFFCURVE",
"126 104 CURVE SMOOTH",
"126 132 OFFCURVE",
"102 155 OFFCURVE",
"73 155 CURVE SMOOTH",
"43 155 OFFCURVE",
"20 132 OFFCURVE",
"20 104 CURVE SMOOTH",
"20 75 OFFCURVE",
"43 52 OFFCURVE",
"73 52 CURVE SMOOTH"
);
},
{
closed = 1;
nodes = (
"551 52 OFFCURVE",
"575 75 OFFCURVE",
"575 104 CURVE SMOOTH",
"575 132 OFFCURVE",
"551 155 OFFCURVE",
"522 155 CURVE SMOOTH",
"492 155 OFFCURVE",
"469 132 OFFCURVE",
"469 104 CURVE SMOOTH",
"469 75 OFFCURVE",
"492 52 OFFCURVE",
"522 52 CURVE SMOOTH"
);
},
{
closed = 1;
nodes = (
"102 -58 OFFCURVE",
"126 -35 OFFCURVE",
"126 -6 CURVE SMOOTH",
"126 22 OFFCURVE",
"102 45 OFFCURVE",
"73 45 CURVE SMOOTH",
"43 45 OFFCURVE",
"20 22 OFFCURVE",
"20 -6 CURVE SMOOTH",
"20 -35 OFFCURVE",
"43 -58 OFFCURVE",
"73 -58 CURVE SMOOTH"
);
},
{
closed = 1;
nodes = (
"214 -58 OFFCURVE",
"238 -35 OFFCURVE",
"238 -6 CURVE SMOOTH",
"238 22 OFFCURVE",
"214 45 OFFCURVE",
"185 45 CURVE SMOOTH",
"155 45 OFFCURVE",
"132 22 OFFCURVE",
"132 -6 CURVE SMOOTH",
"132 -35 OFFCURVE",
"155 -58 OFFCURVE",
"185 -58 CURVE SMOOTH"
);
},
{
closed = 1;
nodes = (
"326 -58 OFFCURVE",
"350 -35 OFFCURVE",
"350 -6 CURVE SMOOTH",
"350 22 OFFCURVE",
"326 45 OFFCURVE",
"297 45 CURVE SMOOTH",
"267 45 OFFCURVE",
"244 22 OFFCURVE",
"244 -6 CURVE SMOOTH",
"244 -35 OFFCURVE",
"267 -58 OFFCURVE",
"297 -58 CURVE SMOOTH"
);
},
{
closed = 1;
nodes = (
"438 -58 OFFCURVE",
"462 -35 OFFCURVE",
"462 -6 CURVE SMOOTH",
"462 22 OFFCURVE",
"438 45 OFFCURVE",
"409 45 CURVE SMOOTH",
"379 45 OFFCURVE",
"356 22 OFFCURVE",
"356 -6 CURVE SMOOTH",
"356 -35 OFFCURVE",
"379 -58 OFFCURVE",
"409 -58 CURVE SMOOTH"
);
}
);
width = 600;
}
);
note = D;
unicode = 0044;
},
{
glyphname = E;
layers = (
{
hints = (
{
horizontal = 1;
place = "{-58, 103}";
type = Stem;
},
{
horizontal = 1;
place = "{270, 103}";
type = Stem;
},
{
horizontal = 1;
place = "{597, 103}";
type = Stem;
},
{
place = "{20, 106}";
type = Stem;
},
{
place = "{244, 106}";
type = Stem;
},
{
place = "{469, 106}";
type = Stem;
},
{
place = "{132, 106}";
type = Stem;
},
{
place = "{356, 106}";
type = Stem;
},
{
horizontal = 1;
place = "{488, 103}";
type = Stem;
},
{
horizontal = 1;
place = "{379, 103}";
type = Stem;
},
{
horizontal = 1;
place = "{161, 103}";
type = Stem;
},
{
horizontal = 1;
place = "{52, 103}";
type = Stem;
}
);
layerId = "50A2E4FD-7804-43F3-BCDE-AB93253BBBDA";
paths = (
{
closed = 1;
nodes = (
"102 597 OFFCURVE",
"126 620 OFFCURVE",
"126 649 CURVE SMOOTH",
"126 677 OFFCURVE",
"102 700 OFFCURVE",
"73 700 CURVE SMOOTH",
"43 700 OFFCURVE",
"20 677 OFFCURVE",
"20 649 CURVE SMOOTH",
"20 620 OFFCURVE",
"43 597 OFFCURVE",
"73 597 CURVE SMOOTH"
);
},
{
closed = 1;
nodes = (
"214 597 OFFCURVE",
"238 620 OFFCURVE",
"238 649 CURVE SMOOTH",
"238 677 OFFCURVE",
"214 700 OFFCURVE",
"185 700 CURVE SMOOTH",
"155 700 OFFCURVE",
"132 677 OFFCURVE",
"132 649 CURVE SMOOTH",
"132 620 OFFCURVE",
"155 597 OFFCURVE",
"185 597 CURVE SMOOTH"
);
},
{
closed = 1;
nodes = (
"326 597 OFFCURVE",
"350 620 OFFCURVE",
"350 649 CURVE SMOOTH",
"350 677 OFFCURVE",
"326 700 OFFCURVE",
"297 700 CURVE SMOOTH",
"267 700 OFFCURVE",
"244 677 OFFCURVE",
"244 649 CURVE SMOOTH",
"244 620 OFFCURVE",
"267 597 OFFCURVE",
"297 597 CURVE SMOOTH"
);
},
{
closed = 1;
nodes = (
"438 597 OFFCURVE",
"462 620 OFFCURVE",
"462 649 CURVE SMOOTH",
"462 677 OFFCURVE",
"438 700 OFFCURVE",
"409 700 CURVE SMOOTH",
"379 700 OFFCURVE",
"356 677 OFFCURVE",
"356 649 CURVE SMOOTH",
"356 620 OFFCURVE",
"379 597 OFFCURVE",
"409 597 CURVE SMOOTH"
);
},
{
closed = 1;
nodes = (
"551 597 OFFCURVE",
"575 620 OFFCURVE",
"575 649 CURVE SMOOTH",
"575 677 OFFCURVE",
"551 700 OFFCURVE",
"522 700 CURVE SMOOTH",
"492 700 OFFCURVE",
"469 677 OFFCURVE",
"469 649 CURVE SMOOTH",
"469 620 OFFCURVE",
"492 597 OFFCURVE",
"522 597 CURVE SMOOTH"
);
},
{
closed = 1;
nodes = (
"102 488 OFFCURVE",
"126 511 OFFCURVE",
"126 540 CURVE SMOOTH",
"126 568 OFFCURVE",
"102 591 OFFCURVE",
"73 591 CURVE SMOOTH",
"43 591 OFFCURVE",
"20 568 OFFCURVE",
"20 540 CURVE SMOOTH",
"20 511 OFFCURVE",
"43 488 OFFCURVE",
"73 488 CURVE SMOOTH"
);
},
{
closed = 1;
nodes = (
"102 379 OFFCURVE",
"126 402 OFFCURVE",
"126 431 CURVE SMOOTH",
"126 459 OFFCURVE",
"102 482 OFFCURVE",
"73 482 CURVE SMOOTH",
"43 482 OFFCURVE",
"20 459 OFFCURVE",
"20 431 CURVE SMOOTH",
"20 402 OFFCURVE",
"43 379 OFFCURVE",
"73 379 CURVE SMOOTH"
);
},
{
closed = 1;
nodes = (
"102 270 OFFCURVE",
"126 293 OFFCURVE",
"126 322 CURVE SMOOTH",
"126 350 OFFCURVE",
"102 373 OFFCURVE",
"73 373 CURVE SMOOTH",
"43 373 OFFCURVE",
"20 350 OFFCURVE",
"20 322 CURVE SMOOTH",
"20 293 OFFCURVE",
"43 270 OFFCURVE",
"73 270 CURVE SMOOTH"
);
},
{
closed = 1;
nodes = (
"214 270 OFFCURVE",
"238 293 OFFCURVE",
"238 322 CURVE SMOOTH",
"238 350 OFFCURVE",
"214 373 OFFCURVE",
"185 373 CURVE SMOOTH",
"155 373 OFFCURVE",
"132 350 OFFCURVE",
"132 322 CURVE SMOOTH",
"132 293 OFFCURVE",
"155 270 OFFCURVE",
"185 270 CURVE SMOOTH"
);
},
{
closed = 1;
nodes = (
"326 270 OFFCURVE",
"350 293 OFFCURVE",
"350 322 CURVE SMOOTH",
"350 350 OFFCURVE",
"326 373 OFFCURVE",
"297 373 CURVE SMOOTH",
"267 373 OFFCURVE",
"244 350 OFFCURVE",
"244 322 CURVE SMOOTH",
"244 293 OFFCURVE",
"267 270 OFFCURVE",
"297 270 CURVE SMOOTH"
);
},
{
closed = 1;
nodes = (
"438 270 OFFCURVE",
"462 293 OFFCURVE",
"462 322 CURVE SMOOTH",
"462 350 OFFCURVE",
"438 373 OFFCURVE",
"409 373 CURVE SMOOTH",
"379 373 OFFCURVE",
"356 350 OFFCURVE",
"356 322 CURVE SMOOTH",
"356 293 OFFCURVE",
"379 270 OFFCURVE",
"409 270 CURVE SMOOTH"
);
},
{
closed = 1;
nodes = (
"102 161 OFFCURVE",
"126 184 OFFCURVE",
"126 213 CURVE SMOOTH",
"126 241 OFFCURVE",
"102 264 OFFCURVE",
"73 264 CURVE SMOOTH",
"43 264 OFFCURVE",
"20 241 OFFCURVE",
"20 213 CURVE SMOOTH",
"20 184 OFFCURVE",
"43 161 OFFCURVE",
"73 161 CURVE SMOOTH"
);
},
{
closed = 1;
nodes = (
"102 52 OFFCURVE",
"126 75 OFFCURVE",
"126 104 CURVE SMOOTH",
"126 132 OFFCURVE",
"102 155 OFFCURVE",
"73 155 CURVE SMOOTH",
"43 155 OFFCURVE",
"20 132 OFFCURVE",
"20 104 CURVE SMOOTH",
"20 75 OFFCURVE",
"43 52 OFFCURVE",
"73 52 CURVE SMOOTH"
);
},
{
closed = 1;
nodes = (
"102 -58 OFFCURVE",
"126 -35 OFFCURVE",
"126 -6 CURVE SMOOTH",
"126 22 OFFCURVE",
"102 45 OFFCURVE",
"73 45 CURVE SMOOTH",
"43 45 OFFCURVE",
"20 22 OFFCURVE",
"20 -6 CURVE SMOOTH",
"20 -35 OFFCURVE",
"43 -58 OFFCURVE",
"73 -58 CURVE SMOOTH"
);
},
{
closed = 1;
nodes = (
"214 -58 OFFCURVE",
"238 -35 OFFCURVE",
"238 -6 CURVE SMOOTH",
"238 22 OFFCURVE",
"214 45 OFFCURVE",
"185 45 CURVE SMOOTH",
"155 45 OFFCURVE",
"132 22 OFFCURVE",
"132 -6 CURVE SMOOTH",
"132 -35 OFFCURVE",
"155 -58 OFFCURVE",
"185 -58 CURVE SMOOTH"
);
},
{
closed = 1;
nodes = (
"326 -58 OFFCURVE",
"350 -35 OFFCURVE",
"350 -6 CURVE SMOOTH",
"350 22 OFFCURVE",
"326 45 OFFCURVE",
"297 45 CURVE SMOOTH",
"267 45 OFFCURVE",
"244 22 OFFCURVE",
"244 -6 CURVE SMOOTH",
"244 -35 OFFCURVE",
"267 -58 OFFCURVE",
"297 -58 CURVE SMOOTH"
);
},
{
closed = 1;
nodes = (
"438 -58 OFFCURVE",
"462 -35 OFFCURVE",
"462 -6 CURVE SMOOTH",
"462 22 OFFCURVE",
"438 45 OFFCURVE",
"409 45 CURVE SMOOTH",
"379 45 OFFCURVE",
"356 22 OFFCURVE",
"356 -6 CURVE SMOOTH",
"356 -35 OFFCURVE",
"379 -58 OFFCURVE",
"409 -58 CURVE SMOOTH"
);
},
{
closed = 1;
nodes = (
"551 -58 OFFCURVE",
"575 -35 OFFCURVE",
"575 -6 CURVE SMOOTH",
"575 22 OFFCURVE",
"551 45 OFFCURVE",
"522 45 CURVE SMOOTH",
"492 45 OFFCURVE",
"469 22 OFFCURVE",
"469 -6 CURVE SMOOTH",
"469 -35 OFFCURVE",
"492 -58 OFFCURVE",
"522 -58 CURVE SMOOTH"
);
}
);
width = 600;
}
);
note = E;
unicode = 0045;
},
{
glyphname = F;
layers = (
{
hints = (
{
horizontal = 1;
place = "{52, 103}";
type = Stem;
},
{
horizontal = 1;
place = "{270, 103}";
type = Stem;
},
{
horizontal = 1;
place = "{597, 103}";
type = Stem;
},
{
place = "{20, 106}";
type = Stem;
},
{
place = "{244, 106}";
type = Stem;
},
{
place = "{469, 106}";
type = Stem;
},
{
place = "{132, 106}";
type = Stem;
},
{
place = "{356, 106}";
type = Stem;
},
{
horizontal = 1;
place = "{488, 103}";
type = Stem;
},
{
horizontal = 1;
place = "{379, 103}";
type = Stem;
},
{
horizontal = 1;
place = "{161, 103}";
type = Stem;
},
{
horizontal = 1;
place = "{-58, 103}";
type = Stem;
}
);
layerId = "50A2E4FD-7804-43F3-BCDE-AB93253BBBDA";
paths = (
{
closed = 1;
nodes = (
"102 597 OFFCURVE",
"126 620 OFFCURVE",
"126 649 CURVE SMOOTH",
"126 677 OFFCURVE",
"102 700 OFFCURVE",
"73 700 CURVE SMOOTH",
"43 700 OFFCURVE",
"20 677 OFFCURVE",
"20 649 CURVE SMOOTH",
"20 620 OFFCURVE",
"43 597 OFFCURVE",
"73 597 CURVE SMOOTH"
);
},
{
closed = 1;
nodes = (
"214 597 OFFCURVE",
"238 620 OFFCURVE",
"238 649 CURVE SMOOTH",
"238 677 OFFCURVE",
"214 700 OFFCURVE",
"185 700 CURVE SMOOTH",
"155 700 OFFCURVE",
"132 677 OFFCURVE",
"132 649 CURVE SMOOTH",
"132 620 OFFCURVE",
"155 597 OFFCURVE",
"185 597 CURVE SMOOTH"
);
},
{
closed = 1;
nodes = (
"326 597 OFFCURVE",
"350 620 OFFCURVE",
"350 649 CURVE SMOOTH",
"350 677 OFFCURVE",
"326 700 OFFCURVE",
"297 700 CURVE SMOOTH",
"267 700 OFFCURVE",
"244 677 OFFCURVE",
"244 649 CURVE SMOOTH",
"244 620 OFFCURVE",
"267 597 OFFCURVE",
"297 597 CURVE SMOOTH"
);
},
{
closed = 1;
nodes = (
"438 597 OFFCURVE",
"462 620 OFFCURVE",
"462 649 CURVE SMOOTH",
"462 677 OFFCURVE",
"438 700 OFFCURVE",
"409 700 CURVE SMOOTH",
"379 700 OFFCURVE",
"356 677 OFFCURVE",
"356 649 CURVE SMOOTH",
"356 620 OFFCURVE",
"379 597 OFFCURVE",
"409 597 CURVE SMOOTH"
);
},
{
closed = 1;
nodes = (
"551 597 OFFCURVE",
"575 620 OFFCURVE",
"575 649 CURVE SMOOTH",
"575 677 OFFCURVE",
"551 700 OFFCURVE",
"522 700 CURVE SMOOTH",
"492 700 OFFCURVE",
"469 677 OFFCURVE",
"469 649 CURVE SMOOTH",
"469 620 OFFCURVE",
"492 597 OFFCURVE",
"522 597 CURVE SMOOTH"
);
},
{
closed = 1;
nodes = (
"102 488 OFFCURVE",
"126 511 OFFCURVE",
"126 540 CURVE SMOOTH",
"126 568 OFFCURVE",
"102 591 OFFCURVE",
"73 591 CURVE SMOOTH",
"43 591 OFFCURVE",
"20 568 OFFCURVE",
"20 540 CURVE SMOOTH",
"20 511 OFFCURVE",
"43 488 OFFCURVE",
"73 488 CURVE SMOOTH"
);
},
{
closed = 1;
nodes = (
"102 379 OFFCURVE",
"126 402 OFFCURVE",
"126 431 CURVE SMOOTH",
"126 459 OFFCURVE",
"102 482 OFFCURVE",
"73 482 CURVE SMOOTH",
"43 482 OFFCURVE",
"20 459 OFFCURVE",
"20 431 CURVE SMOOTH",
"20 402 OFFCURVE",
"43 379 OFFCURVE",
"73 379 CURVE SMOOTH"
);
},
{
closed = 1;
nodes = (
"102 270 OFFCURVE",
"126 293 OFFCURVE",
"126 322 CURVE SMOOTH",
"126 350 OFFCURVE",
"102 373 OFFCURVE",
"73 373 CURVE SMOOTH",
"43 373 OFFCURVE",
"20 350 OFFCURVE",
"20 322 CURVE SMOOTH",
"20 293 OFFCURVE",
"43 270 OFFCURVE",
"73 270 CURVE SMOOTH"
);
},
{
closed = 1;
nodes = (
"214 270 OFFCURVE",
"238 293 OFFCURVE",
"238 322 CURVE SMOOTH",
"238 350 OFFCURVE",
"214 373 OFFCURVE",
"185 373 CURVE SMOOTH",
"155 373 OFFCURVE",
"132 350 OFFCURVE",
"132 322 CURVE SMOOTH",
"132 293 OFFCURVE",
"155 270 OFFCURVE",
"185 270 CURVE SMOOTH"
);
},
{
closed = 1;
nodes = (
"326 270 OFFCURVE",
"350 293 OFFCURVE",
"350 322 CURVE SMOOTH",
"350 350 OFFCURVE",
"326 373 OFFCURVE",
"297 373 CURVE SMOOTH",
"267 373 OFFCURVE",
"244 350 OFFCURVE",
"244 322 CURVE SMOOTH",
"244 293 OFFCURVE",
"267 270 OFFCURVE",
"297 270 CURVE SMOOTH"
);
},
{
closed = 1;
nodes = (
"438 270 OFFCURVE",
"462 293 OFFCURVE",
"462 322 CURVE SMOOTH",
"462 350 OFFCURVE",
"438 373 OFFCURVE",
"409 373 CURVE SMOOTH",
"379 373 OFFCURVE",
"356 350 OFFCURVE",
"356 322 CURVE SMOOTH",
"356 293 OFFCURVE",
"379 270 OFFCURVE",
"409 270 CURVE SMOOTH"
);
},
{
closed = 1;
nodes = (
"102 161 OFFCURVE",
"126 184 OFFCURVE",
"126 213 CURVE SMOOTH",
"126 241 OFFCURVE",
"102 264 OFFCURVE",
"73 264 CURVE SMOOTH",
"43 264 OFFCURVE",
"20 241 OFFCURVE",
"20 213 CURVE SMOOTH",
"20 184 OFFCURVE",
"43 161 OFFCURVE",
"73 161 CURVE SMOOTH"
);
},
{
closed = 1;
nodes = (
"102 52 OFFCURVE",
"126 75 OFFCURVE",
"126 104 CURVE SMOOTH",
"126 132 OFFCURVE",
"102 155 OFFCURVE",
"73 155 CURVE SMOOTH",
"43 155 OFFCURVE",
"20 132 OFFCURVE",
"20 104 CURVE SMOOTH",
"20 75 OFFCURVE",
"43 52 OFFCURVE",
"73 52 CURVE SMOOTH"
);
},
{
closed = 1;
nodes = (
"102 -58 OFFCURVE",
"126 -35 OFFCURVE",
"126 -6 CURVE SMOOTH",
"126 22 OFFCURVE",
"102 45 OFFCURVE",
"73 45 CURVE SMOOTH",
"43 45 OFFCURVE",
"20 22 OFFCURVE",
"20 -6 CURVE SMOOTH",
"20 -35 OFFCURVE",
"43 -58 OFFCURVE",
"73 -58 CURVE SMOOTH"
);
}
);
width = 600;
}
);
note = F;
unicode = 0046;
},
{
glyphname = G;
layers = (
{
hints = (
{
horizontal = 1;
place = "{597, 103}";
type = Stem;
},
{
place = "{132, 106}";
type = Stem;
},
{
place = "{244, 106}";
type = Stem;
},
{
place = "{356, 106}";
type = Stem;
},
{
horizontal = 1;
place = "{488, 103}";
type = Stem;
},
{
place = "{20, 106}";
type = Stem;
},
{
place = "{469, 106}";
type = Stem;
},
{
horizontal = 1;
place = "{379, 103}";
type = Stem;
},
{
horizontal = 1;
place = "{270, 103}";
type = Stem;
},
{
horizontal = 1;
place = "{161, 103}";
type = Stem;
},
{
horizontal = 1;
place = "{52, 103}";
type = Stem;
},
{
horizontal = 1;
place = "{-58, 103}";
type = Stem;
}
);
layerId = "50A2E4FD-7804-43F3-BCDE-AB93253BBBDA";
paths = (
{
closed = 1;
nodes = (
"214 597 OFFCURVE",
"238 620 OFFCURVE",
"238 649 CURVE SMOOTH",
"238 677 OFFCURVE",
"214 700 OFFCURVE",
"185 700 CURVE SMOOTH",
"155 700 OFFCURVE",
"132 677 OFFCURVE",
"132 649 CURVE SMOOTH",
"132 620 OFFCURVE",
"155 597 OFFCURVE",
"185 597 CURVE SMOOTH"
);
},
{
closed = 1;
nodes = (
"326 597 OFFCURVE",
"350 620 OFFCURVE",
"350 649 CURVE SMOOTH",
"350 677 OFFCURVE",
"326 700 OFFCURVE",
"297 700 CURVE SMOOTH",
"267 700 OFFCURVE",
"244 677 OFFCURVE",
"244 649 CURVE SMOOTH",
"244 620 OFFCURVE",
"267 597 OFFCURVE",
"297 597 CURVE SMOOTH"
);
},
{
closed = 1;
nodes = (
"438 597 OFFCURVE",
"462 620 OFFCURVE",
"462 649 CURVE SMOOTH",
"462 677 OFFCURVE",
"438 700 OFFCURVE",
"409 700 CURVE SMOOTH",
"379 700 OFFCURVE",
"356 677 OFFCURVE",
"356 649 CURVE SMOOTH",
"356 620 OFFCURVE",
"379 597 OFFCURVE",
"409 597 CURVE SMOOTH"
);
},
{
closed = 1;
nodes = (
"102 488 OFFCURVE",
"126 511 OFFCURVE",
"126 540 CURVE SMOOTH",
"126 568 OFFCURVE",
"102 591 OFFCURVE",
"73 591 CURVE SMOOTH",
"43 591 OFFCURVE",
"20 568 OFFCURVE",
"20 540 CURVE SMOOTH",
"20 511 OFFCURVE",
"43 488 OFFCURVE",
"73 488 CURVE SMOOTH"
);
},
{
closed = 1;
nodes = (
"551 488 OFFCURVE",
"575 511 OFFCURVE",
"575 540 CURVE SMOOTH",
"575 568 OFFCURVE",
"551 591 OFFCURVE",
"522 591 CURVE SMOOTH",
"492 591 OFFCURVE",
"469 568 OFFCURVE",
"469 540 CURVE SMOOTH",
"469 511 OFFCURVE",
"492 488 OFFCURVE",
"522 488 CURVE SMOOTH"
);
},
{
closed = 1;
nodes = (
"102 379 OFFCURVE",
"126 402 OFFCURVE",
"126 431 CURVE SMOOTH",
"126 459 OFFCURVE",
"102 482 OFFCURVE",
"73 482 CURVE SMOOTH",
"43 482 OFFCURVE",
"20 459 OFFCURVE",
"20 431 CURVE SMOOTH",
"20 402 OFFCURVE",
"43 379 OFFCURVE",
"73 379 CURVE SMOOTH"
);
},
{
closed = 1;
nodes = (
"102 270 OFFCURVE",
"126 293 OFFCURVE",
"126 322 CURVE SMOOTH",
"126 350 OFFCURVE",
"102 373 OFFCURVE",
"73 373 CURVE SMOOTH",
"43 373 OFFCURVE",
"20 350 OFFCURVE",
"20 322 CURVE SMOOTH",
"20 293 OFFCURVE",
"43 270 OFFCURVE",
"73 270 CURVE SMOOTH"
);
},
{
closed = 1;
nodes = (
"326 270 OFFCURVE",
"350 293 OFFCURVE",
"350 322 CURVE SMOOTH",
"350 350 OFFCURVE",
"326 373 OFFCURVE",
"297 373 CURVE SMOOTH",
"267 373 OFFCURVE",
"244 350 OFFCURVE",
"244 322 CURVE SMOOTH",
"244 293 OFFCURVE",
"267 270 OFFCURVE",
"297 270 CURVE SMOOTH"
);
},
{
closed = 1;
nodes = (
"438 270 OFFCURVE",
"462 293 OFFCURVE",
"462 322 CURVE SMOOTH",
"462 350 OFFCURVE",
"438 373 OFFCURVE",
"409 373 CURVE SMOOTH",
"379 373 OFFCURVE",
"356 350 OFFCURVE",
"356 322 CURVE SMOOTH",
"356 293 OFFCURVE",
"379 270 OFFCURVE",
"409 270 CURVE SMOOTH"
);
},
{
closed = 1;
nodes = (
"551 270 OFFCURVE",
"575 293 OFFCURVE",
"575 322 CURVE SMOOTH",
"575 350 OFFCURVE",
"551 373 OFFCURVE",
"522 373 CURVE SMOOTH",
"492 373 OFFCURVE",
"469 350 OFFCURVE",
"469 322 CURVE SMOOTH",
"469 293 OFFCURVE",
"492 270 OFFCURVE",
"522 270 CURVE SMOOTH"
);
},
{
closed = 1;
nodes = (
"102 161 OFFCURVE",
"126 184 OFFCURVE",
"126 213 CURVE SMOOTH",
"126 241 OFFCURVE",
"102 264 OFFCURVE",
"73 264 CURVE SMOOTH",
"43 264 OFFCURVE",
"20 241 OFFCURVE",
"20 213 CURVE SMOOTH",
"20 184 OFFCURVE",
"43 161 OFFCURVE",
"73 161 CURVE SMOOTH"
);
},
{
closed = 1;
nodes = (
"551 161 OFFCURVE",
"575 184 OFFCURVE",
"575 213 CURVE SMOOTH",
"575 241 OFFCURVE",
"551 264 OFFCURVE",
"522 264 CURVE SMOOTH",
"492 264 OFFCURVE",
"469 241 OFFCURVE",
"469 213 CURVE SMOOTH",
"469 184 OFFCURVE",
"492 161 OFFCURVE",
"522 161 CURVE SMOOTH"
);
},
{
closed = 1;
nodes = (
"102 52 OFFCURVE",
"126 75 OFFCURVE",
"126 104 CURVE SMOOTH",
"126 132 OFFCURVE",
"102 155 OFFCURVE",
"73 155 CURVE SMOOTH",
"43 155 OFFCURVE",
"20 132 OFFCURVE",
"20 104 CURVE SMOOTH",
"20 75 OFFCURVE",
"43 52 OFFCURVE",
"73 52 CURVE SMOOTH"
);
},
{
closed = 1;
nodes = (
"551 52 OFFCURVE",
"575 75 OFFCURVE",
"575 104 CURVE SMOOTH",
"575 132 OFFCURVE",
"551 155 OFFCURVE",
"522 155 CURVE SMOOTH",
"492 155 OFFCURVE",
"469 132 OFFCURVE",
"469 104 CURVE SMOOTH",
"469 75 OFFCURVE",
"492 52 OFFCURVE",
"522 52 CURVE SMOOTH"
);
},
{
closed = 1;
nodes = (
"214 -58 OFFCURVE",
"238 -35 OFFCURVE",
"238 -6 CURVE SMOOTH",
"238 22 OFFCURVE",
"214 45 OFFCURVE",
"185 45 CURVE SMOOTH",
"155 45 OFFCURVE",
"132 22 OFFCURVE",
"132 -6 CURVE SMOOTH",
"132 -35 OFFCURVE",
"155 -58 OFFCURVE",
"185 -58 CURVE SMOOTH"
);
},
{
closed = 1;
nodes = (
"326 -58 OFFCURVE",
"350 -35 OFFCURVE",
"350 -6 CURVE SMOOTH",
"350 22 OFFCURVE",
"326 45 OFFCURVE",
"297 45 CURVE SMOOTH",
"267 45 OFFCURVE",
"244 22 OFFCURVE",
"244 -6 CURVE SMOOTH",
"244 -35 OFFCURVE",
"267 -58 OFFCURVE",
"297 -58 CURVE SMOOTH"
);
},
{
closed = 1;
nodes = (
"438 -58 OFFCURVE",
"462 -35 OFFCURVE",
"462 -6 CURVE SMOOTH",
"462 22 OFFCURVE",
"438 45 OFFCURVE",
"409 45 CURVE SMOOTH",
"379 45 OFFCURVE",
"356 22 OFFCURVE",
"356 -6 CURVE SMOOTH",
"356 -35 OFFCURVE",
"379 -58 OFFCURVE",
"409 -58 CURVE SMOOTH"
);
},
{
closed = 1;
nodes = (
"551 -58 OFFCURVE",
"575 -35 OFFCURVE",
"575 -6 CURVE SMOOTH",
"575 22 OFFCURVE",
"551 45 OFFCURVE",
"522 45 CURVE SMOOTH",
"492 45 OFFCURVE",
"469 22 OFFCURVE",
"469 -6 CURVE SMOOTH",
"469 -35 OFFCURVE",
"492 -58 OFFCURVE",
"522 -58 CURVE SMOOTH"
);
}
);
width = 600;
}
);
note = G;
unicode = 0047;
},
{
glyphname = H;
layers = (
{
hints = (
{
horizontal = 1;
place = "{52, 103}";
type = Stem;
},
{
horizontal = 1;
place = "{270, 103}";
type = Stem;
},
{
horizontal = 1;
place = "{597, 103}";
type = Stem;
},
{
place = "{20, 106}";
type = Stem;
},
{
place = "{244, 106}";
type = Stem;
},
{
place = "{469, 106}";
type = Stem;
},
{
horizontal = 1;
place = "{488, 103}";
type = Stem;
},
{
horizontal = 1;
place = "{379, 103}";
type = Stem;
},
{
place = "{132, 106}";
type = Stem;
},
{
place = "{356, 106}";
type = Stem;
},
{
horizontal = 1;
place = "{161, 103}";
type = Stem;
},
{
horizontal = 1;
place = "{-58, 103}";
type = Stem;
}
);
layerId = "50A2E4FD-7804-43F3-BCDE-AB93253BBBDA";
paths = (
{
closed = 1;
nodes = (
"102 597 OFFCURVE",
"126 620 OFFCURVE",
"126 649 CURVE SMOOTH",
"126 677 OFFCURVE",
"102 700 OFFCURVE",
"73 700 CURVE SMOOTH",
"43 700 OFFCURVE",
"20 677 OFFCURVE",
"20 649 CURVE SMOOTH",
"20 620 OFFCURVE",
"43 597 OFFCURVE",
"73 597 CURVE SMOOTH"
);
},
{
closed = 1;
nodes = (
"551 597 OFFCURVE",
"575 620 OFFCURVE",
"575 649 CURVE SMOOTH",
"575 677 OFFCURVE",
"551 700 OFFCURVE",
"522 700 CURVE SMOOTH",
"492 700 OFFCURVE",
"469 677 OFFCURVE",
"469 649 CURVE SMOOTH",
"469 620 OFFCURVE",
"492 597 OFFCURVE",
"522 597 CURVE SMOOTH"
);
},
{
closed = 1;
nodes = (
"102 488 OFFCURVE",
"126 511 OFFCURVE",
"126 540 CURVE SMOOTH",
"126 568 OFFCURVE",
"102 591 OFFCURVE",
"73 591 CURVE SMOOTH",
"43 591 OFFCURVE",
"20 568 OFFCURVE",
"20 540 CURVE SMOOTH",
"20 511 OFFCURVE",
"43 488 OFFCURVE",
"73 488 CURVE SMOOTH"
);
},
{
closed = 1;
nodes = (
"551 488 OFFCURVE",
"575 511 OFFCURVE",
"575 540 CURVE SMOOTH",
"575 568 OFFCURVE",
"551 591 OFFCURVE",
"522 591 CURVE SMOOTH",
"492 591 OFFCURVE",
"469 568 OFFCURVE",
"469 540 CURVE SMOOTH",
"469 511 OFFCURVE",
"492 488 OFFCURVE",
"522 488 CURVE SMOOTH"
);
},
{
closed = 1;
nodes = (
"102 379 OFFCURVE",
"126 402 OFFCURVE",
"126 431 CURVE SMOOTH",
"126 459 OFFCURVE",
"102 482 OFFCURVE",
"73 482 CURVE SMOOTH",
"43 482 OFFCURVE",
"20 459 OFFCURVE",
"20 431 CURVE SMOOTH",
"20 402 OFFCURVE",
"43 379 OFFCURVE",
"73 379 CURVE SMOOTH"
);
},
{
closed = 1;
nodes = (
"551 379 OFFCURVE",
"575 402 OFFCURVE",
"575 431 CURVE SMOOTH",
"575 459 OFFCURVE",
"551 482 OFFCURVE",
"522 482 CURVE SMOOTH",
"492 482 OFFCURVE",
"469 459 OFFCURVE",
"469 431 CURVE SMOOTH",
"469 402 OFFCURVE",
"492 379 OFFCURVE",
"522 379 CURVE SMOOTH"
);
},
{
closed = 1;
nodes = (
"102 270 OFFCURVE",
"126 293 OFFCURVE",
"126 322 CURVE SMOOTH",
"126 350 OFFCURVE",
"102 373 OFFCURVE",
"73 373 CURVE SMOOTH",
"43 373 OFFCURVE",
"20 350 OFFCURVE",
"20 322 CURVE SMOOTH",
"20 293 OFFCURVE",
"43 270 OFFCURVE",
"73 270 CURVE SMOOTH"
);
},
{
closed = 1;
nodes = (
"214 270 OFFCURVE",
"238 293 OFFCURVE",
"238 322 CURVE SMOOTH",
"238 350 OFFCURVE",
"214 373 OFFCURVE",
"185 373 CURVE SMOOTH",
"155 373 OFFCURVE",
"132 350 OFFCURVE",
"132 322 CURVE SMOOTH",
"132 293 OFFCURVE",
"155 270 OFFCURVE",
"185 270 CURVE SMOOTH"
);
},
{
closed = 1;
nodes = (
"326 270 OFFCURVE",
"350 293 OFFCURVE",
"350 322 CURVE SMOOTH",
"350 350 OFFCURVE",
"326 373 OFFCURVE",
"297 373 CURVE SMOOTH",
"267 373 OFFCURVE",
"244 350 OFFCURVE",
"244 322 CURVE SMOOTH",
"244 293 OFFCURVE",
"267 270 OFFCURVE",
"297 270 CURVE SMOOTH"
);
},
{
closed = 1;
nodes = (
"438 270 OFFCURVE",
"462 293 OFFCURVE",
"462 322 CURVE SMOOTH",
"462 350 OFFCURVE",
"438 373 OFFCURVE",
"409 373 CURVE SMOOTH",
"379 373 OFFCURVE",
"356 350 OFFCURVE",
"356 322 CURVE SMOOTH",
"356 293 OFFCURVE",
"379 270 OFFCURVE",
"409 270 CURVE SMOOTH"
);
},
{
closed = 1;
nodes = (
"551 270 OFFCURVE",
"575 293 OFFCURVE",
"575 322 CURVE SMOOTH",
"575 350 OFFCURVE",
"551 373 OFFCURVE",
"522 373 CURVE SMOOTH",
"492 373 OFFCURVE",
"469 350 OFFCURVE",
"469 322 CURVE SMOOTH",
"469 293 OFFCURVE",
"492 270 OFFCURVE",
"522 270 CURVE SMOOTH"
);
},
{
closed = 1;
nodes = (
"102 161 OFFCURVE",
"126 184 OFFCURVE",
"126 213 CURVE SMOOTH",
"126 241 OFFCURVE",
"102 264 OFFCURVE",
"73 264 CURVE SMOOTH",
"43 264 OFFCURVE",
"20 241 OFFCURVE",
"20 213 CURVE SMOOTH",
"20 184 OFFCURVE",
"43 161 OFFCURVE",
"73 161 CURVE SMOOTH"
);
},
{
closed = 1;
nodes = (
"551 161 OFFCURVE",
"575 184 OFFCURVE",
"575 213 CURVE SMOOTH",
"575 241 OFFCURVE",
"551 264 OFFCURVE",
"522 264 CURVE SMOOTH",
"492 264 OFFCURVE",
"469 241 OFFCURVE",
"469 213 CURVE SMOOTH",
"469 184 OFFCURVE",
"492 161 OFFCURVE",
"522 161 CURVE SMOOTH"
);
},
{
closed = 1;
nodes = (
"102 52 OFFCURVE",
"126 75 OFFCURVE",
"126 104 CURVE SMOOTH",
"126 132 OFFCURVE",
"102 155 OFFCURVE",
"73 155 CURVE SMOOTH",
"43 155 OFFCURVE",
"20 132 OFFCURVE",
"20 104 CURVE SMOOTH",
"20 75 OFFCURVE",
"43 52 OFFCURVE",
"73 52 CURVE SMOOTH"
);
},
{
closed = 1;
nodes = (
"551 52 OFFCURVE",
"575 75 OFFCURVE",
"575 104 CURVE SMOOTH",
"575 132 OFFCURVE",
"551 155 OFFCURVE",
"522 155 CURVE SMOOTH",
"492 155 OFFCURVE",
"469 132 OFFCURVE",
"469 104 CURVE SMOOTH",
"469 75 OFFCURVE",
"492 52 OFFCURVE",
"522 52 CURVE SMOOTH"
);
},
{
closed = 1;
nodes = (
"102 -58 OFFCURVE",
"126 -35 OFFCURVE",
"126 -6 CURVE SMOOTH",
"126 22 OFFCURVE",
"102 45 OFFCURVE",
"73 45 CURVE SMOOTH",
"43 45 OFFCURVE",
"20 22 OFFCURVE",
"20 -6 CURVE SMOOTH",
"20 -35 OFFCURVE",
"43 -58 OFFCURVE",
"73 -58 CURVE SMOOTH"
);
},
{
closed = 1;
nodes = (
"551 -58 OFFCURVE",
"575 -35 OFFCURVE",
"575 -6 CURVE SMOOTH",
"575 22 OFFCURVE",
"551 45 OFFCURVE",
"522 45 CURVE SMOOTH",
"492 45 OFFCURVE",
"469 22 OFFCURVE",
"469 -6 CURVE SMOOTH",
"469 -35 OFFCURVE",
"492 -58 OFFCURVE",
"522 -58 CURVE SMOOTH"
);
}
);
width = 600;
}
);
note = H;
unicode = 0048;
},
{
glyphname = I;
layers = (
{
hints = (
{
horizontal = 1;
place = "{597, 103}";
type = Stem;
},
{
place = "{132, 106}";
type = Stem;
},
{
place = "{244, 106}";
type = Stem;
},
{
place = "{356, 106}";
type = Stem;
},
{
horizontal = 1;
place = "{488, 103}";
type = Stem;
},
{
horizontal = 1;
place = "{379, 103}";
type = Stem;
},
{
horizontal = 1;
place = "{270, 103}";
type = Stem;
},
{
horizontal = 1;
place = "{161, 103}";
type = Stem;
},
{
horizontal = 1;
place = "{52, 103}";
type = Stem;
},
{
horizontal = 1;
place = "{-58, 103}";
type = Stem;
}
);
layerId = "50A2E4FD-7804-43F3-BCDE-AB93253BBBDA";
paths = (
{
closed = 1;
nodes = (
"214 597 OFFCURVE",
"238 620 OFFCURVE",
"238 649 CURVE SMOOTH",
"238 677 OFFCURVE",
"214 700 OFFCURVE",
"185 700 CURVE SMOOTH",
"155 700 OFFCURVE",
"132 677 OFFCURVE",
"132 649 CURVE SMOOTH",
"132 620 OFFCURVE",
"155 597 OFFCURVE",
"185 597 CURVE SMOOTH"
);
},
{
closed = 1;
nodes = (
"326 597 OFFCURVE",
"350 620 OFFCURVE",
"350 649 CURVE SMOOTH",
"350 677 OFFCURVE",
"326 700 OFFCURVE",
"297 700 CURVE SMOOTH",
"267 700 OFFCURVE",
"244 677 OFFCURVE",
"244 649 CURVE SMOOTH",
"244 620 OFFCURVE",
"267 597 OFFCURVE",
"297 597 CURVE SMOOTH"
);
},
{
closed = 1;
nodes = (
"438 597 OFFCURVE",
"462 620 OFFCURVE",
"462 649 CURVE SMOOTH",
"462 677 OFFCURVE",
"438 700 OFFCURVE",
"409 700 CURVE SMOOTH",
"379 700 OFFCURVE",
"356 677 OFFCURVE",
"356 649 CURVE SMOOTH",
"356 620 OFFCURVE",
"379 597 OFFCURVE",
"409 597 CURVE SMOOTH"
);
},
{
closed = 1;
nodes = (
"326 488 OFFCURVE",
"350 511 OFFCURVE",
"350 540 CURVE SMOOTH",
"350 568 OFFCURVE",
"326 591 OFFCURVE",
"297 591 CURVE SMOOTH",
"267 591 OFFCURVE",
"244 568 OFFCURVE",
"244 540 CURVE SMOOTH",
"244 511 OFFCURVE",
"267 488 OFFCURVE",
"297 488 CURVE SMOOTH"
);
},
{
closed = 1;
nodes = (
"326 379 OFFCURVE",
"350 402 OFFCURVE",
"350 431 CURVE SMOOTH",
"350 459 OFFCURVE",
"326 482 OFFCURVE",
"297 482 CURVE SMOOTH",
"267 482 OFFCURVE",
"244 459 OFFCURVE",
"244 431 CURVE SMOOTH",
"244 402 OFFCURVE",
"267 379 OFFCURVE",
"297 379 CURVE SMOOTH"
);
},
{
closed = 1;
nodes = (
"326 270 OFFCURVE",
"350 293 OFFCURVE",
"350 322 CURVE SMOOTH",
"350 350 OFFCURVE",
"326 373 OFFCURVE",
"297 373 CURVE SMOOTH",
"267 373 OFFCURVE",
"244 350 OFFCURVE",
"244 322 CURVE SMOOTH",
"244 293 OFFCURVE",
"267 270 OFFCURVE",
"297 270 CURVE SMOOTH"
);
},
{
closed = 1;
nodes = (
"326 161 OFFCURVE",
"350 184 OFFCURVE",
"350 213 CURVE SMOOTH",
"350 241 OFFCURVE",
"326 264 OFFCURVE",
"297 264 CURVE SMOOTH",
"267 264 OFFCURVE",
"244 241 OFFCURVE",
"244 213 CURVE SMOOTH",
"244 184 OFFCURVE",
"267 161 OFFCURVE",
"297 161 CURVE SMOOTH"
);
},
{
closed = 1;
nodes = (
"326 52 OFFCURVE",
"350 75 OFFCURVE",
"350 104 CURVE SMOOTH",
"350 132 OFFCURVE",
"326 155 OFFCURVE",
"297 155 CURVE SMOOTH",
"267 155 OFFCURVE",
"244 132 OFFCURVE",
"244 104 CURVE SMOOTH",
"244 75 OFFCURVE",
"267 52 OFFCURVE",
"297 52 CURVE SMOOTH"
);
},
{
closed = 1;
nodes = (
"214 -58 OFFCURVE",
"238 -35 OFFCURVE",
"238 -6 CURVE SMOOTH",
"238 22 OFFCURVE",
"214 45 OFFCURVE",
"185 45 CURVE SMOOTH",
"155 45 OFFCURVE",
"132 22 OFFCURVE",
"132 -6 CURVE SMOOTH",
"132 -35 OFFCURVE",
"155 -58 OFFCURVE",
"185 -58 CURVE SMOOTH"
);
},
{
closed = 1;
nodes = (
"326 -58 OFFCURVE",
"350 -35 OFFCURVE",
"350 -6 CURVE SMOOTH",
"350 22 OFFCURVE",
"326 45 OFFCURVE",
"297 45 CURVE SMOOTH",
"267 45 OFFCURVE",
"244 22 OFFCURVE",
"244 -6 CURVE SMOOTH",
"244 -35 OFFCURVE",
"267 -58 OFFCURVE",
"297 -58 CURVE SMOOTH"
);
},
{
closed = 1;
nodes = (
"438 -58 OFFCURVE",
"462 -35 OFFCURVE",
"462 -6 CURVE SMOOTH",
"462 22 OFFCURVE",
"438 45 OFFCURVE",
"409 45 CURVE SMOOTH",
"379 45 OFFCURVE",
"356 22 OFFCURVE",
"356 -6 CURVE SMOOTH",
"356 -35 OFFCURVE",
"379 -58 OFFCURVE",
"409 -58 CURVE SMOOTH"
);
}
);
width = 600;
}
);
note = I;
unicode = 0049;
},
{
glyphname = J;
layers = (
{
hints = (
{
horizontal = 1;
place = "{-58, 103}";
type = Stem;
},
{
horizontal = 1;
place = "{161, 103}";
type = Stem;
},
{
horizontal = 1;
place = "{379, 103}";
type = Stem;
},
{
horizontal = 1;
place = "{597, 103}";
type = Stem;
},
{
place = "{20, 106}";
type = Stem;
},
{
place = "{244, 106}";
type = Stem;
},
{
place = "{469, 106}";
type = Stem;
},
{
horizontal = 1;
place = "{488, 103}";
type = Stem;
},
{
horizontal = 1;
place = "{270, 103}";
type = Stem;
},
{
horizontal = 1;
place = "{52, 103}";
type = Stem;
},
{
place = "{132, 106}";
type = Stem;
},
{
place = "{356, 106}";
type = Stem;
}
);
layerId = "50A2E4FD-7804-43F3-BCDE-AB93253BBBDA";
paths = (
{
closed = 1;
nodes = (
"551 597 OFFCURVE",
"575 620 OFFCURVE",
"575 649 CURVE SMOOTH",
"575 677 OFFCURVE",
"551 700 OFFCURVE",
"522 700 CURVE SMOOTH",
"492 700 OFFCURVE",
"469 677 OFFCURVE",
"469 649 CURVE SMOOTH",
"469 620 OFFCURVE",
"492 597 OFFCURVE",
"522 597 CURVE SMOOTH"
);
},
{
closed = 1;
nodes = (
"551 488 OFFCURVE",
"575 511 OFFCURVE",
"575 540 CURVE SMOOTH",
"575 568 OFFCURVE",
"551 591 OFFCURVE",
"522 591 CURVE SMOOTH",
"492 591 OFFCURVE",
"469 568 OFFCURVE",
"469 540 CURVE SMOOTH",
"469 511 OFFCURVE",
"492 488 OFFCURVE",
"522 488 CURVE SMOOTH"
);
},
{
closed = 1;
nodes = (
"551 379 OFFCURVE",
"575 402 OFFCURVE",
"575 431 CURVE SMOOTH",
"575 459 OFFCURVE",
"551 482 OFFCURVE",
"522 482 CURVE SMOOTH",
"492 482 OFFCURVE",
"469 459 OFFCURVE",
"469 431 CURVE SMOOTH",
"469 402 OFFCURVE",
"492 379 OFFCURVE",
"522 379 CURVE SMOOTH"
);
},
{
closed = 1;
nodes = (
"551 270 OFFCURVE",
"575 293 OFFCURVE",
"575 322 CURVE SMOOTH",
"575 350 OFFCURVE",
"551 373 OFFCURVE",
"522 373 CURVE SMOOTH",
"492 373 OFFCURVE",
"469 350 OFFCURVE",
"469 322 CURVE SMOOTH",
"469 293 OFFCURVE",
"492 270 OFFCURVE",
"522 270 CURVE SMOOTH"
);
},
{
closed = 1;
nodes = (
"551 161 OFFCURVE",
"575 184 OFFCURVE",
"575 213 CURVE SMOOTH",
"575 241 OFFCURVE",
"551 264 OFFCURVE",
"522 264 CURVE SMOOTH",
"492 264 OFFCURVE",
"469 241 OFFCURVE",
"469 213 CURVE SMOOTH",
"469 184 OFFCURVE",
"492 161 OFFCURVE",
"522 161 CURVE SMOOTH"
);
},
{
closed = 1;
nodes = (
"102 52 OFFCURVE",
"126 75 OFFCURVE",
"126 104 CURVE SMOOTH",
"126 132 OFFCURVE",
"102 155 OFFCURVE",
"73 155 CURVE SMOOTH",
"43 155 OFFCURVE",
"20 132 OFFCURVE",
"20 104 CURVE SMOOTH",
"20 75 OFFCURVE",
"43 52 OFFCURVE",
"73 52 CURVE SMOOTH"
);
},
{
closed = 1;
nodes = (
"551 52 OFFCURVE",
"575 75 OFFCURVE",
"575 104 CURVE SMOOTH",
"575 132 OFFCURVE",
"551 155 OFFCURVE",
"522 155 CURVE SMOOTH",
"492 155 OFFCURVE",
"469 132 OFFCURVE",
"469 104 CURVE SMOOTH",
"469 75 OFFCURVE",
"492 52 OFFCURVE",
"522 52 CURVE SMOOTH"
);
},
{
closed = 1;
nodes = (
"214 -58 OFFCURVE",
"238 -35 OFFCURVE",
"238 -6 CURVE SMOOTH",
"238 22 OFFCURVE",
"214 45 OFFCURVE",
"185 45 CURVE SMOOTH",
"155 45 OFFCURVE",
"132 22 OFFCURVE",
"132 -6 CURVE SMOOTH",
"132 -35 OFFCURVE",
"155 -58 OFFCURVE",
"185 -58 CURVE SMOOTH"
);
},
{
closed = 1;
nodes = (
"326 -58 OFFCURVE",
"350 -35 OFFCURVE",
"350 -6 CURVE SMOOTH",
"350 22 OFFCURVE",
"326 45 OFFCURVE",
"297 45 CURVE SMOOTH",
"267 45 OFFCURVE",
"244 22 OFFCURVE",
"244 -6 CURVE SMOOTH",
"244 -35 OFFCURVE",
"267 -58 OFFCURVE",
"297 -58 CURVE SMOOTH"
);
},
{
closed = 1;
nodes = (
"438 -58 OFFCURVE",
"462 -35 OFFCURVE",
"462 -6 CURVE SMOOTH",
"462 22 OFFCURVE",
"438 45 OFFCURVE",
"409 45 CURVE SMOOTH",
"379 45 OFFCURVE",
"356 22 OFFCURVE",
"356 -6 CURVE SMOOTH",
"356 -35 OFFCURVE",
"379 -58 OFFCURVE",
"409 -58 CURVE SMOOTH"
);
}
);
width = 600;
}
);
note = J;
unicode = 004A;
},
{
glyphname = K;
layers = (
{
hints = (
{
horizontal = 1;
place = "{52, 103}";
type = Stem;
},
{
horizontal = 1;
place = "{270, 103}";
type = Stem;
},
{
horizontal = 1;
place = "{597, 103}";
type = Stem;
},
{
place = "{20, 106}";
type = Stem;
},
{
place = "{244, 106}";
type = Stem;
},
{
place = "{469, 106}";
type = Stem;
},
{
horizontal = 1;
place = "{488, 103}";
type = Stem;
},
{
horizontal = 1;
place = "{379, 103}";
type = Stem;
},
{
place = "{356, 106}";
type = Stem;
},
{
place = "{132, 106}";
type = Stem;
},
{
horizontal = 1;
place = "{161, 103}";
type = Stem;
},
{
horizontal = 1;
place = "{-58, 103}";
type = Stem;
}
);
layerId = "50A2E4FD-7804-43F3-BCDE-AB93253BBBDA";
paths = (
{
closed = 1;
nodes = (
"102 597 OFFCURVE",
"126 620 OFFCURVE",
"126 649 CURVE SMOOTH",
"126 677 OFFCURVE",
"102 700 OFFCURVE",
"73 700 CURVE SMOOTH",
"43 700 OFFCURVE",
"20 677 OFFCURVE",
"20 649 CURVE SMOOTH",
"20 620 OFFCURVE",
"43 597 OFFCURVE",
"73 597 CURVE SMOOTH"
);
},
{
closed = 1;
nodes = (
"551 597 OFFCURVE",
"575 620 OFFCURVE",
"575 649 CURVE SMOOTH",
"575 677 OFFCURVE",
"551 700 OFFCURVE",
"522 700 CURVE SMOOTH",
"492 700 OFFCURVE",
"469 677 OFFCURVE",
"469 649 CURVE SMOOTH",
"469 620 OFFCURVE",
"492 597 OFFCURVE",
"522 597 CURVE SMOOTH"
);
},
{
closed = 1;
nodes = (
"102 488 OFFCURVE",
"126 511 OFFCURVE",
"126 540 CURVE SMOOTH",
"126 568 OFFCURVE",
"102 591 OFFCURVE",
"73 591 CURVE SMOOTH",
"43 591 OFFCURVE",
"20 568 OFFCURVE",
"20 540 CURVE SMOOTH",
"20 511 OFFCURVE",
"43 488 OFFCURVE",
"73 488 CURVE SMOOTH"
);
},
{
closed = 1;
nodes = (
"551 488 OFFCURVE",
"575 511 OFFCURVE",
"575 540 CURVE SMOOTH",
"575 568 OFFCURVE",
"551 591 OFFCURVE",
"522 591 CURVE SMOOTH",
"492 591 OFFCURVE",
"469 568 OFFCURVE",
"469 540 CURVE SMOOTH",
"469 511 OFFCURVE",
"492 488 OFFCURVE",
"522 488 CURVE SMOOTH"
);
},
{
closed = 1;
nodes = (
"102 379 OFFCURVE",
"126 402 OFFCURVE",
"126 431 CURVE SMOOTH",
"126 459 OFFCURVE",
"102 482 OFFCURVE",
"73 482 CURVE SMOOTH",
"43 482 OFFCURVE",
"20 459 OFFCURVE",
"20 431 CURVE SMOOTH",
"20 402 OFFCURVE",
"43 379 OFFCURVE",
"73 379 CURVE SMOOTH"
);
},
{
closed = 1;
nodes = (
"438 379 OFFCURVE",
"462 402 OFFCURVE",
"462 431 CURVE SMOOTH",
"462 459 OFFCURVE",
"438 482 OFFCURVE",
"409 482 CURVE SMOOTH",
"379 482 OFFCURVE",
"356 459 OFFCURVE",
"356 431 CURVE SMOOTH",
"356 402 OFFCURVE",
"379 379 OFFCURVE",
"409 379 CURVE SMOOTH"
);
},
{
closed = 1;
nodes = (
"102 270 OFFCURVE",
"126 293 OFFCURVE",
"126 322 CURVE SMOOTH",
"126 350 OFFCURVE",
"102 373 OFFCURVE",
"73 373 CURVE SMOOTH",
"43 373 OFFCURVE",
"20 350 OFFCURVE",
"20 322 CURVE SMOOTH",
"20 293 OFFCURVE",
"43 270 OFFCURVE",
"73 270 CURVE SMOOTH"
);
},
{
closed = 1;
nodes = (
"214 270 OFFCURVE",
"238 293 OFFCURVE",
"238 322 CURVE SMOOTH",
"238 350 OFFCURVE",
"214 373 OFFCURVE",
"185 373 CURVE SMOOTH",
"155 373 OFFCURVE",
"132 350 OFFCURVE",
"132 322 CURVE SMOOTH",
"132 293 OFFCURVE",
"155 270 OFFCURVE",
"185 270 CURVE SMOOTH"
);
},
{
closed = 1;
nodes = (
"326 270 OFFCURVE",
"350 293 OFFCURVE",
"350 322 CURVE SMOOTH",
"350 350 OFFCURVE",
"326 373 OFFCURVE",
"297 373 CURVE SMOOTH",
"267 373 OFFCURVE",
"244 350 OFFCURVE",
"244 322 CURVE SMOOTH",
"244 293 OFFCURVE",
"267 270 OFFCURVE",
"297 270 CURVE SMOOTH"
);
},
{
closed = 1;
nodes = (
"102 161 OFFCURVE",
"126 184 OFFCURVE",
"126 213 CURVE SMOOTH",
"126 241 OFFCURVE",
"102 264 OFFCURVE",
"73 264 CURVE SMOOTH",
"43 264 OFFCURVE",
"20 241 OFFCURVE",
"20 213 CURVE SMOOTH",
"20 184 OFFCURVE",
"43 161 OFFCURVE",
"73 161 CURVE SMOOTH"
);
},
{
closed = 1;
nodes = (
"438 161 OFFCURVE",
"462 184 OFFCURVE",
"462 213 CURVE SMOOTH",
"462 241 OFFCURVE",
"438 264 OFFCURVE",
"409 264 CURVE SMOOTH",
"379 264 OFFCURVE",
"356 241 OFFCURVE",
"356 213 CURVE SMOOTH",
"356 184 OFFCURVE",
"379 161 OFFCURVE",
"409 161 CURVE SMOOTH"
);
},
{
closed = 1;
nodes = (
"102 52 OFFCURVE",
"126 75 OFFCURVE",
"126 104 CURVE SMOOTH",
"126 132 OFFCURVE",
"102 155 OFFCURVE",
"73 155 CURVE SMOOTH",
"43 155 OFFCURVE",
"20 132 OFFCURVE",
"20 104 CURVE SMOOTH",
"20 75 OFFCURVE",
"43 52 OFFCURVE",
"73 52 CURVE SMOOTH"
);
},
{
closed = 1;
nodes = (
"551 52 OFFCURVE",
"575 75 OFFCURVE",
"575 104 CURVE SMOOTH",
"575 132 OFFCURVE",
"551 155 OFFCURVE",
"522 155 CURVE SMOOTH",
"492 155 OFFCURVE",
"469 132 OFFCURVE",
"469 104 CURVE SMOOTH",
"469 75 OFFCURVE",
"492 52 OFFCURVE",
"522 52 CURVE SMOOTH"
);
},
{
closed = 1;
nodes = (
"102 -58 OFFCURVE",
"126 -35 OFFCURVE",
"126 -6 CURVE SMOOTH",
"126 22 OFFCURVE",
"102 45 OFFCURVE",
"73 45 CURVE SMOOTH",
"43 45 OFFCURVE",
"20 22 OFFCURVE",
"20 -6 CURVE SMOOTH",
"20 -35 OFFCURVE",
"43 -58 OFFCURVE",
"73 -58 CURVE SMOOTH"
);
},
{
closed = 1;
nodes = (
"551 -58 OFFCURVE",
"575 -35 OFFCURVE",
"575 -6 CURVE SMOOTH",
"575 22 OFFCURVE",
"551 45 OFFCURVE",
"522 45 CURVE SMOOTH",
"492 45 OFFCURVE",
"469 22 OFFCURVE",
"469 -6 CURVE SMOOTH",
"469 -35 OFFCURVE",
"492 -58 OFFCURVE",
"522 -58 CURVE SMOOTH"
);
}
);
width = 600;
}
);
note = K;
unicode = 004B;
},
{
glyphname = L;
layers = (
{
hints = (
{
horizontal = 1;
place = "{-58, 103}";
type = Stem;
},
{
horizontal = 1;
place = "{161, 103}";
type = Stem;
},
{
horizontal = 1;
place = "{379, 103}";
type = Stem;
},
{
horizontal = 1;
place = "{597, 103}";
type = Stem;
},
{
place = "{20, 106}";
type = Stem;
},
{
place = "{244, 106}";
type = Stem;
},
{
place = "{469, 106}";
type = Stem;
},
{
horizontal = 1;
place = "{488, 103}";
type = Stem;
},
{
horizontal = 1;
place = "{270, 103}";
type = Stem;
},
{
horizontal = 1;
place = "{52, 103}";
type = Stem;
},
{
place = "{132, 106}";
type = Stem;
},
{
place = "{356, 106}";
type = Stem;
}
);
layerId = "50A2E4FD-7804-43F3-BCDE-AB93253BBBDA";
paths = (
{
closed = 1;
nodes = (
"102 597 OFFCURVE",
"126 620 OFFCURVE",
"126 649 CURVE SMOOTH",
"126 677 OFFCURVE",
"102 700 OFFCURVE",
"73 700 CURVE SMOOTH",
"43 700 OFFCURVE",
"20 677 OFFCURVE",
"20 649 CURVE SMOOTH",
"20 620 OFFCURVE",
"43 597 OFFCURVE",
"73 597 CURVE SMOOTH"
);
},
{
closed = 1;
nodes = (
"102 488 OFFCURVE",
"126 511 OFFCURVE",
"126 540 CURVE SMOOTH",
"126 568 OFFCURVE",
"102 591 OFFCURVE",
"73 591 CURVE SMOOTH",
"43 591 OFFCURVE",
"20 568 OFFCURVE",
"20 540 CURVE SMOOTH",
"20 511 OFFCURVE",
"43 488 OFFCURVE",
"73 488 CURVE SMOOTH"
);
},
{
closed = 1;
nodes = (
"102 379 OFFCURVE",
"126 402 OFFCURVE",
"126 431 CURVE SMOOTH",
"126 459 OFFCURVE",
"102 482 OFFCURVE",
"73 482 CURVE SMOOTH",
"43 482 OFFCURVE",
"20 459 OFFCURVE",
"20 431 CURVE SMOOTH",
"20 402 OFFCURVE",
"43 379 OFFCURVE",
"73 379 CURVE SMOOTH"
);
},
{
closed = 1;
nodes = (
"102 270 OFFCURVE",
"126 293 OFFCURVE",
"126 322 CURVE SMOOTH",
"126 350 OFFCURVE",
"102 373 OFFCURVE",
"73 373 CURVE SMOOTH",
"43 373 OFFCURVE",
"20 350 OFFCURVE",
"20 322 CURVE SMOOTH",
"20 293 OFFCURVE",
"43 270 OFFCURVE",
"73 270 CURVE SMOOTH"
);
},
{
closed = 1;
nodes = (
"102 161 OFFCURVE",
"126 184 OFFCURVE",
"126 213 CURVE SMOOTH",
"126 241 OFFCURVE",
"102 264 OFFCURVE",
"73 264 CURVE SMOOTH",
"43 264 OFFCURVE",
"20 241 OFFCURVE",
"20 213 CURVE SMOOTH",
"20 184 OFFCURVE",
"43 161 OFFCURVE",
"73 161 CURVE SMOOTH"
);
},
{
closed = 1;
nodes = (
"102 52 OFFCURVE",
"126 75 OFFCURVE",
"126 104 CURVE SMOOTH",
"126 132 OFFCURVE",
"102 155 OFFCURVE",
"73 155 CURVE SMOOTH",
"43 155 OFFCURVE",
"20 132 OFFCURVE",
"20 104 CURVE SMOOTH",
"20 75 OFFCURVE",
"43 52 OFFCURVE",
"73 52 CURVE SMOOTH"
);
},
{
closed = 1;
nodes = (
"102 -58 OFFCURVE",
"126 -35 OFFCURVE",
"126 -6 CURVE SMOOTH",
"126 22 OFFCURVE",
"102 45 OFFCURVE",
"73 45 CURVE SMOOTH",
"43 45 OFFCURVE",
"20 22 OFFCURVE",
"20 -6 CURVE SMOOTH",
"20 -35 OFFCURVE",
"43 -58 OFFCURVE",
"73 -58 CURVE SMOOTH"
);
},
{
closed = 1;
nodes = (
"214 -58 OFFCURVE",
"238 -35 OFFCURVE",
"238 -6 CURVE SMOOTH",
"238 22 OFFCURVE",
"214 45 OFFCURVE",
"185 45 CURVE SMOOTH",
"155 45 OFFCURVE",
"132 22 OFFCURVE",
"132 -6 CURVE SMOOTH",
"132 -35 OFFCURVE",
"155 -58 OFFCURVE",
"185 -58 CURVE SMOOTH"
);
},
{
closed = 1;
nodes = (
"326 -58 OFFCURVE",
"350 -35 OFFCURVE",
"350 -6 CURVE SMOOTH",
"350 22 OFFCURVE",
"326 45 OFFCURVE",
"297 45 CURVE SMOOTH",
"267 45 OFFCURVE",
"244 22 OFFCURVE",
"244 -6 CURVE SMOOTH",
"244 -35 OFFCURVE",
"267 -58 OFFCURVE",
"297 -58 CURVE SMOOTH"
);
},
{
closed = 1;
nodes = (
"438 -58 OFFCURVE",
"462 -35 OFFCURVE",
"462 -6 CURVE SMOOTH",
"462 22 OFFCURVE",
"438 45 OFFCURVE",
"409 45 CURVE SMOOTH",
"379 45 OFFCURVE",
"356 22 OFFCURVE",
"356 -6 CURVE SMOOTH",
"356 -35 OFFCURVE",
"379 -58 OFFCURVE",
"409 -58 CURVE SMOOTH"
);
},
{
closed = 1;
nodes = (
"551 -58 OFFCURVE",
"575 -35 OFFCURVE",
"575 -6 CURVE SMOOTH",
"575 22 OFFCURVE",
"551 45 OFFCURVE",
"522 45 CURVE SMOOTH",
"492 45 OFFCURVE",
"469 22 OFFCURVE",
"469 -6 CURVE SMOOTH",
"469 -35 OFFCURVE",
"492 -58 OFFCURVE",
"522 -58 CURVE SMOOTH"
);
}
);
width = 600;
}
);
note = L;
unicode = 004C;
},
{
glyphname = M;
layers = (
{
hints = (
{
horizontal = 1;
place = "{597, 103}";
type = Stem;
},
{
place = "{20, 106}";
type = Stem;
},
{
place = "{469, 106}";
type = Stem;
},
{
horizontal = 1;
place = "{488, 103}";
type = Stem;
},
{
place = "{132, 106}";
type = Stem;
},
{
place = "{356, 106}";
type = Stem;
},
{
horizontal = 1;
place = "{379, 103}";
type = Stem;
},
{
place = "{244, 106}";
type = Stem;
},
{
horizontal = 1;
place = "{270, 103}";
type = Stem;
},
{
horizontal = 1;
place = "{161, 103}";
type = Stem;
},
{
horizontal = 1;
place = "{52, 103}";
type = Stem;
},
{
horizontal = 1;
place = "{-58, 103}";
type = Stem;
}
);
layerId = "50A2E4FD-7804-43F3-BCDE-AB93253BBBDA";
paths = (
{
closed = 1;
nodes = (
"102 597 OFFCURVE",
"126 620 OFFCURVE",
"126 649 CURVE SMOOTH",
"126 677 OFFCURVE",
"102 700 OFFCURVE",
"73 700 CURVE SMOOTH",
"43 700 OFFCURVE",
"20 677 OFFCURVE",
"20 649 CURVE SMOOTH",
"20 620 OFFCURVE",
"43 597 OFFCURVE",
"73 597 CURVE SMOOTH"
);
},
{
closed = 1;
nodes = (
"551 597 OFFCURVE",
"575 620 OFFCURVE",
"575 649 CURVE SMOOTH",
"575 677 OFFCURVE",
"551 700 OFFCURVE",
"522 700 CURVE SMOOTH",
"492 700 OFFCURVE",
"469 677 OFFCURVE",
"469 649 CURVE SMOOTH",
"469 620 OFFCURVE",
"492 597 OFFCURVE",
"522 597 CURVE SMOOTH"
);
},
{
closed = 1;
nodes = (
"102 488 OFFCURVE",
"126 511 OFFCURVE",
"126 540 CURVE SMOOTH",
"126 568 OFFCURVE",
"102 591 OFFCURVE",
"73 591 CURVE SMOOTH",
"43 591 OFFCURVE",
"20 568 OFFCURVE",
"20 540 CURVE SMOOTH",
"20 511 OFFCURVE",
"43 488 OFFCURVE",
"73 488 CURVE SMOOTH"
);
},
{
closed = 1;
nodes = (
"214 488 OFFCURVE",
"238 511 OFFCURVE",
"238 540 CURVE SMOOTH",
"238 568 OFFCURVE",
"214 591 OFFCURVE",
"185 591 CURVE SMOOTH",
"155 591 OFFCURVE",
"132 568 OFFCURVE",
"132 540 CURVE SMOOTH",
"132 511 OFFCURVE",
"155 488 OFFCURVE",
"185 488 CURVE SMOOTH"
);
},
{
closed = 1;
nodes = (
"438 488 OFFCURVE",
"462 511 OFFCURVE",
"462 540 CURVE SMOOTH",
"462 568 OFFCURVE",
"438 591 OFFCURVE",
"409 591 CURVE SMOOTH",
"379 591 OFFCURVE",
"356 568 OFFCURVE",
"356 540 CURVE SMOOTH",
"356 511 OFFCURVE",
"379 488 OFFCURVE",
"409 488 CURVE SMOOTH"
);
},
{
closed = 1;
nodes = (
"551 488 OFFCURVE",
"575 511 OFFCURVE",
"575 540 CURVE SMOOTH",
"575 568 OFFCURVE",
"551 591 OFFCURVE",
"522 591 CURVE SMOOTH",
"492 591 OFFCURVE",
"469 568 OFFCURVE",
"469 540 CURVE SMOOTH",
"469 511 OFFCURVE",
"492 488 OFFCURVE",
"522 488 CURVE SMOOTH"
);
},
{
closed = 1;
nodes = (
"102 379 OFFCURVE",
"126 402 OFFCURVE",
"126 431 CURVE SMOOTH",
"126 459 OFFCURVE",
"102 482 OFFCURVE",
"73 482 CURVE SMOOTH",
"43 482 OFFCURVE",
"20 459 OFFCURVE",
"20 431 CURVE SMOOTH",
"20 402 OFFCURVE",
"43 379 OFFCURVE",
"73 379 CURVE SMOOTH"
);
},
{
closed = 1;
nodes = (
"326 379 OFFCURVE",
"350 402 OFFCURVE",
"350 431 CURVE SMOOTH",
"350 459 OFFCURVE",
"326 482 OFFCURVE",
"297 482 CURVE SMOOTH",
"267 482 OFFCURVE",
"244 459 OFFCURVE",
"244 431 CURVE SMOOTH",
"244 402 OFFCURVE",
"267 379 OFFCURVE",
"297 379 CURVE SMOOTH"
);
},
{
closed = 1;
nodes = (
"551 379 OFFCURVE",
"575 402 OFFCURVE",
"575 431 CURVE SMOOTH",
"575 459 OFFCURVE",
"551 482 OFFCURVE",
"522 482 CURVE SMOOTH",
"492 482 OFFCURVE",
"469 459 OFFCURVE",
"469 431 CURVE SMOOTH",
"469 402 OFFCURVE",
"492 379 OFFCURVE",
"522 379 CURVE SMOOTH"
);
},
{
closed = 1;
nodes = (
"102 270 OFFCURVE",
"126 293 OFFCURVE",
"126 322 CURVE SMOOTH",
"126 350 OFFCURVE",
"102 373 OFFCURVE",
"73 373 CURVE SMOOTH",
"43 373 OFFCURVE",
"20 350 OFFCURVE",
"20 322 CURVE SMOOTH",
"20 293 OFFCURVE",
"43 270 OFFCURVE",
"73 270 CURVE SMOOTH"
);
},
{
closed = 1;
nodes = (
"326 270 OFFCURVE",
"350 293 OFFCURVE",
"350 322 CURVE SMOOTH",
"350 350 OFFCURVE",
"326 373 OFFCURVE",
"297 373 CURVE SMOOTH",
"267 373 OFFCURVE",
"244 350 OFFCURVE",
"244 322 CURVE SMOOTH",
"244 293 OFFCURVE",
"267 270 OFFCURVE",
"297 270 CURVE SMOOTH"
);
},
{
closed = 1;
nodes = (
"551 270 OFFCURVE",
"575 293 OFFCURVE",
"575 322 CURVE SMOOTH",
"575 350 OFFCURVE",
"551 373 OFFCURVE",
"522 373 CURVE SMOOTH",
"492 373 OFFCURVE",
"469 350 OFFCURVE",
"469 322 CURVE SMOOTH",
"469 293 OFFCURVE",
"492 270 OFFCURVE",
"522 270 CURVE SMOOTH"
);
},
{
closed = 1;
nodes = (
"102 161 OFFCURVE",
"126 184 OFFCURVE",
"126 213 CURVE SMOOTH",
"126 241 OFFCURVE",
"102 264 OFFCURVE",
"73 264 CURVE SMOOTH",
"43 264 OFFCURVE",
"20 241 OFFCURVE",
"20 213 CURVE SMOOTH",
"20 184 OFFCURVE",
"43 161 OFFCURVE",
"73 161 CURVE SMOOTH"
);
},
{
closed = 1;
nodes = (
"551 161 OFFCURVE",
"575 184 OFFCURVE",
"575 213 CURVE SMOOTH",
"575 241 OFFCURVE",
"551 264 OFFCURVE",
"522 264 CURVE SMOOTH",
"492 264 OFFCURVE",
"469 241 OFFCURVE",
"469 213 CURVE SMOOTH",
"469 184 OFFCURVE",
"492 161 OFFCURVE",
"522 161 CURVE SMOOTH"
);
},
{
closed = 1;
nodes = (
"102 52 OFFCURVE",
"126 75 OFFCURVE",
"126 104 CURVE SMOOTH",
"126 132 OFFCURVE",
"102 155 OFFCURVE",
"73 155 CURVE SMOOTH",
"43 155 OFFCURVE",
"20 132 OFFCURVE",
"20 104 CURVE SMOOTH",
"20 75 OFFCURVE",
"43 52 OFFCURVE",
"73 52 CURVE SMOOTH"
);
},
{
closed = 1;
nodes = (
"551 52 OFFCURVE",
"575 75 OFFCURVE",
"575 104 CURVE SMOOTH",
"575 132 OFFCURVE",
"551 155 OFFCURVE",
"522 155 CURVE SMOOTH",
"492 155 OFFCURVE",
"469 132 OFFCURVE",
"469 104 CURVE SMOOTH",
"469 75 OFFCURVE",
"492 52 OFFCURVE",
"522 52 CURVE SMOOTH"
);
},
{
closed = 1;
nodes = (
"102 -58 OFFCURVE",
"126 -35 OFFCURVE",
"126 -6 CURVE SMOOTH",
"126 22 OFFCURVE",
"102 45 OFFCURVE",
"73 45 CURVE SMOOTH",
"43 45 OFFCURVE",
"20 22 OFFCURVE",
"20 -6 CURVE SMOOTH",
"20 -35 OFFCURVE",
"43 -58 OFFCURVE",
"73 -58 CURVE SMOOTH"
);
},
{
closed = 1;
nodes = (
"551 -58 OFFCURVE",
"575 -35 OFFCURVE",
"575 -6 CURVE SMOOTH",
"575 22 OFFCURVE",
"551 45 OFFCURVE",
"522 45 CURVE SMOOTH",
"492 45 OFFCURVE",
"469 22 OFFCURVE",
"469 -6 CURVE SMOOTH",
"469 -35 OFFCURVE",
"492 -58 OFFCURVE",
"522 -58 CURVE SMOOTH"
);
}
);
width = 600;
}
);
note = M;
unicode = 004D;
},
{
glyphname = N;
layers = (
{
hints = (
{
horizontal = 1;
place = "{-58, 103}";
type = Stem;
},
{
horizontal = 1;
place = "{161, 103}";
type = Stem;
},
{
horizontal = 1;
place = "{379, 103}";
type = Stem;
},
{
horizontal = 1;
place = "{597, 103}";
type = Stem;
},
{
place = "{20, 106}";
type = Stem;
},
{
place = "{244, 106}";
type = Stem;
},
{
place = "{469, 106}";
type = Stem;
},
{
horizontal = 1;
place = "{488, 103}";
type = Stem;
},
{
place = "{132, 106}";
type = Stem;
},
{
horizontal = 1;
place = "{270, 103}";
type = Stem;
},
{
place = "{356, 106}";
type = Stem;
},
{
horizontal = 1;
place = "{52, 103}";
type = Stem;
}
);
layerId = "50A2E4FD-7804-43F3-BCDE-AB93253BBBDA";
paths = (
{
closed = 1;
nodes = (
"102 597 OFFCURVE",
"126 620 OFFCURVE",
"126 649 CURVE SMOOTH",
"126 677 OFFCURVE",
"102 700 OFFCURVE",
"73 700 CURVE SMOOTH",
"43 700 OFFCURVE",
"20 677 OFFCURVE",
"20 649 CURVE SMOOTH",
"20 620 OFFCURVE",
"43 597 OFFCURVE",
"73 597 CURVE SMOOTH"
);
},
{
closed = 1;
nodes = (
"551 597 OFFCURVE",
"575 620 OFFCURVE",
"575 649 CURVE SMOOTH",
"575 677 OFFCURVE",
"551 700 OFFCURVE",
"522 700 CURVE SMOOTH",
"492 700 OFFCURVE",
"469 677 OFFCURVE",
"469 649 CURVE SMOOTH",
"469 620 OFFCURVE",
"492 597 OFFCURVE",
"522 597 CURVE SMOOTH"
);
},
{
closed = 1;
nodes = (
"102 488 OFFCURVE",
"126 511 OFFCURVE",
"126 540 CURVE SMOOTH",
"126 568 OFFCURVE",
"102 591 OFFCURVE",
"73 591 CURVE SMOOTH",
"43 591 OFFCURVE",
"20 568 OFFCURVE",
"20 540 CURVE SMOOTH",
"20 511 OFFCURVE",
"43 488 OFFCURVE",
"73 488 CURVE SMOOTH"
);
},
{
closed = 1;
nodes = (
"551 488 OFFCURVE",
"575 511 OFFCURVE",
"575 540 CURVE SMOOTH",
"575 568 OFFCURVE",
"551 591 OFFCURVE",
"522 591 CURVE SMOOTH",
"492 591 OFFCURVE",
"469 568 OFFCURVE",
"469 540 CURVE SMOOTH",
"469 511 OFFCURVE",
"492 488 OFFCURVE",
"522 488 CURVE SMOOTH"
);
},
{
closed = 1;
nodes = (
"102 379 OFFCURVE",
"126 402 OFFCURVE",
"126 431 CURVE SMOOTH",
"126 459 OFFCURVE",
"102 482 OFFCURVE",
"73 482 CURVE SMOOTH",
"43 482 OFFCURVE",
"20 459 OFFCURVE",
"20 431 CURVE SMOOTH",
"20 402 OFFCURVE",
"43 379 OFFCURVE",
"73 379 CURVE SMOOTH"
);
},
{
closed = 1;
nodes = (
"214 379 OFFCURVE",
"238 402 OFFCURVE",
"238 431 CURVE SMOOTH",
"238 459 OFFCURVE",
"214 482 OFFCURVE",
"185 482 CURVE SMOOTH",
"155 482 OFFCURVE",
"132 459 OFFCURVE",
"132 431 CURVE SMOOTH",
"132 402 OFFCURVE",
"155 379 OFFCURVE",
"185 379 CURVE SMOOTH"
);
},
{
closed = 1;
nodes = (
"551 379 OFFCURVE",
"575 402 OFFCURVE",
"575 431 CURVE SMOOTH",
"575 459 OFFCURVE",
"551 482 OFFCURVE",
"522 482 CURVE SMOOTH",
"492 482 OFFCURVE",
"469 459 OFFCURVE",
"469 431 CURVE SMOOTH",
"469 402 OFFCURVE",
"492 379 OFFCURVE",
"522 379 CURVE SMOOTH"
);
},
{
closed = 1;
nodes = (
"102 270 OFFCURVE",
"126 293 OFFCURVE",
"126 322 CURVE SMOOTH",
"126 350 OFFCURVE",
"102 373 OFFCURVE",
"73 373 CURVE SMOOTH",
"43 373 OFFCURVE",
"20 350 OFFCURVE",
"20 322 CURVE SMOOTH",
"20 293 OFFCURVE",
"43 270 OFFCURVE",
"73 270 CURVE SMOOTH"
);
},
{
closed = 1;
nodes = (
"326 270 OFFCURVE",
"350 293 OFFCURVE",
"350 322 CURVE SMOOTH",
"350 350 OFFCURVE",
"326 373 OFFCURVE",
"297 373 CURVE SMOOTH",
"267 373 OFFCURVE",
"244 350 OFFCURVE",
"244 322 CURVE SMOOTH",
"244 293 OFFCURVE",
"267 270 OFFCURVE",
"297 270 CURVE SMOOTH"
);
},
{
closed = 1;
nodes = (
"551 270 OFFCURVE",
"575 293 OFFCURVE",
"575 322 CURVE SMOOTH",
"575 350 OFFCURVE",
"551 373 OFFCURVE",
"522 373 CURVE SMOOTH",
"492 373 OFFCURVE",
"469 350 OFFCURVE",
"469 322 CURVE SMOOTH",
"469 293 OFFCURVE",
"492 270 OFFCURVE",
"522 270 CURVE SMOOTH"
);
},
{
closed = 1;
nodes = (
"102 161 OFFCURVE",
"126 184 OFFCURVE",
"126 213 CURVE SMOOTH",
"126 241 OFFCURVE",
"102 264 OFFCURVE",
"73 264 CURVE SMOOTH",
"43 264 OFFCURVE",
"20 241 OFFCURVE",
"20 213 CURVE SMOOTH",
"20 184 OFFCURVE",
"43 161 OFFCURVE",
"73 161 CURVE SMOOTH"
);
},
{
closed = 1;
nodes = (
"438 161 OFFCURVE",
"462 184 OFFCURVE",
"462 213 CURVE SMOOTH",
"462 241 OFFCURVE",
"438 264 OFFCURVE",
"409 264 CURVE SMOOTH",
"379 264 OFFCURVE",
"356 241 OFFCURVE",
"356 213 CURVE SMOOTH",
"356 184 OFFCURVE",
"379 161 OFFCURVE",
"409 161 CURVE SMOOTH"
);
},
{
closed = 1;
nodes = (
"551 161 OFFCURVE",
"575 184 OFFCURVE",
"575 213 CURVE SMOOTH",
"575 241 OFFCURVE",
"551 264 OFFCURVE",
"522 264 CURVE SMOOTH",
"492 264 OFFCURVE",
"469 241 OFFCURVE",
"469 213 CURVE SMOOTH",
"469 184 OFFCURVE",
"492 161 OFFCURVE",
"522 161 CURVE SMOOTH"
);
},
{
closed = 1;
nodes = (
"102 52 OFFCURVE",
"126 75 OFFCURVE",
"126 104 CURVE SMOOTH",
"126 132 OFFCURVE",
"102 155 OFFCURVE",
"73 155 CURVE SMOOTH",
"43 155 OFFCURVE",
"20 132 OFFCURVE",
"20 104 CURVE SMOOTH",
"20 75 OFFCURVE",
"43 52 OFFCURVE",
"73 52 CURVE SMOOTH"
);
},
{
closed = 1;
nodes = (
"551 52 OFFCURVE",
"575 75 OFFCURVE",
"575 104 CURVE SMOOTH",
"575 132 OFFCURVE",
"551 155 OFFCURVE",
"522 155 CURVE SMOOTH",
"492 155 OFFCURVE",
"469 132 OFFCURVE",
"469 104 CURVE SMOOTH",
"469 75 OFFCURVE",
"492 52 OFFCURVE",
"522 52 CURVE SMOOTH"
);
},
{
closed = 1;
nodes = (
"102 -58 OFFCURVE",
"126 -35 OFFCURVE",
"126 -6 CURVE SMOOTH",
"126 22 OFFCURVE",
"102 45 OFFCURVE",
"73 45 CURVE SMOOTH",
"43 45 OFFCURVE",
"20 22 OFFCURVE",
"20 -6 CURVE SMOOTH",
"20 -35 OFFCURVE",
"43 -58 OFFCURVE",
"73 -58 CURVE SMOOTH"
);
},
{
closed = 1;
nodes = (
"551 -58 OFFCURVE",
"575 -35 OFFCURVE",
"575 -6 CURVE SMOOTH",
"575 22 OFFCURVE",
"551 45 OFFCURVE",
"522 45 CURVE SMOOTH",
"492 45 OFFCURVE",
"469 22 OFFCURVE",
"469 -6 CURVE SMOOTH",
"469 -35 OFFCURVE",
"492 -58 OFFCURVE",
"522 -58 CURVE SMOOTH"
);
}
);
width = 600;
}
);
note = N;
unicode = 004E;
},
{
glyphname = O;
layers = (
{
hints = (
{
horizontal = 1;
place = "{597, 103}";
type = Stem;
},
{
place = "{132, 106}";
type = Stem;
},
{
place = "{244, 106}";
type = Stem;
},
{
place = "{356, 106}";
type = Stem;
},
{
horizontal = 1;
place = "{488, 103}";
type = Stem;
},
{
place = "{20, 106}";
type = Stem;
},
{
place = "{469, 106}";
type = Stem;
},
{
horizontal = 1;
place = "{379, 103}";
type = Stem;
},
{
horizontal = 1;
place = "{270, 103}";
type = Stem;
},
{
horizontal = 1;
place = "{161, 103}";
type = Stem;
},
{
horizontal = 1;
place = "{52, 103}";
type = Stem;
},
{
horizontal = 1;
place = "{-58, 103}";
type = Stem;
}
);
layerId = "50A2E4FD-7804-43F3-BCDE-AB93253BBBDA";
paths = (
{
closed = 1;
nodes = (
"214 597 OFFCURVE",
"238 620 OFFCURVE",
"238 649 CURVE SMOOTH",
"238 677 OFFCURVE",
"214 700 OFFCURVE",
"185 700 CURVE SMOOTH",
"155 700 OFFCURVE",
"132 677 OFFCURVE",
"132 649 CURVE SMOOTH",
"132 620 OFFCURVE",
"155 597 OFFCURVE",
"185 597 CURVE SMOOTH"
);
},
{
closed = 1;
nodes = (
"326 597 OFFCURVE",
"350 620 OFFCURVE",
"350 649 CURVE SMOOTH",
"350 677 OFFCURVE",
"326 700 OFFCURVE",
"297 700 CURVE SMOOTH",
"267 700 OFFCURVE",
"244 677 OFFCURVE",
"244 649 CURVE SMOOTH",
"244 620 OFFCURVE",
"267 597 OFFCURVE",
"297 597 CURVE SMOOTH"
);
},
{
closed = 1;
nodes = (
"438 597 OFFCURVE",
"462 620 OFFCURVE",
"462 649 CURVE SMOOTH",
"462 677 OFFCURVE",
"438 700 OFFCURVE",
"409 700 CURVE SMOOTH",
"379 700 OFFCURVE",
"356 677 OFFCURVE",
"356 649 CURVE SMOOTH",
"356 620 OFFCURVE",
"379 597 OFFCURVE",
"409 597 CURVE SMOOTH"
);
},
{
closed = 1;
nodes = (
"102 488 OFFCURVE",
"126 511 OFFCURVE",
"126 540 CURVE SMOOTH",
"126 568 OFFCURVE",
"102 591 OFFCURVE",
"73 591 CURVE SMOOTH",
"43 591 OFFCURVE",
"20 568 OFFCURVE",
"20 540 CURVE SMOOTH",
"20 511 OFFCURVE",
"43 488 OFFCURVE",
"73 488 CURVE SMOOTH"
);
},
{
closed = 1;
nodes = (
"551 488 OFFCURVE",
"575 511 OFFCURVE",
"575 540 CURVE SMOOTH",
"575 568 OFFCURVE",
"551 591 OFFCURVE",
"522 591 CURVE SMOOTH",
"492 591 OFFCURVE",
"469 568 OFFCURVE",
"469 540 CURVE SMOOTH",
"469 511 OFFCURVE",
"492 488 OFFCURVE",
"522 488 CURVE SMOOTH"
);
},
{
closed = 1;
nodes = (
"102 379 OFFCURVE",
"126 402 OFFCURVE",
"126 431 CURVE SMOOTH",
"126 459 OFFCURVE",
"102 482 OFFCURVE",
"73 482 CURVE SMOOTH",
"43 482 OFFCURVE",
"20 459 OFFCURVE",
"20 431 CURVE SMOOTH",
"20 402 OFFCURVE",
"43 379 OFFCURVE",
"73 379 CURVE SMOOTH"
);
},
{
closed = 1;
nodes = (
"551 379 OFFCURVE",
"575 402 OFFCURVE",
"575 431 CURVE SMOOTH",
"575 459 OFFCURVE",
"551 482 OFFCURVE",
"522 482 CURVE SMOOTH",
"492 482 OFFCURVE",
"469 459 OFFCURVE",
"469 431 CURVE SMOOTH",
"469 402 OFFCURVE",
"492 379 OFFCURVE",
"522 379 CURVE SMOOTH"
);
},
{
closed = 1;
nodes = (
"102 270 OFFCURVE",
"126 293 OFFCURVE",
"126 322 CURVE SMOOTH",
"126 350 OFFCURVE",
"102 373 OFFCURVE",
"73 373 CURVE SMOOTH",
"43 373 OFFCURVE",
"20 350 OFFCURVE",
"20 322 CURVE SMOOTH",
"20 293 OFFCURVE",
"43 270 OFFCURVE",
"73 270 CURVE SMOOTH"
);
},
{
closed = 1;
nodes = (
"551 270 OFFCURVE",
"575 293 OFFCURVE",
"575 322 CURVE SMOOTH",
"575 350 OFFCURVE",
"551 373 OFFCURVE",
"522 373 CURVE SMOOTH",
"492 373 OFFCURVE",
"469 350 OFFCURVE",
"469 322 CURVE SMOOTH",
"469 293 OFFCURVE",
"492 270 OFFCURVE",
"522 270 CURVE SMOOTH"
);
},
{
closed = 1;
nodes = (
"102 161 OFFCURVE",
"126 184 OFFCURVE",
"126 213 CURVE SMOOTH",
"126 241 OFFCURVE",
"102 264 OFFCURVE",
"73 264 CURVE SMOOTH",
"43 264 OFFCURVE",
"20 241 OFFCURVE",
"20 213 CURVE SMOOTH",
"20 184 OFFCURVE",
"43 161 OFFCURVE",
"73 161 CURVE SMOOTH"
);
},
{
closed = 1;
nodes = (
"551 161 OFFCURVE",
"575 184 OFFCURVE",
"575 213 CURVE SMOOTH",
"575 241 OFFCURVE",
"551 264 OFFCURVE",
"522 264 CURVE SMOOTH",
"492 264 OFFCURVE",
"469 241 OFFCURVE",
"469 213 CURVE SMOOTH",
"469 184 OFFCURVE",
"492 161 OFFCURVE",
"522 161 CURVE SMOOTH"
);
},
{
closed = 1;
nodes = (
"102 52 OFFCURVE",
"126 75 OFFCURVE",
"126 104 CURVE SMOOTH",
"126 132 OFFCURVE",
"102 155 OFFCURVE",
"73 155 CURVE SMOOTH",
"43 155 OFFCURVE",
"20 132 OFFCURVE",
"20 104 CURVE SMOOTH",
"20 75 OFFCURVE",
"43 52 OFFCURVE",
"73 52 CURVE SMOOTH"
);
},
{
closed = 1;
nodes = (
"551 52 OFFCURVE",
"575 75 OFFCURVE",
"575 104 CURVE SMOOTH",
"575 132 OFFCURVE",
"551 155 OFFCURVE",
"522 155 CURVE SMOOTH",
"492 155 OFFCURVE",
"469 132 OFFCURVE",
"469 104 CURVE SMOOTH",
"469 75 OFFCURVE",
"492 52 OFFCURVE",
"522 52 CURVE SMOOTH"
);
},
{
closed = 1;
nodes = (
"214 -58 OFFCURVE",
"238 -35 OFFCURVE",
"238 -6 CURVE SMOOTH",
"238 22 OFFCURVE",
"214 45 OFFCURVE",
"185 45 CURVE SMOOTH",
"155 45 OFFCURVE",
"132 22 OFFCURVE",
"132 -6 CURVE SMOOTH",
"132 -35 OFFCURVE",
"155 -58 OFFCURVE",
"185 -58 CURVE SMOOTH"
);
},
{
closed = 1;
nodes = (
"326 -58 OFFCURVE",
"350 -35 OFFCURVE",
"350 -6 CURVE SMOOTH",
"350 22 OFFCURVE",
"326 45 OFFCURVE",
"297 45 CURVE SMOOTH",
"267 45 OFFCURVE",
"244 22 OFFCURVE",
"244 -6 CURVE SMOOTH",
"244 -35 OFFCURVE",
"267 -58 OFFCURVE",
"297 -58 CURVE SMOOTH"
);
},
{
closed = 1;
nodes = (
"438 -58 OFFCURVE",
"462 -35 OFFCURVE",
"462 -6 CURVE SMOOTH",
"462 22 OFFCURVE",
"438 45 OFFCURVE",
"409 45 CURVE SMOOTH",
"379 45 OFFCURVE",
"356 22 OFFCURVE",
"356 -6 CURVE SMOOTH",
"356 -35 OFFCURVE",
"379 -58 OFFCURVE",
"409 -58 CURVE SMOOTH"
);
}
);
width = 600;
}
);
note = O;
unicode = 004F;
},
{
glyphname = P;
layers = (
{
hints = (
{
horizontal = 1;
place = "{52, 103}";
type = Stem;
},
{
horizontal = 1;
place = "{270, 103}";
type = Stem;
},
{
horizontal = 1;
place = "{597, 103}";
type = Stem;
},
{
place = "{20, 106}";
type = Stem;
},
{
place = "{244, 106}";
type = Stem;
},
{
place = "{469, 106}";
type = Stem;
},
{
place = "{132, 106}";
type = Stem;
},
{
place = "{356, 106}";
type = Stem;
},
{
horizontal = 1;
place = "{488, 103}";
type = Stem;
},
{
horizontal = 1;
place = "{379, 103}";
type = Stem;
},
{
horizontal = 1;
place = "{161, 103}";
type = Stem;
},
{
horizontal = 1;
place = "{-58, 103}";
type = Stem;
}
);
layerId = "50A2E4FD-7804-43F3-BCDE-AB93253BBBDA";
paths = (
{
closed = 1;
nodes = (
"102 597 OFFCURVE",
"126 620 OFFCURVE",
"126 649 CURVE SMOOTH",
"126 677 OFFCURVE",
"102 700 OFFCURVE",
"73 700 CURVE SMOOTH",
"43 700 OFFCURVE",
"20 677 OFFCURVE",
"20 649 CURVE SMOOTH",
"20 620 OFFCURVE",
"43 597 OFFCURVE",
"73 597 CURVE SMOOTH"
);
},
{
closed = 1;
nodes = (
"214 597 OFFCURVE",
"238 620 OFFCURVE",
"238 649 CURVE SMOOTH",
"238 677 OFFCURVE",
"214 700 OFFCURVE",
"185 700 CURVE SMOOTH",
"155 700 OFFCURVE",
"132 677 OFFCURVE",
"132 649 CURVE SMOOTH",
"132 620 OFFCURVE",
"155 597 OFFCURVE",
"185 597 CURVE SMOOTH"
);
},
{
closed = 1;
nodes = (
"326 597 OFFCURVE",
"350 620 OFFCURVE",
"350 649 CURVE SMOOTH",
"350 677 OFFCURVE",
"326 700 OFFCURVE",
"297 700 CURVE SMOOTH",
"267 700 OFFCURVE",
"244 677 OFFCURVE",
"244 649 CURVE SMOOTH",
"244 620 OFFCURVE",
"267 597 OFFCURVE",
"297 597 CURVE SMOOTH"
);
},
{
closed = 1;
nodes = (
"438 597 OFFCURVE",
"462 620 OFFCURVE",
"462 649 CURVE SMOOTH",
"462 677 OFFCURVE",
"438 700 OFFCURVE",
"409 700 CURVE SMOOTH",
"379 700 OFFCURVE",
"356 677 OFFCURVE",
"356 649 CURVE SMOOTH",
"356 620 OFFCURVE",
"379 597 OFFCURVE",
"409 597 CURVE SMOOTH"
);
},
{
closed = 1;
nodes = (
"102 488 OFFCURVE",
"126 511 OFFCURVE",
"126 540 CURVE SMOOTH",
"126 568 OFFCURVE",
"102 591 OFFCURVE",
"73 591 CURVE SMOOTH",
"43 591 OFFCURVE",
"20 568 OFFCURVE",
"20 540 CURVE SMOOTH",
"20 511 OFFCURVE",
"43 488 OFFCURVE",
"73 488 CURVE SMOOTH"
);
},
{
closed = 1;
nodes = (
"551 488 OFFCURVE",
"575 511 OFFCURVE",
"575 540 CURVE SMOOTH",
"575 568 OFFCURVE",
"551 591 OFFCURVE",
"522 591 CURVE SMOOTH",
"492 591 OFFCURVE",
"469 568 OFFCURVE",
"469 540 CURVE SMOOTH",
"469 511 OFFCURVE",
"492 488 OFFCURVE",
"522 488 CURVE SMOOTH"
);
},
{
closed = 1;
nodes = (
"102 379 OFFCURVE",
"126 402 OFFCURVE",
"126 431 CURVE SMOOTH",
"126 459 OFFCURVE",
"102 482 OFFCURVE",
"73 482 CURVE SMOOTH",
"43 482 OFFCURVE",
"20 459 OFFCURVE",
"20 431 CURVE SMOOTH",
"20 402 OFFCURVE",
"43 379 OFFCURVE",
"73 379 CURVE SMOOTH"
);
},
{
closed = 1;
nodes = (
"551 379 OFFCURVE",
"575 402 OFFCURVE",
"575 431 CURVE SMOOTH",
"575 459 OFFCURVE",
"551 482 OFFCURVE",
"522 482 CURVE SMOOTH",
"492 482 OFFCURVE",
"469 459 OFFCURVE",
"469 431 CURVE SMOOTH",
"469 402 OFFCURVE",
"492 379 OFFCURVE",
"522 379 CURVE SMOOTH"
);
},
{
closed = 1;
nodes = (
"102 270 OFFCURVE",
"126 293 OFFCURVE",
"126 322 CURVE SMOOTH",
"126 350 OFFCURVE",
"102 373 OFFCURVE",
"73 373 CURVE SMOOTH",
"43 373 OFFCURVE",
"20 350 OFFCURVE",
"20 322 CURVE SMOOTH",
"20 293 OFFCURVE",
"43 270 OFFCURVE",
"73 270 CURVE SMOOTH"
);
},
{
closed = 1;
nodes = (
"214 270 OFFCURVE",
"238 293 OFFCURVE",
"238 322 CURVE SMOOTH",
"238 350 OFFCURVE",
"214 373 OFFCURVE",
"185 373 CURVE SMOOTH",
"155 373 OFFCURVE",
"132 350 OFFCURVE",
"132 322 CURVE SMOOTH",
"132 293 OFFCURVE",
"155 270 OFFCURVE",
"185 270 CURVE SMOOTH"
);
},
{
closed = 1;
nodes = (
"326 270 OFFCURVE",
"350 293 OFFCURVE",
"350 322 CURVE SMOOTH",
"350 350 OFFCURVE",
"326 373 OFFCURVE",
"297 373 CURVE SMOOTH",
"267 373 OFFCURVE",
"244 350 OFFCURVE",
"244 322 CURVE SMOOTH",
"244 293 OFFCURVE",
"267 270 OFFCURVE",
"297 270 CURVE SMOOTH"
);
},
{
closed = 1;
nodes = (
"438 270 OFFCURVE",
"462 293 OFFCURVE",
"462 322 CURVE SMOOTH",
"462 350 OFFCURVE",
"438 373 OFFCURVE",
"409 373 CURVE SMOOTH",
"379 373 OFFCURVE",
"356 350 OFFCURVE",
"356 322 CURVE SMOOTH",
"356 293 OFFCURVE",
"379 270 OFFCURVE",
"409 270 CURVE SMOOTH"
);
},
{
closed = 1;
nodes = (
"102 161 OFFCURVE",
"126 184 OFFCURVE",
"126 213 CURVE SMOOTH",
"126 241 OFFCURVE",
"102 264 OFFCURVE",
"73 264 CURVE SMOOTH",
"43 264 OFFCURVE",
"20 241 OFFCURVE",
"20 213 CURVE SMOOTH",
"20 184 OFFCURVE",
"43 161 OFFCURVE",
"73 161 CURVE SMOOTH"
);
},
{
closed = 1;
nodes = (
"102 52 OFFCURVE",
"126 75 OFFCURVE",
"126 104 CURVE SMOOTH",
"126 132 OFFCURVE",
"102 155 OFFCURVE",
"73 155 CURVE SMOOTH",
"43 155 OFFCURVE",
"20 132 OFFCURVE",
"20 104 CURVE SMOOTH",
"20 75 OFFCURVE",
"43 52 OFFCURVE",
"73 52 CURVE SMOOTH"
);
},
{
closed = 1;
nodes = (
"102 -58 OFFCURVE",
"126 -35 OFFCURVE",
"126 -6 CURVE SMOOTH",
"126 22 OFFCURVE",
"102 45 OFFCURVE",
"73 45 CURVE SMOOTH",
"43 45 OFFCURVE",
"20 22 OFFCURVE",
"20 -6 CURVE SMOOTH",
"20 -35 OFFCURVE",
"43 -58 OFFCURVE",
"73 -58 CURVE SMOOTH"
);
}
);
width = 600;
}
);
note = P;
unicode = 0050;
},
{
glyphname = Q;
layers = (
{
hints = (
{
horizontal = 1;
place = "{597, 103}";
type = Stem;
},
{
place = "{132, 106}";
type = Stem;
},
{
place = "{244, 106}";
type = Stem;
},
{
place = "{356, 106}";
type = Stem;
},
{
horizontal = 1;
place = "{488, 103}";
type = Stem;
},
{
place = "{20, 106}";
type = Stem;
},
{
place = "{469, 106}";
type = Stem;
},
{
horizontal = 1;
place = "{379, 103}";
type = Stem;
},
{
horizontal = 1;
place = "{270, 103}";
type = Stem;
},
{
horizontal = 1;
place = "{161, 103}";
type = Stem;
},
{
horizontal = 1;
place = "{52, 103}";
type = Stem;
},
{
horizontal = 1;
place = "{-58, 103}";
type = Stem;
}
);
layerId = "50A2E4FD-7804-43F3-BCDE-AB93253BBBDA";
paths = (
{
closed = 1;
nodes = (
"214 597 OFFCURVE",
"238 620 OFFCURVE",
"238 649 CURVE SMOOTH",
"238 677 OFFCURVE",
"214 700 OFFCURVE",
"185 700 CURVE SMOOTH",
"155 700 OFFCURVE",
"132 677 OFFCURVE",
"132 649 CURVE SMOOTH",
"132 620 OFFCURVE",
"155 597 OFFCURVE",
"185 597 CURVE SMOOTH"
);
},
{
closed = 1;
nodes = (
"326 597 OFFCURVE",
"350 620 OFFCURVE",
"350 649 CURVE SMOOTH",
"350 677 OFFCURVE",
"326 700 OFFCURVE",
"297 700 CURVE SMOOTH",
"267 700 OFFCURVE",
"244 677 OFFCURVE",
"244 649 CURVE SMOOTH",
"244 620 OFFCURVE",
"267 597 OFFCURVE",
"297 597 CURVE SMOOTH"
);
},
{
closed = 1;
nodes = (
"438 597 OFFCURVE",
"462 620 OFFCURVE",
"462 649 CURVE SMOOTH",
"462 677 OFFCURVE",
"438 700 OFFCURVE",
"409 700 CURVE SMOOTH",
"379 700 OFFCURVE",
"356 677 OFFCURVE",
"356 649 CURVE SMOOTH",
"356 620 OFFCURVE",
"379 597 OFFCURVE",
"409 597 CURVE SMOOTH"
);
},
{
closed = 1;
nodes = (
"102 488 OFFCURVE",
"126 511 OFFCURVE",
"126 540 CURVE SMOOTH",
"126 568 OFFCURVE",
"102 591 OFFCURVE",
"73 591 CURVE SMOOTH",
"43 591 OFFCURVE",
"20 568 OFFCURVE",
"20 540 CURVE SMOOTH",
"20 511 OFFCURVE",
"43 488 OFFCURVE",
"73 488 CURVE SMOOTH"
);
},
{
closed = 1;
nodes = (
"551 488 OFFCURVE",
"575 511 OFFCURVE",
"575 540 CURVE SMOOTH",
"575 568 OFFCURVE",
"551 591 OFFCURVE",
"522 591 CURVE SMOOTH",
"492 591 OFFCURVE",
"469 568 OFFCURVE",
"469 540 CURVE SMOOTH",
"469 511 OFFCURVE",
"492 488 OFFCURVE",
"522 488 CURVE SMOOTH"
);
},
{
closed = 1;
nodes = (
"102 379 OFFCURVE",
"126 402 OFFCURVE",
"126 431 CURVE SMOOTH",
"126 459 OFFCURVE",
"102 482 OFFCURVE",
"73 482 CURVE SMOOTH",
"43 482 OFFCURVE",
"20 459 OFFCURVE",
"20 431 CURVE SMOOTH",
"20 402 OFFCURVE",
"43 379 OFFCURVE",
"73 379 CURVE SMOOTH"
);
},
{
closed = 1;
nodes = (
"551 379 OFFCURVE",
"575 402 OFFCURVE",
"575 431 CURVE SMOOTH",
"575 459 OFFCURVE",
"551 482 OFFCURVE",
"522 482 CURVE SMOOTH",
"492 482 OFFCURVE",
"469 459 OFFCURVE",
"469 431 CURVE SMOOTH",
"469 402 OFFCURVE",
"492 379 OFFCURVE",
"522 379 CURVE SMOOTH"
);
},
{
closed = 1;
nodes = (
"102 270 OFFCURVE",
"126 293 OFFCURVE",
"126 322 CURVE SMOOTH",
"126 350 OFFCURVE",
"102 373 OFFCURVE",
"73 373 CURVE SMOOTH",
"43 373 OFFCURVE",
"20 350 OFFCURVE",
"20 322 CURVE SMOOTH",
"20 293 OFFCURVE",
"43 270 OFFCURVE",
"73 270 CURVE SMOOTH"
);
},
{
closed = 1;
nodes = (
"551 270 OFFCURVE",
"575 293 OFFCURVE",
"575 322 CURVE SMOOTH",
"575 350 OFFCURVE",
"551 373 OFFCURVE",
"522 373 CURVE SMOOTH",
"492 373 OFFCURVE",
"469 350 OFFCURVE",
"469 322 CURVE SMOOTH",
"469 293 OFFCURVE",
"492 270 OFFCURVE",
"522 270 CURVE SMOOTH"
);
},
{
closed = 1;
nodes = (
"102 161 OFFCURVE",
"126 184 OFFCURVE",
"126 213 CURVE SMOOTH",
"126 241 OFFCURVE",
"102 264 OFFCURVE",
"73 264 CURVE SMOOTH",
"43 264 OFFCURVE",
"20 241 OFFCURVE",
"20 213 CURVE SMOOTH",
"20 184 OFFCURVE",
"43 161 OFFCURVE",
"73 161 CURVE SMOOTH"
);
},
{
closed = 1;
nodes = (
"551 161 OFFCURVE",
"575 184 OFFCURVE",
"575 213 CURVE SMOOTH",
"575 241 OFFCURVE",
"551 264 OFFCURVE",
"522 264 CURVE SMOOTH",
"492 264 OFFCURVE",
"469 241 OFFCURVE",
"469 213 CURVE SMOOTH",
"469 184 OFFCURVE",
"492 161 OFFCURVE",
"522 161 CURVE SMOOTH"
);
},
{
closed = 1;
nodes = (
"102 52 OFFCURVE",
"126 75 OFFCURVE",
"126 104 CURVE SMOOTH",
"126 132 OFFCURVE",
"102 155 OFFCURVE",
"73 155 CURVE SMOOTH",
"43 155 OFFCURVE",
"20 132 OFFCURVE",
"20 104 CURVE SMOOTH",
"20 75 OFFCURVE",
"43 52 OFFCURVE",
"73 52 CURVE SMOOTH"
);
},
{
closed = 1;
nodes = (
"438 52 OFFCURVE",
"462 75 OFFCURVE",
"462 104 CURVE SMOOTH",
"462 132 OFFCURVE",
"438 155 OFFCURVE",
"409 155 CURVE SMOOTH",
"379 155 OFFCURVE",
"356 132 OFFCURVE",
"356 104 CURVE SMOOTH",
"356 75 OFFCURVE",
"379 52 OFFCURVE",
"409 52 CURVE SMOOTH"
);
},
{
closed = 1;
nodes = (
"551 52 OFFCURVE",
"575 75 OFFCURVE",
"575 104 CURVE SMOOTH",
"575 132 OFFCURVE",
"551 155 OFFCURVE",
"522 155 CURVE SMOOTH",
"492 155 OFFCURVE",
"469 132 OFFCURVE",
"469 104 CURVE SMOOTH",
"469 75 OFFCURVE",
"492 52 OFFCURVE",
"522 52 CURVE SMOOTH"
);
},
{
closed = 1;
nodes = (
"214 -58 OFFCURVE",
"238 -35 OFFCURVE",
"238 -6 CURVE SMOOTH",
"238 22 OFFCURVE",
"214 45 OFFCURVE",
"185 45 CURVE SMOOTH",
"155 45 OFFCURVE",
"132 22 OFFCURVE",
"132 -6 CURVE SMOOTH",
"132 -35 OFFCURVE",
"155 -58 OFFCURVE",
"185 -58 CURVE SMOOTH"
);
},
{
closed = 1;
nodes = (
"326 -58 OFFCURVE",
"350 -35 OFFCURVE",
"350 -6 CURVE SMOOTH",
"350 22 OFFCURVE",
"326 45 OFFCURVE",
"297 45 CURVE SMOOTH",
"267 45 OFFCURVE",
"244 22 OFFCURVE",
"244 -6 CURVE SMOOTH",
"244 -35 OFFCURVE",
"267 -58 OFFCURVE",
"297 -58 CURVE SMOOTH"
);
},
{
closed = 1;
nodes = (
"438 -58 OFFCURVE",
"462 -35 OFFCURVE",
"462 -6 CURVE SMOOTH",
"462 22 OFFCURVE",
"438 45 OFFCURVE",
"409 45 CURVE SMOOTH",
"379 45 OFFCURVE",
"356 22 OFFCURVE",
"356 -6 CURVE SMOOTH",
"356 -35 OFFCURVE",
"379 -58 OFFCURVE",
"409 -58 CURVE SMOOTH"
);
},
{
closed = 1;
nodes = (
"551 -58 OFFCURVE",
"575 -35 OFFCURVE",
"575 -6 CURVE SMOOTH",
"575 22 OFFCURVE",
"551 45 OFFCURVE",
"522 45 CURVE SMOOTH",
"492 45 OFFCURVE",
"469 22 OFFCURVE",
"469 -6 CURVE SMOOTH",
"469 -35 OFFCURVE",
"492 -58 OFFCURVE",
"522 -58 CURVE SMOOTH"
);
}
);
width = 600;
}
);
note = Q;
unicode = 0051;
},
{
glyphname = R;
layers = (
{
hints = (
{
horizontal = 1;
place = "{52, 103}";
type = Stem;
},
{
horizontal = 1;
place = "{270, 103}";
type = Stem;
},
{
horizontal = 1;
place = "{597, 103}";
type = Stem;
},
{
place = "{20, 106}";
type = Stem;
},
{
place = "{244, 106}";
type = Stem;
},
{
place = "{469, 106}";
type = Stem;
},
{
place = "{132, 106}";
type = Stem;
},
{
place = "{356, 106}";
type = Stem;
},
{
horizontal = 1;
place = "{488, 103}";
type = Stem;
},
{
horizontal = 1;
place = "{379, 103}";
type = Stem;
},
{
horizontal = 1;
place = "{161, 103}";
type = Stem;
},
{
horizontal = 1;
place = "{-58, 103}";
type = Stem;
}
);
layerId = "50A2E4FD-7804-43F3-BCDE-AB93253BBBDA";
paths = (
{
closed = 1;
nodes = (
"102 597 OFFCURVE",
"126 620 OFFCURVE",
"126 649 CURVE SMOOTH",
"126 677 OFFCURVE",
"102 700 OFFCURVE",
"73 700 CURVE SMOOTH",
"43 700 OFFCURVE",
"20 677 OFFCURVE",
"20 649 CURVE SMOOTH",
"20 620 OFFCURVE",
"43 597 OFFCURVE",
"73 597 CURVE SMOOTH"
);
},
{
closed = 1;
nodes = (
"214 597 OFFCURVE",
"238 620 OFFCURVE",
"238 649 CURVE SMOOTH",
"238 677 OFFCURVE",
"214 700 OFFCURVE",
"185 700 CURVE SMOOTH",
"155 700 OFFCURVE",
"132 677 OFFCURVE",
"132 649 CURVE SMOOTH",
"132 620 OFFCURVE",
"155 597 OFFCURVE",
"185 597 CURVE SMOOTH"
);
},
{
closed = 1;
nodes = (
"326 597 OFFCURVE",
"350 620 OFFCURVE",
"350 649 CURVE SMOOTH",
"350 677 OFFCURVE",
"326 700 OFFCURVE",
"297 700 CURVE SMOOTH",
"267 700 OFFCURVE",
"244 677 OFFCURVE",
"244 649 CURVE SMOOTH",
"244 620 OFFCURVE",
"267 597 OFFCURVE",
"297 597 CURVE SMOOTH"
);
},
{
closed = 1;
nodes = (
"438 597 OFFCURVE",
"462 620 OFFCURVE",
"462 649 CURVE SMOOTH",
"462 677 OFFCURVE",
"438 700 OFFCURVE",
"409 700 CURVE SMOOTH",
"379 700 OFFCURVE",
"356 677 OFFCURVE",
"356 649 CURVE SMOOTH",
"356 620 OFFCURVE",
"379 597 OFFCURVE",
"409 597 CURVE SMOOTH"
);
},
{
closed = 1;
nodes = (
"102 488 OFFCURVE",
"126 511 OFFCURVE",
"126 540 CURVE SMOOTH",
"126 568 OFFCURVE",
"102 591 OFFCURVE",
"73 591 CURVE SMOOTH",
"43 591 OFFCURVE",
"20 568 OFFCURVE",
"20 540 CURVE SMOOTH",
"20 511 OFFCURVE",
"43 488 OFFCURVE",
"73 488 CURVE SMOOTH"
);
},
{
closed = 1;
nodes = (
"551 488 OFFCURVE",
"575 511 OFFCURVE",
"575 540 CURVE SMOOTH",
"575 568 OFFCURVE",
"551 591 OFFCURVE",
"522 591 CURVE SMOOTH",
"492 591 OFFCURVE",
"469 568 OFFCURVE",
"469 540 CURVE SMOOTH",
"469 511 OFFCURVE",
"492 488 OFFCURVE",
"522 488 CURVE SMOOTH"
);
},
{
closed = 1;
nodes = (
"102 379 OFFCURVE",
"126 402 OFFCURVE",
"126 431 CURVE SMOOTH",
"126 459 OFFCURVE",
"102 482 OFFCURVE",
"73 482 CURVE SMOOTH",
"43 482 OFFCURVE",
"20 459 OFFCURVE",
"20 431 CURVE SMOOTH",
"20 402 OFFCURVE",
"43 379 OFFCURVE",
"73 379 CURVE SMOOTH"
);
},
{
closed = 1;
nodes = (
"551 379 OFFCURVE",
"575 402 OFFCURVE",
"575 431 CURVE SMOOTH",
"575 459 OFFCURVE",
"551 482 OFFCURVE",
"522 482 CURVE SMOOTH",
"492 482 OFFCURVE",
"469 459 OFFCURVE",
"469 431 CURVE SMOOTH",
"469 402 OFFCURVE",
"492 379 OFFCURVE",
"522 379 CURVE SMOOTH"
);
},
{
closed = 1;
nodes = (
"102 270 OFFCURVE",
"126 293 OFFCURVE",
"126 322 CURVE SMOOTH",
"126 350 OFFCURVE",
"102 373 OFFCURVE",
"73 373 CURVE SMOOTH",
"43 373 OFFCURVE",
"20 350 OFFCURVE",
"20 322 CURVE SMOOTH",
"20 293 OFFCURVE",
"43 270 OFFCURVE",
"73 270 CURVE SMOOTH"
);
},
{
closed = 1;
nodes = (
"214 270 OFFCURVE",
"238 293 OFFCURVE",
"238 322 CURVE SMOOTH",
"238 350 OFFCURVE",
"214 373 OFFCURVE",
"185 373 CURVE SMOOTH",
"155 373 OFFCURVE",
"132 350 OFFCURVE",
"132 322 CURVE SMOOTH",
"132 293 OFFCURVE",
"155 270 OFFCURVE",
"185 270 CURVE SMOOTH"
);
},
{
closed = 1;
nodes = (
"326 270 OFFCURVE",
"350 293 OFFCURVE",
"350 322 CURVE SMOOTH",
"350 350 OFFCURVE",
"326 373 OFFCURVE",
"297 373 CURVE SMOOTH",
"267 373 OFFCURVE",
"244 350 OFFCURVE",
"244 322 CURVE SMOOTH",
"244 293 OFFCURVE",
"267 270 OFFCURVE",
"297 270 CURVE SMOOTH"
);
},
{
closed = 1;
nodes = (
"438 270 OFFCURVE",
"462 293 OFFCURVE",
"462 322 CURVE SMOOTH",
"462 350 OFFCURVE",
"438 373 OFFCURVE",
"409 373 CURVE SMOOTH",
"379 373 OFFCURVE",
"356 350 OFFCURVE",
"356 322 CURVE SMOOTH",
"356 293 OFFCURVE",
"379 270 OFFCURVE",
"409 270 CURVE SMOOTH"
);
},
{
closed = 1;
nodes = (
"102 161 OFFCURVE",
"126 184 OFFCURVE",
"126 213 CURVE SMOOTH",
"126 241 OFFCURVE",
"102 264 OFFCURVE",
"73 264 CURVE SMOOTH",
"43 264 OFFCURVE",
"20 241 OFFCURVE",
"20 213 CURVE SMOOTH",
"20 184 OFFCURVE",
"43 161 OFFCURVE",
"73 161 CURVE SMOOTH"
);
},
{
closed = 1;
nodes = (
"551 161 OFFCURVE",
"575 184 OFFCURVE",
"575 213 CURVE SMOOTH",
"575 241 OFFCURVE",
"551 264 OFFCURVE",
"522 264 CURVE SMOOTH",
"492 264 OFFCURVE",
"469 241 OFFCURVE",
"469 213 CURVE SMOOTH",
"469 184 OFFCURVE",
"492 161 OFFCURVE",
"522 161 CURVE SMOOTH"
);
},
{
closed = 1;
nodes = (
"102 52 OFFCURVE",
"126 75 OFFCURVE",
"126 104 CURVE SMOOTH",
"126 132 OFFCURVE",
"102 155 OFFCURVE",
"73 155 CURVE SMOOTH",
"43 155 OFFCURVE",
"20 132 OFFCURVE",
"20 104 CURVE SMOOTH",
"20 75 OFFCURVE",
"43 52 OFFCURVE",
"73 52 CURVE SMOOTH"
);
},
{
closed = 1;
nodes = (
"551 52 OFFCURVE",
"575 75 OFFCURVE",
"575 104 CURVE SMOOTH",
"575 132 OFFCURVE",
"551 155 OFFCURVE",
"522 155 CURVE SMOOTH",
"492 155 OFFCURVE",
"469 132 OFFCURVE",
"469 104 CURVE SMOOTH",
"469 75 OFFCURVE",
"492 52 OFFCURVE",
"522 52 CURVE SMOOTH"
);
},
{
closed = 1;
nodes = (
"102 -58 OFFCURVE",
"126 -35 OFFCURVE",
"126 -6 CURVE SMOOTH",
"126 22 OFFCURVE",
"102 45 OFFCURVE",
"73 45 CURVE SMOOTH",
"43 45 OFFCURVE",
"20 22 OFFCURVE",
"20 -6 CURVE SMOOTH",
"20 -35 OFFCURVE",
"43 -58 OFFCURVE",
"73 -58 CURVE SMOOTH"
);
},
{
closed = 1;
nodes = (
"551 -58 OFFCURVE",
"575 -35 OFFCURVE",
"575 -6 CURVE SMOOTH",
"575 22 OFFCURVE",
"551 45 OFFCURVE",
"522 45 CURVE SMOOTH",
"492 45 OFFCURVE",
"469 22 OFFCURVE",
"469 -6 CURVE SMOOTH",
"469 -35 OFFCURVE",
"492 -58 OFFCURVE",
"522 -58 CURVE SMOOTH"
);
}
);
width = 600;
}
);
note = R;
unicode = 0052;
},
{
glyphname = S;
layers = (
{
hints = (
{
horizontal = 1;
place = "{597, 103}";
type = Stem;
},
{
place = "{132, 106}";
type = Stem;
},
{
place = "{244, 106}";
type = Stem;
},
{
place = "{356, 106}";
type = Stem;
},
{
horizontal = 1;
place = "{488, 103}";
type = Stem;
},
{
place = "{20, 106}";
type = Stem;
},
{
place = "{469, 106}";
type = Stem;
},
{
horizontal = 1;
place = "{379, 103}";
type = Stem;
},
{
horizontal = 1;
place = "{270, 103}";
type = Stem;
},
{
horizontal = 1;
place = "{161, 103}";
type = Stem;
},
{
horizontal = 1;
place = "{52, 103}";
type = Stem;
},
{
horizontal = 1;
place = "{-58, 103}";
type = Stem;
}
);
layerId = "50A2E4FD-7804-43F3-BCDE-AB93253BBBDA";
paths = (
{
closed = 1;
nodes = (
"214 597 OFFCURVE",
"238 620 OFFCURVE",
"238 649 CURVE SMOOTH",
"238 677 OFFCURVE",
"214 700 OFFCURVE",
"185 700 CURVE SMOOTH",
"155 700 OFFCURVE",
"132 677 OFFCURVE",
"132 649 CURVE SMOOTH",
"132 620 OFFCURVE",
"155 597 OFFCURVE",
"185 597 CURVE SMOOTH"
);
},
{
closed = 1;
nodes = (
"326 597 OFFCURVE",
"350 620 OFFCURVE",
"350 649 CURVE SMOOTH",
"350 677 OFFCURVE",
"326 700 OFFCURVE",
"297 700 CURVE SMOOTH",
"267 700 OFFCURVE",
"244 677 OFFCURVE",
"244 649 CURVE SMOOTH",
"244 620 OFFCURVE",
"267 597 OFFCURVE",
"297 597 CURVE SMOOTH"
);
},
{
closed = 1;
nodes = (
"438 597 OFFCURVE",
"462 620 OFFCURVE",
"462 649 CURVE SMOOTH",
"462 677 OFFCURVE",
"438 700 OFFCURVE",
"409 700 CURVE SMOOTH",
"379 700 OFFCURVE",
"356 677 OFFCURVE",
"356 649 CURVE SMOOTH",
"356 620 OFFCURVE",
"379 597 OFFCURVE",
"409 597 CURVE SMOOTH"
);
},
{
closed = 1;
nodes = (
"102 488 OFFCURVE",
"126 511 OFFCURVE",
"126 540 CURVE SMOOTH",
"126 568 OFFCURVE",
"102 591 OFFCURVE",
"73 591 CURVE SMOOTH",
"43 591 OFFCURVE",
"20 568 OFFCURVE",
"20 540 CURVE SMOOTH",
"20 511 OFFCURVE",
"43 488 OFFCURVE",
"73 488 CURVE SMOOTH"
);
},
{
closed = 1;
nodes = (
"551 488 OFFCURVE",
"575 511 OFFCURVE",
"575 540 CURVE SMOOTH",
"575 568 OFFCURVE",
"551 591 OFFCURVE",
"522 591 CURVE SMOOTH",
"492 591 OFFCURVE",
"469 568 OFFCURVE",
"469 540 CURVE SMOOTH",
"469 511 OFFCURVE",
"492 488 OFFCURVE",
"522 488 CURVE SMOOTH"
);
},
{
closed = 1;
nodes = (
"102 379 OFFCURVE",
"126 402 OFFCURVE",
"126 431 CURVE SMOOTH",
"126 459 OFFCURVE",
"102 482 OFFCURVE",
"73 482 CURVE SMOOTH",
"43 482 OFFCURVE",
"20 459 OFFCURVE",
"20 431 CURVE SMOOTH",
"20 402 OFFCURVE",
"43 379 OFFCURVE",
"73 379 CURVE SMOOTH"
);
},
{
closed = 1;
nodes = (
"214 270 OFFCURVE",
"238 293 OFFCURVE",
"238 322 CURVE SMOOTH",
"238 350 OFFCURVE",
"214 373 OFFCURVE",
"185 373 CURVE SMOOTH",
"155 373 OFFCURVE",
"132 350 OFFCURVE",
"132 322 CURVE SMOOTH",
"132 293 OFFCURVE",
"155 270 OFFCURVE",
"185 270 CURVE SMOOTH"
);
},
{
closed = 1;
nodes = (
"326 270 OFFCURVE",
"350 293 OFFCURVE",
"350 322 CURVE SMOOTH",
"350 350 OFFCURVE",
"326 373 OFFCURVE",
"297 373 CURVE SMOOTH",
"267 373 OFFCURVE",
"244 350 OFFCURVE",
"244 322 CURVE SMOOTH",
"244 293 OFFCURVE",
"267 270 OFFCURVE",
"297 270 CURVE SMOOTH"
);
},
{
closed = 1;
nodes = (
"438 270 OFFCURVE",
"462 293 OFFCURVE",
"462 322 CURVE SMOOTH",
"462 350 OFFCURVE",
"438 373 OFFCURVE",
"409 373 CURVE SMOOTH",
"379 373 OFFCURVE",
"356 350 OFFCURVE",
"356 322 CURVE SMOOTH",
"356 293 OFFCURVE",
"379 270 OFFCURVE",
"409 270 CURVE SMOOTH"
);
},
{
closed = 1;
nodes = (
"551 161 OFFCURVE",
"575 184 OFFCURVE",
"575 213 CURVE SMOOTH",
"575 241 OFFCURVE",
"551 264 OFFCURVE",
"522 264 CURVE SMOOTH",
"492 264 OFFCURVE",
"469 241 OFFCURVE",
"469 213 CURVE SMOOTH",
"469 184 OFFCURVE",
"492 161 OFFCURVE",
"522 161 CURVE SMOOTH"
);
},
{
closed = 1;
nodes = (
"102 52 OFFCURVE",
"126 75 OFFCURVE",
"126 104 CURVE SMOOTH",
"126 132 OFFCURVE",
"102 155 OFFCURVE",
"73 155 CURVE SMOOTH",
"43 155 OFFCURVE",
"20 132 OFFCURVE",
"20 104 CURVE SMOOTH",
"20 75 OFFCURVE",
"43 52 OFFCURVE",
"73 52 CURVE SMOOTH"
);
},
{
closed = 1;
nodes = (
"551 52 OFFCURVE",
"575 75 OFFCURVE",
"575 104 CURVE SMOOTH",
"575 132 OFFCURVE",
"551 155 OFFCURVE",
"522 155 CURVE SMOOTH",
"492 155 OFFCURVE",
"469 132 OFFCURVE",
"469 104 CURVE SMOOTH",
"469 75 OFFCURVE",
"492 52 OFFCURVE",
"522 52 CURVE SMOOTH"
);
},
{
closed = 1;
nodes = (
"214 -58 OFFCURVE",
"238 -35 OFFCURVE",
"238 -6 CURVE SMOOTH",
"238 22 OFFCURVE",
"214 45 OFFCURVE",
"185 45 CURVE SMOOTH",
"155 45 OFFCURVE",
"132 22 OFFCURVE",
"132 -6 CURVE SMOOTH",
"132 -35 OFFCURVE",
"155 -58 OFFCURVE",
"185 -58 CURVE SMOOTH"
);
},
{
closed = 1;
nodes = (
"326 -58 OFFCURVE",
"350 -35 OFFCURVE",
"350 -6 CURVE SMOOTH",
"350 22 OFFCURVE",
"326 45 OFFCURVE",
"297 45 CURVE SMOOTH",
"267 45 OFFCURVE",
"244 22 OFFCURVE",
"244 -6 CURVE SMOOTH",
"244 -35 OFFCURVE",
"267 -58 OFFCURVE",
"297 -58 CURVE SMOOTH"
);
},
{
closed = 1;
nodes = (
"438 -58 OFFCURVE",
"462 -35 OFFCURVE",
"462 -6 CURVE SMOOTH",
"462 22 OFFCURVE",
"438 45 OFFCURVE",
"409 45 CURVE SMOOTH",
"379 45 OFFCURVE",
"356 22 OFFCURVE",
"356 -6 CURVE SMOOTH",
"356 -35 OFFCURVE",
"379 -58 OFFCURVE",
"409 -58 CURVE SMOOTH"
);
}
);
width = 600;
}
);
note = S;
unicode = 0053;
},
{
glyphname = T;
layers = (
{
hints = (
{
horizontal = 1;
place = "{-58, 103}";
type = Stem;
},
{
horizontal = 1;
place = "{161, 103}";
type = Stem;
},
{
horizontal = 1;
place = "{379, 103}";
type = Stem;
},
{
horizontal = 1;
place = "{597, 103}";
type = Stem;
},
{
place = "{20, 106}";
type = Stem;
},
{
place = "{244, 106}";
type = Stem;
},
{
place = "{469, 106}";
type = Stem;
},
{
place = "{132, 106}";
type = Stem;
},
{
place = "{356, 106}";
type = Stem;
},
{
horizontal = 1;
place = "{488, 103}";
type = Stem;
},
{
horizontal = 1;
place = "{270, 103}";
type = Stem;
},
{
horizontal = 1;
place = "{52, 103}";
type = Stem;
}
);
layerId = "50A2E4FD-7804-43F3-BCDE-AB93253BBBDA";
paths = (
{
closed = 1;
nodes = (
"102 597 OFFCURVE",
"126 620 OFFCURVE",
"126 649 CURVE SMOOTH",
"126 677 OFFCURVE",
"102 700 OFFCURVE",
"73 700 CURVE SMOOTH",
"43 700 OFFCURVE",
"20 677 OFFCURVE",
"20 649 CURVE SMOOTH",
"20 620 OFFCURVE",
"43 597 OFFCURVE",
"73 597 CURVE SMOOTH"
);
},
{
closed = 1;
nodes = (
"214 597 OFFCURVE",
"238 620 OFFCURVE",
"238 649 CURVE SMOOTH",
"238 677 OFFCURVE",
"214 700 OFFCURVE",
"185 700 CURVE SMOOTH",
"155 700 OFFCURVE",
"132 677 OFFCURVE",
"132 649 CURVE SMOOTH",
"132 620 OFFCURVE",
"155 597 OFFCURVE",
"185 597 CURVE SMOOTH"
);
},
{
closed = 1;
nodes = (
"326 597 OFFCURVE",
"350 620 OFFCURVE",
"350 649 CURVE SMOOTH",
"350 677 OFFCURVE",
"326 700 OFFCURVE",
"297 700 CURVE SMOOTH",
"267 700 OFFCURVE",
"244 677 OFFCURVE",
"244 649 CURVE SMOOTH",
"244 620 OFFCURVE",
"267 597 OFFCURVE",
"297 597 CURVE SMOOTH"
);
},
{
closed = 1;
nodes = (
"438 597 OFFCURVE",
"462 620 OFFCURVE",
"462 649 CURVE SMOOTH",
"462 677 OFFCURVE",
"438 700 OFFCURVE",
"409 700 CURVE SMOOTH",
"379 700 OFFCURVE",
"356 677 OFFCURVE",
"356 649 CURVE SMOOTH",
"356 620 OFFCURVE",
"379 597 OFFCURVE",
"409 597 CURVE SMOOTH"
);
},
{
closed = 1;
nodes = (
"551 597 OFFCURVE",
"575 620 OFFCURVE",
"575 649 CURVE SMOOTH",
"575 677 OFFCURVE",
"551 700 OFFCURVE",
"522 700 CURVE SMOOTH",
"492 700 OFFCURVE",
"469 677 OFFCURVE",
"469 649 CURVE SMOOTH",
"469 620 OFFCURVE",
"492 597 OFFCURVE",
"522 597 CURVE SMOOTH"
);
},
{
closed = 1;
nodes = (
"326 488 OFFCURVE",
"350 511 OFFCURVE",
"350 540 CURVE SMOOTH",
"350 568 OFFCURVE",
"326 591 OFFCURVE",
"297 591 CURVE SMOOTH",
"267 591 OFFCURVE",
"244 568 OFFCURVE",
"244 540 CURVE SMOOTH",
"244 511 OFFCURVE",
"267 488 OFFCURVE",
"297 488 CURVE SMOOTH"
);
},
{
closed = 1;
nodes = (
"326 379 OFFCURVE",
"350 402 OFFCURVE",
"350 431 CURVE SMOOTH",
"350 459 OFFCURVE",
"326 482 OFFCURVE",
"297 482 CURVE SMOOTH",
"267 482 OFFCURVE",
"244 459 OFFCURVE",
"244 431 CURVE SMOOTH",
"244 402 OFFCURVE",
"267 379 OFFCURVE",
"297 379 CURVE SMOOTH"
);
},
{
closed = 1;
nodes = (
"326 270 OFFCURVE",
"350 293 OFFCURVE",
"350 322 CURVE SMOOTH",
"350 350 OFFCURVE",
"326 373 OFFCURVE",
"297 373 CURVE SMOOTH",
"267 373 OFFCURVE",
"244 350 OFFCURVE",
"244 322 CURVE SMOOTH",
"244 293 OFFCURVE",
"267 270 OFFCURVE",
"297 270 CURVE SMOOTH"
);
},
{
closed = 1;
nodes = (
"326 161 OFFCURVE",
"350 184 OFFCURVE",
"350 213 CURVE SMOOTH",
"350 241 OFFCURVE",
"326 264 OFFCURVE",
"297 264 CURVE SMOOTH",
"267 264 OFFCURVE",
"244 241 OFFCURVE",
"244 213 CURVE SMOOTH",
"244 184 OFFCURVE",
"267 161 OFFCURVE",
"297 161 CURVE SMOOTH"
);
},
{
closed = 1;
nodes = (
"326 52 OFFCURVE",
"350 75 OFFCURVE",
"350 104 CURVE SMOOTH",
"350 132 OFFCURVE",
"326 155 OFFCURVE",
"297 155 CURVE SMOOTH",
"267 155 OFFCURVE",
"244 132 OFFCURVE",
"244 104 CURVE SMOOTH",
"244 75 OFFCURVE",
"267 52 OFFCURVE",
"297 52 CURVE SMOOTH"
);
},
{
closed = 1;
nodes = (
"326 -58 OFFCURVE",
"350 -35 OFFCURVE",
"350 -6 CURVE SMOOTH",
"350 22 OFFCURVE",
"326 45 OFFCURVE",
"297 45 CURVE SMOOTH",
"267 45 OFFCURVE",
"244 22 OFFCURVE",
"244 -6 CURVE SMOOTH",
"244 -35 OFFCURVE",
"267 -58 OFFCURVE",
"297 -58 CURVE SMOOTH"
);
}
);
width = 600;
}
);
note = T;
unicode = 0054;
},
{
glyphname = U;
layers = (
{
hints = (
{
horizontal = 1;
place = "{-58, 103}";
type = Stem;
},
{
horizontal = 1;
place = "{161, 103}";
type = Stem;
},
{
horizontal = 1;
place = "{379, 103}";
type = Stem;
},
{
horizontal = 1;
place = "{597, 103}";
type = Stem;
},
{
place = "{20, 106}";
type = Stem;
},
{
place = "{244, 106}";
type = Stem;
},
{
place = "{469, 106}";
type = Stem;
},
{
horizontal = 1;
place = "{488, 103}";
type = Stem;
},
{
horizontal = 1;
place = "{270, 103}";
type = Stem;
},
{
horizontal = 1;
place = "{52, 103}";
type = Stem;
},
{
place = "{132, 106}";
type = Stem;
},
{
place = "{356, 106}";
type = Stem;
}
);
layerId = "50A2E4FD-7804-43F3-BCDE-AB93253BBBDA";
paths = (
{
closed = 1;
nodes = (
"102 597 OFFCURVE",
"126 620 OFFCURVE",
"126 649 CURVE SMOOTH",
"126 677 OFFCURVE",
"102 700 OFFCURVE",
"73 700 CURVE SMOOTH",
"43 700 OFFCURVE",
"20 677 OFFCURVE",
"20 649 CURVE SMOOTH",
"20 620 OFFCURVE",
"43 597 OFFCURVE",
"73 597 CURVE SMOOTH"
);
},
{
closed = 1;
nodes = (
"551 597 OFFCURVE",
"575 620 OFFCURVE",
"575 649 CURVE SMOOTH",
"575 677 OFFCURVE",
"551 700 OFFCURVE",
"522 700 CURVE SMOOTH",
"492 700 OFFCURVE",
"469 677 OFFCURVE",
"469 649 CURVE SMOOTH",
"469 620 OFFCURVE",
"492 597 OFFCURVE",
"522 597 CURVE SMOOTH"
);
},
{
closed = 1;
nodes = (
"102 488 OFFCURVE",
"126 511 OFFCURVE",
"126 540 CURVE SMOOTH",
"126 568 OFFCURVE",
"102 591 OFFCURVE",
"73 591 CURVE SMOOTH",
"43 591 OFFCURVE",
"20 568 OFFCURVE",
"20 540 CURVE SMOOTH",
"20 511 OFFCURVE",
"43 488 OFFCURVE",
"73 488 CURVE SMOOTH"
);
},
{
closed = 1;
nodes = (
"551 488 OFFCURVE",
"575 511 OFFCURVE",
"575 540 CURVE SMOOTH",
"575 568 OFFCURVE",
"551 591 OFFCURVE",
"522 591 CURVE SMOOTH",
"492 591 OFFCURVE",
"469 568 OFFCURVE",
"469 540 CURVE SMOOTH",
"469 511 OFFCURVE",
"492 488 OFFCURVE",
"522 488 CURVE SMOOTH"
);
},
{
closed = 1;
nodes = (
"102 379 OFFCURVE",
"126 402 OFFCURVE",
"126 431 CURVE SMOOTH",
"126 459 OFFCURVE",
"102 482 OFFCURVE",
"73 482 CURVE SMOOTH",
"43 482 OFFCURVE",
"20 459 OFFCURVE",
"20 431 CURVE SMOOTH",
"20 402 OFFCURVE",
"43 379 OFFCURVE",
"73 379 CURVE SMOOTH"
);
},
{
closed = 1;
nodes = (
"551 379 OFFCURVE",
"575 402 OFFCURVE",
"575 431 CURVE SMOOTH",
"575 459 OFFCURVE",
"551 482 OFFCURVE",
"522 482 CURVE SMOOTH",
"492 482 OFFCURVE",
"469 459 OFFCURVE",
"469 431 CURVE SMOOTH",
"469 402 OFFCURVE",
"492 379 OFFCURVE",
"522 379 CURVE SMOOTH"
);
},
{
closed = 1;
nodes = (
"102 270 OFFCURVE",
"126 293 OFFCURVE",
"126 322 CURVE SMOOTH",
"126 350 OFFCURVE",
"102 373 OFFCURVE",
"73 373 CURVE SMOOTH",
"43 373 OFFCURVE",
"20 350 OFFCURVE",
"20 322 CURVE SMOOTH",
"20 293 OFFCURVE",
"43 270 OFFCURVE",
"73 270 CURVE SMOOTH"
);
},
{
closed = 1;
nodes = (
"551 270 OFFCURVE",
"575 293 OFFCURVE",
"575 322 CURVE SMOOTH",
"575 350 OFFCURVE",
"551 373 OFFCURVE",
"522 373 CURVE SMOOTH",
"492 373 OFFCURVE",
"469 350 OFFCURVE",
"469 322 CURVE SMOOTH",
"469 293 OFFCURVE",
"492 270 OFFCURVE",
"522 270 CURVE SMOOTH"
);
},
{
closed = 1;
nodes = (
"102 161 OFFCURVE",
"126 184 OFFCURVE",
"126 213 CURVE SMOOTH",
"126 241 OFFCURVE",
"102 264 OFFCURVE",
"73 264 CURVE SMOOTH",
"43 264 OFFCURVE",
"20 241 OFFCURVE",
"20 213 CURVE SMOOTH",
"20 184 OFFCURVE",
"43 161 OFFCURVE",
"73 161 CURVE SMOOTH"
);
},
{
closed = 1;
nodes = (
"551 161 OFFCURVE",
"575 184 OFFCURVE",
"575 213 CURVE SMOOTH",
"575 241 OFFCURVE",
"551 264 OFFCURVE",
"522 264 CURVE SMOOTH",
"492 264 OFFCURVE",
"469 241 OFFCURVE",
"469 213 CURVE SMOOTH",
"469 184 OFFCURVE",
"492 161 OFFCURVE",
"522 161 CURVE SMOOTH"
);
},
{
closed = 1;
nodes = (
"102 52 OFFCURVE",
"126 75 OFFCURVE",
"126 104 CURVE SMOOTH",
"126 132 OFFCURVE",
"102 155 OFFCURVE",
"73 155 CURVE SMOOTH",
"43 155 OFFCURVE",
"20 132 OFFCURVE",
"20 104 CURVE SMOOTH",
"20 75 OFFCURVE",
"43 52 OFFCURVE",
"73 52 CURVE SMOOTH"
);
},
{
closed = 1;
nodes = (
"551 52 OFFCURVE",
"575 75 OFFCURVE",
"575 104 CURVE SMOOTH",
"575 132 OFFCURVE",
"551 155 OFFCURVE",
"522 155 CURVE SMOOTH",
"492 155 OFFCURVE",
"469 132 OFFCURVE",
"469 104 CURVE SMOOTH",
"469 75 OFFCURVE",
"492 52 OFFCURVE",
"522 52 CURVE SMOOTH"
);
},
{
closed = 1;
nodes = (
"214 -58 OFFCURVE",
"238 -35 OFFCURVE",
"238 -6 CURVE SMOOTH",
"238 22 OFFCURVE",
"214 45 OFFCURVE",
"185 45 CURVE SMOOTH",
"155 45 OFFCURVE",
"132 22 OFFCURVE",
"132 -6 CURVE SMOOTH",
"132 -35 OFFCURVE",
"155 -58 OFFCURVE",
"185 -58 CURVE SMOOTH"
);
},
{
closed = 1;
nodes = (
"326 -58 OFFCURVE",
"350 -35 OFFCURVE",
"350 -6 CURVE SMOOTH",
"350 22 OFFCURVE",
"326 45 OFFCURVE",
"297 45 CURVE SMOOTH",
"267 45 OFFCURVE",
"244 22 OFFCURVE",
"244 -6 CURVE SMOOTH",
"244 -35 OFFCURVE",
"267 -58 OFFCURVE",
"297 -58 CURVE SMOOTH"
);
},
{
closed = 1;
nodes = (
"438 -58 OFFCURVE",
"462 -35 OFFCURVE",
"462 -6 CURVE SMOOTH",
"462 22 OFFCURVE",
"438 45 OFFCURVE",
"409 45 CURVE SMOOTH",
"379 45 OFFCURVE",
"356 22 OFFCURVE",
"356 -6 CURVE SMOOTH",
"356 -35 OFFCURVE",
"379 -58 OFFCURVE",
"409 -58 CURVE SMOOTH"
);
}
);
width = 600;
}
);
note = U;
unicode = 0055;
},
{
glyphname = V;
layers = (
{
hints = (
{
horizontal = 1;
place = "{-58, 103}";
type = Stem;
},
{
horizontal = 1;
place = "{161, 103}";
type = Stem;
},
{
horizontal = 1;
place = "{379, 103}";
type = Stem;
},
{
horizontal = 1;
place = "{597, 103}";
type = Stem;
},
{
place = "{20, 106}";
type = Stem;
},
{
place = "{244, 106}";
type = Stem;
},
{
place = "{469, 106}";
type = Stem;
},
{
horizontal = 1;
place = "{488, 103}";
type = Stem;
},
{
horizontal = 1;
place = "{270, 103}";
type = Stem;
},
{
horizontal = 1;
place = "{52, 103}";
type = Stem;
},
{
place = "{132, 106}";
type = Stem;
},
{
place = "{356, 106}";
type = Stem;
}
);
layerId = "50A2E4FD-7804-43F3-BCDE-AB93253BBBDA";
paths = (
{
closed = 1;
nodes = (
"102 597 OFFCURVE",
"126 620 OFFCURVE",
"126 649 CURVE SMOOTH",
"126 677 OFFCURVE",
"102 700 OFFCURVE",
"73 700 CURVE SMOOTH",
"43 700 OFFCURVE",
"20 677 OFFCURVE",
"20 649 CURVE SMOOTH",
"20 620 OFFCURVE",
"43 597 OFFCURVE",
"73 597 CURVE SMOOTH"
);
},
{
closed = 1;
nodes = (
"551 597 OFFCURVE",
"575 620 OFFCURVE",
"575 649 CURVE SMOOTH",
"575 677 OFFCURVE",
"551 700 OFFCURVE",
"522 700 CURVE SMOOTH",
"492 700 OFFCURVE",
"469 677 OFFCURVE",
"469 649 CURVE SMOOTH",
"469 620 OFFCURVE",
"492 597 OFFCURVE",
"522 597 CURVE SMOOTH"
);
},
{
closed = 1;
nodes = (
"102 488 OFFCURVE",
"126 511 OFFCURVE",
"126 540 CURVE SMOOTH",
"126 568 OFFCURVE",
"102 591 OFFCURVE",
"73 591 CURVE SMOOTH",
"43 591 OFFCURVE",
"20 568 OFFCURVE",
"20 540 CURVE SMOOTH",
"20 511 OFFCURVE",
"43 488 OFFCURVE",
"73 488 CURVE SMOOTH"
);
},
{
closed = 1;
nodes = (
"551 488 OFFCURVE",
"575 511 OFFCURVE",
"575 540 CURVE SMOOTH",
"575 568 OFFCURVE",
"551 591 OFFCURVE",
"522 591 CURVE SMOOTH",
"492 591 OFFCURVE",
"469 568 OFFCURVE",
"469 540 CURVE SMOOTH",
"469 511 OFFCURVE",
"492 488 OFFCURVE",
"522 488 CURVE SMOOTH"
);
},
{
closed = 1;
nodes = (
"102 379 OFFCURVE",
"126 402 OFFCURVE",
"126 431 CURVE SMOOTH",
"126 459 OFFCURVE",
"102 482 OFFCURVE",
"73 482 CURVE SMOOTH",
"43 482 OFFCURVE",
"20 459 OFFCURVE",
"20 431 CURVE SMOOTH",
"20 402 OFFCURVE",
"43 379 OFFCURVE",
"73 379 CURVE SMOOTH"
);
},
{
closed = 1;
nodes = (
"551 379 OFFCURVE",
"575 402 OFFCURVE",
"575 431 CURVE SMOOTH",
"575 459 OFFCURVE",
"551 482 OFFCURVE",
"522 482 CURVE SMOOTH",
"492 482 OFFCURVE",
"469 459 OFFCURVE",
"469 431 CURVE SMOOTH",
"469 402 OFFCURVE",
"492 379 OFFCURVE",
"522 379 CURVE SMOOTH"
);
},
{
closed = 1;
nodes = (
"102 270 OFFCURVE",
"126 293 OFFCURVE",
"126 322 CURVE SMOOTH",
"126 350 OFFCURVE",
"102 373 OFFCURVE",
"73 373 CURVE SMOOTH",
"43 373 OFFCURVE",
"20 350 OFFCURVE",
"20 322 CURVE SMOOTH",
"20 293 OFFCURVE",
"43 270 OFFCURVE",
"73 270 CURVE SMOOTH"
);
},
{
closed = 1;
nodes = (
"551 270 OFFCURVE",
"575 293 OFFCURVE",
"575 322 CURVE SMOOTH",
"575 350 OFFCURVE",
"551 373 OFFCURVE",
"522 373 CURVE SMOOTH",
"492 373 OFFCURVE",
"469 350 OFFCURVE",
"469 322 CURVE SMOOTH",
"469 293 OFFCURVE",
"492 270 OFFCURVE",
"522 270 CURVE SMOOTH"
);
},
{
closed = 1;
nodes = (
"102 161 OFFCURVE",
"126 184 OFFCURVE",
"126 213 CURVE SMOOTH",
"126 241 OFFCURVE",
"102 264 OFFCURVE",
"73 264 CURVE SMOOTH",
"43 264 OFFCURVE",
"20 241 OFFCURVE",
"20 213 CURVE SMOOTH",
"20 184 OFFCURVE",
"43 161 OFFCURVE",
"73 161 CURVE SMOOTH"
);
},
{
closed = 1;
nodes = (
"551 161 OFFCURVE",
"575 184 OFFCURVE",
"575 213 CURVE SMOOTH",
"575 241 OFFCURVE",
"551 264 OFFCURVE",
"522 264 CURVE SMOOTH",
"492 264 OFFCURVE",
"469 241 OFFCURVE",
"469 213 CURVE SMOOTH",
"469 184 OFFCURVE",
"492 161 OFFCURVE",
"522 161 CURVE SMOOTH"
);
},
{
closed = 1;
nodes = (
"214 52 OFFCURVE",
"238 75 OFFCURVE",
"238 104 CURVE SMOOTH",
"238 132 OFFCURVE",
"214 155 OFFCURVE",
"185 155 CURVE SMOOTH",
"155 155 OFFCURVE",
"132 132 OFFCURVE",
"132 104 CURVE SMOOTH",
"132 75 OFFCURVE",
"155 52 OFFCURVE",
"185 52 CURVE SMOOTH"
);
},
{
closed = 1;
nodes = (
"438 52 OFFCURVE",
"462 75 OFFCURVE",
"462 104 CURVE SMOOTH",
"462 132 OFFCURVE",
"438 155 OFFCURVE",
"409 155 CURVE SMOOTH",
"379 155 OFFCURVE",
"356 132 OFFCURVE",
"356 104 CURVE SMOOTH",
"356 75 OFFCURVE",
"379 52 OFFCURVE",
"409 52 CURVE SMOOTH"
);
},
{
closed = 1;
nodes = (
"326 -58 OFFCURVE",
"350 -35 OFFCURVE",
"350 -6 CURVE SMOOTH",
"350 22 OFFCURVE",
"326 45 OFFCURVE",
"297 45 CURVE SMOOTH",
"267 45 OFFCURVE",
"244 22 OFFCURVE",
"244 -6 CURVE SMOOTH",
"244 -35 OFFCURVE",
"267 -58 OFFCURVE",
"297 -58 CURVE SMOOTH"
);
}
);
width = 600;
}
);
note = V;
unicode = 0056;
},
{
glyphname = W;
layers = (
{
hints = (
{
horizontal = 1;
place = "{52, 103}";
type = Stem;
},
{
horizontal = 1;
place = "{270, 103}";
type = Stem;
},
{
horizontal = 1;
place = "{597, 103}";
type = Stem;
},
{
place = "{20, 106}";
type = Stem;
},
{
place = "{244, 106}";
type = Stem;
},
{
place = "{469, 106}";
type = Stem;
},
{
horizontal = 1;
place = "{488, 103}";
type = Stem;
},
{
horizontal = 1;
place = "{379, 103}";
type = Stem;
},
{
horizontal = 1;
place = "{161, 103}";
type = Stem;
},
{
place = "{132, 106}";
type = Stem;
},
{
place = "{356, 106}";
type = Stem;
},
{
horizontal = 1;
place = "{-58, 103}";
type = Stem;
}
);
layerId = "50A2E4FD-7804-43F3-BCDE-AB93253BBBDA";
paths = (
{
closed = 1;
nodes = (
"102 597 OFFCURVE",
"126 620 OFFCURVE",
"126 649 CURVE SMOOTH",
"126 677 OFFCURVE",
"102 700 OFFCURVE",
"73 700 CURVE SMOOTH",
"43 700 OFFCURVE",
"20 677 OFFCURVE",
"20 649 CURVE SMOOTH",
"20 620 OFFCURVE",
"43 597 OFFCURVE",
"73 597 CURVE SMOOTH"
);
},
{
closed = 1;
nodes = (
"551 597 OFFCURVE",
"575 620 OFFCURVE",
"575 649 CURVE SMOOTH",
"575 677 OFFCURVE",
"551 700 OFFCURVE",
"522 700 CURVE SMOOTH",
"492 700 OFFCURVE",
"469 677 OFFCURVE",
"469 649 CURVE SMOOTH",
"469 620 OFFCURVE",
"492 597 OFFCURVE",
"522 597 CURVE SMOOTH"
);
},
{
closed = 1;
nodes = (
"102 488 OFFCURVE",
"126 511 OFFCURVE",
"126 540 CURVE SMOOTH",
"126 568 OFFCURVE",
"102 591 OFFCURVE",
"73 591 CURVE SMOOTH",
"43 591 OFFCURVE",
"20 568 OFFCURVE",
"20 540 CURVE SMOOTH",
"20 511 OFFCURVE",
"43 488 OFFCURVE",
"73 488 CURVE SMOOTH"
);
},
{
closed = 1;
nodes = (
"551 488 OFFCURVE",
"575 511 OFFCURVE",
"575 540 CURVE SMOOTH",
"575 568 OFFCURVE",
"551 591 OFFCURVE",
"522 591 CURVE SMOOTH",
"492 591 OFFCURVE",
"469 568 OFFCURVE",
"469 540 CURVE SMOOTH",
"469 511 OFFCURVE",
"492 488 OFFCURVE",
"522 488 CURVE SMOOTH"
);
},
{
closed = 1;
nodes = (
"102 379 OFFCURVE",
"126 402 OFFCURVE",
"126 431 CURVE SMOOTH",
"126 459 OFFCURVE",
"102 482 OFFCURVE",
"73 482 CURVE SMOOTH",
"43 482 OFFCURVE",
"20 459 OFFCURVE",
"20 431 CURVE SMOOTH",
"20 402 OFFCURVE",
"43 379 OFFCURVE",
"73 379 CURVE SMOOTH"
);
},
{
closed = 1;
nodes = (
"551 379 OFFCURVE",
"575 402 OFFCURVE",
"575 431 CURVE SMOOTH",
"575 459 OFFCURVE",
"551 482 OFFCURVE",
"522 482 CURVE SMOOTH",
"492 482 OFFCURVE",
"469 459 OFFCURVE",
"469 431 CURVE SMOOTH",
"469 402 OFFCURVE",
"492 379 OFFCURVE",
"522 379 CURVE SMOOTH"
);
},
{
closed = 1;
nodes = (
"102 270 OFFCURVE",
"126 293 OFFCURVE",
"126 322 CURVE SMOOTH",
"126 350 OFFCURVE",
"102 373 OFFCURVE",
"73 373 CURVE SMOOTH",
"43 373 OFFCURVE",
"20 350 OFFCURVE",
"20 322 CURVE SMOOTH",
"20 293 OFFCURVE",
"43 270 OFFCURVE",
"73 270 CURVE SMOOTH"
);
},
{
closed = 1;
nodes = (
"326 270 OFFCURVE",
"350 293 OFFCURVE",
"350 322 CURVE SMOOTH",
"350 350 OFFCURVE",
"326 373 OFFCURVE",
"297 373 CURVE SMOOTH",
"267 373 OFFCURVE",
"244 350 OFFCURVE",
"244 322 CURVE SMOOTH",
"244 293 OFFCURVE",
"267 270 OFFCURVE",
"297 270 CURVE SMOOTH"
);
},
{
closed = 1;
nodes = (
"551 270 OFFCURVE",
"575 293 OFFCURVE",
"575 322 CURVE SMOOTH",
"575 350 OFFCURVE",
"551 373 OFFCURVE",
"522 373 CURVE SMOOTH",
"492 373 OFFCURVE",
"469 350 OFFCURVE",
"469 322 CURVE SMOOTH",
"469 293 OFFCURVE",
"492 270 OFFCURVE",
"522 270 CURVE SMOOTH"
);
},
{
closed = 1;
nodes = (
"102 161 OFFCURVE",
"126 184 OFFCURVE",
"126 213 CURVE SMOOTH",
"126 241 OFFCURVE",
"102 264 OFFCURVE",
"73 264 CURVE SMOOTH",
"43 264 OFFCURVE",
"20 241 OFFCURVE",
"20 213 CURVE SMOOTH",
"20 184 OFFCURVE",
"43 161 OFFCURVE",
"73 161 CURVE SMOOTH"
);
},
{
closed = 1;
nodes = (
"326 161 OFFCURVE",
"350 184 OFFCURVE",
"350 213 CURVE SMOOTH",
"350 241 OFFCURVE",
"326 264 OFFCURVE",
"297 264 CURVE SMOOTH",
"267 264 OFFCURVE",
"244 241 OFFCURVE",
"244 213 CURVE SMOOTH",
"244 184 OFFCURVE",
"267 161 OFFCURVE",
"297 161 CURVE SMOOTH"
);
},
{
closed = 1;
nodes = (
"551 161 OFFCURVE",
"575 184 OFFCURVE",
"575 213 CURVE SMOOTH",
"575 241 OFFCURVE",
"551 264 OFFCURVE",
"522 264 CURVE SMOOTH",
"492 264 OFFCURVE",
"469 241 OFFCURVE",
"469 213 CURVE SMOOTH",
"469 184 OFFCURVE",
"492 161 OFFCURVE",
"522 161 CURVE SMOOTH"
);
},
{
closed = 1;
nodes = (
"102 52 OFFCURVE",
"126 75 OFFCURVE",
"126 104 CURVE SMOOTH",
"126 132 OFFCURVE",
"102 155 OFFCURVE",
"73 155 CURVE SMOOTH",
"43 155 OFFCURVE",
"20 132 OFFCURVE",
"20 104 CURVE SMOOTH",
"20 75 OFFCURVE",
"43 52 OFFCURVE",
"73 52 CURVE SMOOTH"
);
},
{
closed = 1;
nodes = (
"214 52 OFFCURVE",
"238 75 OFFCURVE",
"238 104 CURVE SMOOTH",
"238 132 OFFCURVE",
"214 155 OFFCURVE",
"185 155 CURVE SMOOTH",
"155 155 OFFCURVE",
"132 132 OFFCURVE",
"132 104 CURVE SMOOTH",
"132 75 OFFCURVE",
"155 52 OFFCURVE",
"185 52 CURVE SMOOTH"
);
},
{
closed = 1;
nodes = (
"438 52 OFFCURVE",
"462 75 OFFCURVE",
"462 104 CURVE SMOOTH",
"462 132 OFFCURVE",
"438 155 OFFCURVE",
"409 155 CURVE SMOOTH",
"379 155 OFFCURVE",
"356 132 OFFCURVE",
"356 104 CURVE SMOOTH",
"356 75 OFFCURVE",
"379 52 OFFCURVE",
"409 52 CURVE SMOOTH"
);
},
{
closed = 1;
nodes = (
"551 52 OFFCURVE",
"575 75 OFFCURVE",
"575 104 CURVE SMOOTH",
"575 132 OFFCURVE",
"551 155 OFFCURVE",
"522 155 CURVE SMOOTH",
"492 155 OFFCURVE",
"469 132 OFFCURVE",
"469 104 CURVE SMOOTH",
"469 75 OFFCURVE",
"492 52 OFFCURVE",
"522 52 CURVE SMOOTH"
);
},
{
closed = 1;
nodes = (
"102 -58 OFFCURVE",
"126 -35 OFFCURVE",
"126 -6 CURVE SMOOTH",
"126 22 OFFCURVE",
"102 45 OFFCURVE",
"73 45 CURVE SMOOTH",
"43 45 OFFCURVE",
"20 22 OFFCURVE",
"20 -6 CURVE SMOOTH",
"20 -35 OFFCURVE",
"43 -58 OFFCURVE",
"73 -58 CURVE SMOOTH"
);
},
{
closed = 1;
nodes = (
"551 -58 OFFCURVE",
"575 -35 OFFCURVE",
"575 -6 CURVE SMOOTH",
"575 22 OFFCURVE",
"551 45 OFFCURVE",
"522 45 CURVE SMOOTH",
"492 45 OFFCURVE",
"469 22 OFFCURVE",
"469 -6 CURVE SMOOTH",
"469 -35 OFFCURVE",
"492 -58 OFFCURVE",
"522 -58 CURVE SMOOTH"
);
}
);
width = 600;
}
);
note = W;
unicode = 0057;
},
{
glyphname = X;
layers = (
{
hints = (
{
horizontal = 1;
place = "{-58, 103}";
type = Stem;
},
{
horizontal = 1;
place = "{161, 103}";
type = Stem;
},
{
horizontal = 1;
place = "{379, 103}";
type = Stem;
},
{
horizontal = 1;
place = "{597, 103}";
type = Stem;
},
{
place = "{20, 106}";
type = Stem;
},
{
place = "{244, 106}";
type = Stem;
},
{
place = "{469, 106}";
type = Stem;
},
{
horizontal = 1;
place = "{488, 103}";
type = Stem;
},
{
place = "{132, 106}";
type = Stem;
},
{
place = "{356, 106}";
type = Stem;
},
{
horizontal = 1;
place = "{270, 103}";
type = Stem;
},
{
horizontal = 1;
place = "{52, 103}";
type = Stem;
}
);
layerId = "50A2E4FD-7804-43F3-BCDE-AB93253BBBDA";
paths = (
{
closed = 1;
nodes = (
"102 597 OFFCURVE",
"126 620 OFFCURVE",
"126 649 CURVE SMOOTH",
"126 677 OFFCURVE",
"102 700 OFFCURVE",
"73 700 CURVE SMOOTH",
"43 700 OFFCURVE",
"20 677 OFFCURVE",
"20 649 CURVE SMOOTH",
"20 620 OFFCURVE",
"43 597 OFFCURVE",
"73 597 CURVE SMOOTH"
);
},
{
closed = 1;
nodes = (
"551 597 OFFCURVE",
"575 620 OFFCURVE",
"575 649 CURVE SMOOTH",
"575 677 OFFCURVE",
"551 700 OFFCURVE",
"522 700 CURVE SMOOTH",
"492 700 OFFCURVE",
"469 677 OFFCURVE",
"469 649 CURVE SMOOTH",
"469 620 OFFCURVE",
"492 597 OFFCURVE",
"522 597 CURVE SMOOTH"
);
},
{
closed = 1;
nodes = (
"102 488 OFFCURVE",
"126 511 OFFCURVE",
"126 540 CURVE SMOOTH",
"126 568 OFFCURVE",
"102 591 OFFCURVE",
"73 591 CURVE SMOOTH",
"43 591 OFFCURVE",
"20 568 OFFCURVE",
"20 540 CURVE SMOOTH",
"20 511 OFFCURVE",
"43 488 OFFCURVE",
"73 488 CURVE SMOOTH"
);
},
{
closed = 1;
nodes = (
"551 488 OFFCURVE",
"575 511 OFFCURVE",
"575 540 CURVE SMOOTH",
"575 568 OFFCURVE",
"551 591 OFFCURVE",
"522 591 CURVE SMOOTH",
"492 591 OFFCURVE",
"469 568 OFFCURVE",
"469 540 CURVE SMOOTH",
"469 511 OFFCURVE",
"492 488 OFFCURVE",
"522 488 CURVE SMOOTH"
);
},
{
closed = 1;
nodes = (
"214 379 OFFCURVE",
"238 402 OFFCURVE",
"238 431 CURVE SMOOTH",
"238 459 OFFCURVE",
"214 482 OFFCURVE",
"185 482 CURVE SMOOTH",
"155 482 OFFCURVE",
"132 459 OFFCURVE",
"132 431 CURVE SMOOTH",
"132 402 OFFCURVE",
"155 379 OFFCURVE",
"185 379 CURVE SMOOTH"
);
},
{
closed = 1;
nodes = (
"438 379 OFFCURVE",
"462 402 OFFCURVE",
"462 431 CURVE SMOOTH",
"462 459 OFFCURVE",
"438 482 OFFCURVE",
"409 482 CURVE SMOOTH",
"379 482 OFFCURVE",
"356 459 OFFCURVE",
"356 431 CURVE SMOOTH",
"356 402 OFFCURVE",
"379 379 OFFCURVE",
"409 379 CURVE SMOOTH"
);
},
{
closed = 1;
nodes = (
"326 270 OFFCURVE",
"350 293 OFFCURVE",
"350 322 CURVE SMOOTH",
"350 350 OFFCURVE",
"326 373 OFFCURVE",
"297 373 CURVE SMOOTH",
"267 373 OFFCURVE",
"244 350 OFFCURVE",
"244 322 CURVE SMOOTH",
"244 293 OFFCURVE",
"267 270 OFFCURVE",
"297 270 CURVE SMOOTH"
);
},
{
closed = 1;
nodes = (
"214 161 OFFCURVE",
"238 184 OFFCURVE",
"238 213 CURVE SMOOTH",
"238 241 OFFCURVE",
"214 264 OFFCURVE",
"185 264 CURVE SMOOTH",
"155 264 OFFCURVE",
"132 241 OFFCURVE",
"132 213 CURVE SMOOTH",
"132 184 OFFCURVE",
"155 161 OFFCURVE",
"185 161 CURVE SMOOTH"
);
},
{
closed = 1;
nodes = (
"438 161 OFFCURVE",
"462 184 OFFCURVE",
"462 213 CURVE SMOOTH",
"462 241 OFFCURVE",
"438 264 OFFCURVE",
"409 264 CURVE SMOOTH",
"379 264 OFFCURVE",
"356 241 OFFCURVE",
"356 213 CURVE SMOOTH",
"356 184 OFFCURVE",
"379 161 OFFCURVE",
"409 161 CURVE SMOOTH"
);
},
{
closed = 1;
nodes = (
"102 52 OFFCURVE",
"126 75 OFFCURVE",
"126 104 CURVE SMOOTH",
"126 132 OFFCURVE",
"102 155 OFFCURVE",
"73 155 CURVE SMOOTH",
"43 155 OFFCURVE",
"20 132 OFFCURVE",
"20 104 CURVE SMOOTH",
"20 75 OFFCURVE",
"43 52 OFFCURVE",
"73 52 CURVE SMOOTH"
);
},
{
closed = 1;
nodes = (
"551 52 OFFCURVE",
"575 75 OFFCURVE",
"575 104 CURVE SMOOTH",
"575 132 OFFCURVE",
"551 155 OFFCURVE",
"522 155 CURVE SMOOTH",
"492 155 OFFCURVE",
"469 132 OFFCURVE",
"469 104 CURVE SMOOTH",
"469 75 OFFCURVE",
"492 52 OFFCURVE",
"522 52 CURVE SMOOTH"
);
},
{
closed = 1;
nodes = (
"102 -58 OFFCURVE",
"126 -35 OFFCURVE",
"126 -6 CURVE SMOOTH",
"126 22 OFFCURVE",
"102 45 OFFCURVE",
"73 45 CURVE SMOOTH",
"43 45 OFFCURVE",
"20 22 OFFCURVE",
"20 -6 CURVE SMOOTH",
"20 -35 OFFCURVE",
"43 -58 OFFCURVE",
"73 -58 CURVE SMOOTH"
);
},
{
closed = 1;
nodes = (
"551 -58 OFFCURVE",
"575 -35 OFFCURVE",
"575 -6 CURVE SMOOTH",
"575 22 OFFCURVE",
"551 45 OFFCURVE",
"522 45 CURVE SMOOTH",
"492 45 OFFCURVE",
"469 22 OFFCURVE",
"469 -6 CURVE SMOOTH",
"469 -35 OFFCURVE",
"492 -58 OFFCURVE",
"522 -58 CURVE SMOOTH"
);
}
);
width = 600;
}
);
note = X;
unicode = 0058;
},
{
glyphname = Y;
layers = (
{
hints = (
{
horizontal = 1;
place = "{-58, 103}";
type = Stem;
},
{
horizontal = 1;
place = "{161, 103}";
type = Stem;
},
{
horizontal = 1;
place = "{379, 103}";
type = Stem;
},
{
horizontal = 1;
place = "{597, 103}";
type = Stem;
},
{
place = "{20, 106}";
type = Stem;
},
{
place = "{244, 106}";
type = Stem;
},
{
place = "{469, 106}";
type = Stem;
},
{
horizontal = 1;
place = "{488, 103}";
type = Stem;
},
{
horizontal = 1;
place = "{270, 103}";
type = Stem;
},
{
place = "{132, 106}";
type = Stem;
},
{
place = "{356, 106}";
type = Stem;
},
{
horizontal = 1;
place = "{52, 103}";
type = Stem;
}
);
layerId = "50A2E4FD-7804-43F3-BCDE-AB93253BBBDA";
paths = (
{
closed = 1;
nodes = (
"102 597 OFFCURVE",
"126 620 OFFCURVE",
"126 649 CURVE SMOOTH",
"126 677 OFFCURVE",
"102 700 OFFCURVE",
"73 700 CURVE SMOOTH",
"43 700 OFFCURVE",
"20 677 OFFCURVE",
"20 649 CURVE SMOOTH",
"20 620 OFFCURVE",
"43 597 OFFCURVE",
"73 597 CURVE SMOOTH"
);
},
{
closed = 1;
nodes = (
"551 597 OFFCURVE",
"575 620 OFFCURVE",
"575 649 CURVE SMOOTH",
"575 677 OFFCURVE",
"551 700 OFFCURVE",
"522 700 CURVE SMOOTH",
"492 700 OFFCURVE",
"469 677 OFFCURVE",
"469 649 CURVE SMOOTH",
"469 620 OFFCURVE",
"492 597 OFFCURVE",
"522 597 CURVE SMOOTH"
);
},
{
closed = 1;
nodes = (
"102 488 OFFCURVE",
"126 511 OFFCURVE",
"126 540 CURVE SMOOTH",
"126 568 OFFCURVE",
"102 591 OFFCURVE",
"73 591 CURVE SMOOTH",
"43 591 OFFCURVE",
"20 568 OFFCURVE",
"20 540 CURVE SMOOTH",
"20 511 OFFCURVE",
"43 488 OFFCURVE",
"73 488 CURVE SMOOTH"
);
},
{
closed = 1;
nodes = (
"551 488 OFFCURVE",
"575 511 OFFCURVE",
"575 540 CURVE SMOOTH",
"575 568 OFFCURVE",
"551 591 OFFCURVE",
"522 591 CURVE SMOOTH",
"492 591 OFFCURVE",
"469 568 OFFCURVE",
"469 540 CURVE SMOOTH",
"469 511 OFFCURVE",
"492 488 OFFCURVE",
"522 488 CURVE SMOOTH"
);
},
{
closed = 1;
nodes = (
"102 379 OFFCURVE",
"126 402 OFFCURVE",
"126 431 CURVE SMOOTH",
"126 459 OFFCURVE",
"102 482 OFFCURVE",
"73 482 CURVE SMOOTH",
"43 482 OFFCURVE",
"20 459 OFFCURVE",
"20 431 CURVE SMOOTH",
"20 402 OFFCURVE",
"43 379 OFFCURVE",
"73 379 CURVE SMOOTH"
);
},
{
closed = 1;
nodes = (
"551 379 OFFCURVE",
"575 402 OFFCURVE",
"575 431 CURVE SMOOTH",
"575 459 OFFCURVE",
"551 482 OFFCURVE",
"522 482 CURVE SMOOTH",
"492 482 OFFCURVE",
"469 459 OFFCURVE",
"469 431 CURVE SMOOTH",
"469 402 OFFCURVE",
"492 379 OFFCURVE",
"522 379 CURVE SMOOTH"
);
},
{
closed = 1;
nodes = (
"214 270 OFFCURVE",
"238 293 OFFCURVE",
"238 322 CURVE SMOOTH",
"238 350 OFFCURVE",
"214 373 OFFCURVE",
"185 373 CURVE SMOOTH",
"155 373 OFFCURVE",
"132 350 OFFCURVE",
"132 322 CURVE SMOOTH",
"132 293 OFFCURVE",
"155 270 OFFCURVE",
"185 270 CURVE SMOOTH"
);
},
{
closed = 1;
nodes = (
"438 270 OFFCURVE",
"462 293 OFFCURVE",
"462 322 CURVE SMOOTH",
"462 350 OFFCURVE",
"438 373 OFFCURVE",
"409 373 CURVE SMOOTH",
"379 373 OFFCURVE",
"356 350 OFFCURVE",
"356 322 CURVE SMOOTH",
"356 293 OFFCURVE",
"379 270 OFFCURVE",
"409 270 CURVE SMOOTH"
);
},
{
closed = 1;
nodes = (
"326 161 OFFCURVE",
"350 184 OFFCURVE",
"350 213 CURVE SMOOTH",
"350 241 OFFCURVE",
"326 264 OFFCURVE",
"297 264 CURVE SMOOTH",
"267 264 OFFCURVE",
"244 241 OFFCURVE",
"244 213 CURVE SMOOTH",
"244 184 OFFCURVE",
"267 161 OFFCURVE",
"297 161 CURVE SMOOTH"
);
},
{
closed = 1;
nodes = (
"326 52 OFFCURVE",
"350 75 OFFCURVE",
"350 104 CURVE SMOOTH",
"350 132 OFFCURVE",
"326 155 OFFCURVE",
"297 155 CURVE SMOOTH",
"267 155 OFFCURVE",
"244 132 OFFCURVE",
"244 104 CURVE SMOOTH",
"244 75 OFFCURVE",
"267 52 OFFCURVE",
"297 52 CURVE SMOOTH"
);
},
{
closed = 1;
nodes = (
"326 -58 OFFCURVE",
"350 -35 OFFCURVE",
"350 -6 CURVE SMOOTH",
"350 22 OFFCURVE",
"326 45 OFFCURVE",
"297 45 CURVE SMOOTH",
"267 45 OFFCURVE",
"244 22 OFFCURVE",
"244 -6 CURVE SMOOTH",
"244 -35 OFFCURVE",
"267 -58 OFFCURVE",
"297 -58 CURVE SMOOTH"
);
}
);
width = 600;
}
);
note = Y;
unicode = 0059;
},
{
glyphname = Z;
layers = (
{
hints = (
{
horizontal = 1;
place = "{-58, 103}";
type = Stem;
},
{
horizontal = 1;
place = "{161, 103}";
type = Stem;
},
{
horizontal = 1;
place = "{379, 103}";
type = Stem;
},
{
horizontal = 1;
place = "{597, 103}";
type = Stem;
},
{
place = "{20, 106}";
type = Stem;
},
{
place = "{244, 106}";
type = Stem;
},
{
place = "{469, 106}";
type = Stem;
},
{
place = "{132, 106}";
type = Stem;
},
{
place = "{356, 106}";
type = Stem;
},
{
horizontal = 1;
place = "{488, 103}";
type = Stem;
},
{
horizontal = 1;
place = "{270, 103}";
type = Stem;
},
{
horizontal = 1;
place = "{52, 103}";
type = Stem;
}
);
layerId = "50A2E4FD-7804-43F3-BCDE-AB93253BBBDA";
paths = (
{
closed = 1;
nodes = (
"102 597 OFFCURVE",
"126 620 OFFCURVE",
"126 649 CURVE SMOOTH",
"126 677 OFFCURVE",
"102 700 OFFCURVE",
"73 700 CURVE SMOOTH",
"43 700 OFFCURVE",
"20 677 OFFCURVE",
"20 649 CURVE SMOOTH",
"20 620 OFFCURVE",
"43 597 OFFCURVE",
"73 597 CURVE SMOOTH"
);
},
{
closed = 1;
nodes = (
"214 597 OFFCURVE",
"238 620 OFFCURVE",
"238 649 CURVE SMOOTH",
"238 677 OFFCURVE",
"214 700 OFFCURVE",
"185 700 CURVE SMOOTH",
"155 700 OFFCURVE",
"132 677 OFFCURVE",
"132 649 CURVE SMOOTH",
"132 620 OFFCURVE",
"155 597 OFFCURVE",
"185 597 CURVE SMOOTH"
);
},
{
closed = 1;
nodes = (
"326 597 OFFCURVE",
"350 620 OFFCURVE",
"350 649 CURVE SMOOTH",
"350 677 OFFCURVE",
"326 700 OFFCURVE",
"297 700 CURVE SMOOTH",
"267 700 OFFCURVE",
"244 677 OFFCURVE",
"244 649 CURVE SMOOTH",
"244 620 OFFCURVE",
"267 597 OFFCURVE",
"297 597 CURVE SMOOTH"
);
},
{
closed = 1;
nodes = (
"438 597 OFFCURVE",
"462 620 OFFCURVE",
"462 649 CURVE SMOOTH",
"462 677 OFFCURVE",
"438 700 OFFCURVE",
"409 700 CURVE SMOOTH",
"379 700 OFFCURVE",
"356 677 OFFCURVE",
"356 649 CURVE SMOOTH",
"356 620 OFFCURVE",
"379 597 OFFCURVE",
"409 597 CURVE SMOOTH"
);
},
{
closed = 1;
nodes = (
"551 597 OFFCURVE",
"575 620 OFFCURVE",
"575 649 CURVE SMOOTH",
"575 677 OFFCURVE",
"551 700 OFFCURVE",
"522 700 CURVE SMOOTH",
"492 700 OFFCURVE",
"469 677 OFFCURVE",
"469 649 CURVE SMOOTH",
"469 620 OFFCURVE",
"492 597 OFFCURVE",
"522 597 CURVE SMOOTH"
);
},
{
closed = 1;
nodes = (
"551 488 OFFCURVE",
"575 511 OFFCURVE",
"575 540 CURVE SMOOTH",
"575 568 OFFCURVE",
"551 591 OFFCURVE",
"522 591 CURVE SMOOTH",
"492 591 OFFCURVE",
"469 568 OFFCURVE",
"469 540 CURVE SMOOTH",
"469 511 OFFCURVE",
"492 488 OFFCURVE",
"522 488 CURVE SMOOTH"
);
},
{
closed = 1;
nodes = (
"438 379 OFFCURVE",
"462 402 OFFCURVE",
"462 431 CURVE SMOOTH",
"462 459 OFFCURVE",
"438 482 OFFCURVE",
"409 482 CURVE SMOOTH",
"379 482 OFFCURVE",
"356 459 OFFCURVE",
"356 431 CURVE SMOOTH",
"356 402 OFFCURVE",
"379 379 OFFCURVE",
"409 379 CURVE SMOOTH"
);
},
{
closed = 1;
nodes = (
"326 270 OFFCURVE",
"350 293 OFFCURVE",
"350 322 CURVE SMOOTH",
"350 350 OFFCURVE",
"326 373 OFFCURVE",
"297 373 CURVE SMOOTH",
"267 373 OFFCURVE",
"244 350 OFFCURVE",
"244 322 CURVE SMOOTH",
"244 293 OFFCURVE",
"267 270 OFFCURVE",
"297 270 CURVE SMOOTH"
);
},
{
closed = 1;
nodes = (
"214 161 OFFCURVE",
"238 184 OFFCURVE",
"238 213 CURVE SMOOTH",
"238 241 OFFCURVE",
"214 264 OFFCURVE",
"185 264 CURVE SMOOTH",
"155 264 OFFCURVE",
"132 241 OFFCURVE",
"132 213 CURVE SMOOTH",
"132 184 OFFCURVE",
"155 161 OFFCURVE",
"185 161 CURVE SMOOTH"
);
},
{
closed = 1;
nodes = (
"102 52 OFFCURVE",
"126 75 OFFCURVE",
"126 104 CURVE SMOOTH",
"126 132 OFFCURVE",
"102 155 OFFCURVE",
"73 155 CURVE SMOOTH",
"43 155 OFFCURVE",
"20 132 OFFCURVE",
"20 104 CURVE SMOOTH",
"20 75 OFFCURVE",
"43 52 OFFCURVE",
"73 52 CURVE SMOOTH"
);
},
{
closed = 1;
nodes = (
"102 -58 OFFCURVE",
"126 -35 OFFCURVE",
"126 -6 CURVE SMOOTH",
"126 22 OFFCURVE",
"102 45 OFFCURVE",
"73 45 CURVE SMOOTH",
"43 45 OFFCURVE",
"20 22 OFFCURVE",
"20 -6 CURVE SMOOTH",
"20 -35 OFFCURVE",
"43 -58 OFFCURVE",
"73 -58 CURVE SMOOTH"
);
},
{
closed = 1;
nodes = (
"214 -58 OFFCURVE",
"238 -35 OFFCURVE",
"238 -6 CURVE SMOOTH",
"238 22 OFFCURVE",
"214 45 OFFCURVE",
"185 45 CURVE SMOOTH",
"155 45 OFFCURVE",
"132 22 OFFCURVE",
"132 -6 CURVE SMOOTH",
"132 -35 OFFCURVE",
"155 -58 OFFCURVE",
"185 -58 CURVE SMOOTH"
);
},
{
closed = 1;
nodes = (
"326 -58 OFFCURVE",
"350 -35 OFFCURVE",
"350 -6 CURVE SMOOTH",
"350 22 OFFCURVE",
"326 45 OFFCURVE",
"297 45 CURVE SMOOTH",
"267 45 OFFCURVE",
"244 22 OFFCURVE",
"244 -6 CURVE SMOOTH",
"244 -35 OFFCURVE",
"267 -58 OFFCURVE",
"297 -58 CURVE SMOOTH"
);
},
{
closed = 1;
nodes = (
"438 -58 OFFCURVE",
"462 -35 OFFCURVE",
"462 -6 CURVE SMOOTH",
"462 22 OFFCURVE",
"438 45 OFFCURVE",
"409 45 CURVE SMOOTH",
"379 45 OFFCURVE",
"356 22 OFFCURVE",
"356 -6 CURVE SMOOTH",
"356 -35 OFFCURVE",
"379 -58 OFFCURVE",
"409 -58 CURVE SMOOTH"
);
},
{
closed = 1;
nodes = (
"551 -58 OFFCURVE",
"575 -35 OFFCURVE",
"575 -6 CURVE SMOOTH",
"575 22 OFFCURVE",
"551 45 OFFCURVE",
"522 45 CURVE SMOOTH",
"492 45 OFFCURVE",
"469 22 OFFCURVE",
"469 -6 CURVE SMOOTH",
"469 -35 OFFCURVE",
"492 -58 OFFCURVE",
"522 -58 CURVE SMOOTH"
);
}
);
width = 600;
}
);
note = Z;
unicode = 005A;
},
{
glyphname = a;
layers = (
{
hints = (
{
horizontal = 1;
place = "{597, 103}";
type = Stem;
},
{
place = "{132, 106}";
type = Stem;
},
{
place = "{244, 106}";
type = Stem;
},
{
place = "{356, 106}";
type = Stem;
},
{
horizontal = 1;
place = "{488, 103}";
type = Stem;
},
{
place = "{20, 106}";
type = Stem;
},
{
place = "{469, 106}";
type = Stem;
},
{
horizontal = 1;
place = "{379, 103}";
type = Stem;
},
{
horizontal = 1;
place = "{270, 103}";
type = Stem;
},
{
horizontal = 1;
place = "{161, 103}";
type = Stem;
},
{
horizontal = 1;
place = "{52, 103}";
type = Stem;
},
{
horizontal = 1;
place = "{-58, 103}";
type = Stem;
}
);
layerId = "50A2E4FD-7804-43F3-BCDE-AB93253BBBDA";
paths = (
{
closed = 1;
nodes = (
"214 597 OFFCURVE",
"238 620 OFFCURVE",
"238 649 CURVE SMOOTH",
"238 677 OFFCURVE",
"214 700 OFFCURVE",
"185 700 CURVE SMOOTH",
"155 700 OFFCURVE",
"132 677 OFFCURVE",
"132 649 CURVE SMOOTH",
"132 620 OFFCURVE",
"155 597 OFFCURVE",
"185 597 CURVE SMOOTH"
);
},
{
closed = 1;
nodes = (
"326 597 OFFCURVE",
"350 620 OFFCURVE",
"350 649 CURVE SMOOTH",
"350 677 OFFCURVE",
"326 700 OFFCURVE",
"297 700 CURVE SMOOTH",
"267 700 OFFCURVE",
"244 677 OFFCURVE",
"244 649 CURVE SMOOTH",
"244 620 OFFCURVE",
"267 597 OFFCURVE",
"297 597 CURVE SMOOTH"
);
},
{
closed = 1;
nodes = (
"438 597 OFFCURVE",
"462 620 OFFCURVE",
"462 649 CURVE SMOOTH",
"462 677 OFFCURVE",
"438 700 OFFCURVE",
"409 700 CURVE SMOOTH",
"379 700 OFFCURVE",
"356 677 OFFCURVE",
"356 649 CURVE SMOOTH",
"356 620 OFFCURVE",
"379 597 OFFCURVE",
"409 597 CURVE SMOOTH"
);
},
{
closed = 1;
nodes = (
"102 488 OFFCURVE",
"126 511 OFFCURVE",
"126 540 CURVE SMOOTH",
"126 568 OFFCURVE",
"102 591 OFFCURVE",
"73 591 CURVE SMOOTH",
"43 591 OFFCURVE",
"20 568 OFFCURVE",
"20 540 CURVE SMOOTH",
"20 511 OFFCURVE",
"43 488 OFFCURVE",
"73 488 CURVE SMOOTH"
);
},
{
closed = 1;
nodes = (
"551 488 OFFCURVE",
"575 511 OFFCURVE",
"575 540 CURVE SMOOTH",
"575 568 OFFCURVE",
"551 591 OFFCURVE",
"522 591 CURVE SMOOTH",
"492 591 OFFCURVE",
"469 568 OFFCURVE",
"469 540 CURVE SMOOTH",
"469 511 OFFCURVE",
"492 488 OFFCURVE",
"522 488 CURVE SMOOTH"
);
},
{
closed = 1;
nodes = (
"102 379 OFFCURVE",
"126 402 OFFCURVE",
"126 431 CURVE SMOOTH",
"126 459 OFFCURVE",
"102 482 OFFCURVE",
"73 482 CURVE SMOOTH",
"43 482 OFFCURVE",
"20 459 OFFCURVE",
"20 431 CURVE SMOOTH",
"20 402 OFFCURVE",
"43 379 OFFCURVE",
"73 379 CURVE SMOOTH"
);
},
{
closed = 1;
nodes = (
"551 379 OFFCURVE",
"575 402 OFFCURVE",
"575 431 CURVE SMOOTH",
"575 459 OFFCURVE",
"551 482 OFFCURVE",
"522 482 CURVE SMOOTH",
"492 482 OFFCURVE",
"469 459 OFFCURVE",
"469 431 CURVE SMOOTH",
"469 402 OFFCURVE",
"492 379 OFFCURVE",
"522 379 CURVE SMOOTH"
);
},
{
closed = 1;
nodes = (
"102 270 OFFCURVE",
"126 293 OFFCURVE",
"126 322 CURVE SMOOTH",
"126 350 OFFCURVE",
"102 373 OFFCURVE",
"73 373 CURVE SMOOTH",
"43 373 OFFCURVE",
"20 350 OFFCURVE",
"20 322 CURVE SMOOTH",
"20 293 OFFCURVE",
"43 270 OFFCURVE",
"73 270 CURVE SMOOTH"
);
},
{
closed = 1;
nodes = (
"214 270 OFFCURVE",
"238 293 OFFCURVE",
"238 322 CURVE SMOOTH",
"238 350 OFFCURVE",
"214 373 OFFCURVE",
"185 373 CURVE SMOOTH",
"155 373 OFFCURVE",
"132 350 OFFCURVE",
"132 322 CURVE SMOOTH",
"132 293 OFFCURVE",
"155 270 OFFCURVE",
"185 270 CURVE SMOOTH"
);
},
{
closed = 1;
nodes = (
"326 270 OFFCURVE",
"350 293 OFFCURVE",
"350 322 CURVE SMOOTH",
"350 350 OFFCURVE",
"326 373 OFFCURVE",
"297 373 CURVE SMOOTH",
"267 373 OFFCURVE",
"244 350 OFFCURVE",
"244 322 CURVE SMOOTH",
"244 293 OFFCURVE",
"267 270 OFFCURVE",
"297 270 CURVE SMOOTH"
);
},
{
closed = 1;
nodes = (
"438 270 OFFCURVE",
"462 293 OFFCURVE",
"462 322 CURVE SMOOTH",
"462 350 OFFCURVE",
"438 373 OFFCURVE",
"409 373 CURVE SMOOTH",
"379 373 OFFCURVE",
"356 350 OFFCURVE",
"356 322 CURVE SMOOTH",
"356 293 OFFCURVE",
"379 270 OFFCURVE",
"409 270 CURVE SMOOTH"
);
},
{
closed = 1;
nodes = (
"551 270 OFFCURVE",
"575 293 OFFCURVE",
"575 322 CURVE SMOOTH",
"575 350 OFFCURVE",
"551 373 OFFCURVE",
"522 373 CURVE SMOOTH",
"492 373 OFFCURVE",
"469 350 OFFCURVE",
"469 322 CURVE SMOOTH",
"469 293 OFFCURVE",
"492 270 OFFCURVE",
"522 270 CURVE SMOOTH"
);
},
{
closed = 1;
nodes = (
"102 161 OFFCURVE",
"126 184 OFFCURVE",
"126 213 CURVE SMOOTH",
"126 241 OFFCURVE",
"102 264 OFFCURVE",
"73 264 CURVE SMOOTH",
"43 264 OFFCURVE",
"20 241 OFFCURVE",
"20 213 CURVE SMOOTH",
"20 184 OFFCURVE",
"43 161 OFFCURVE",
"73 161 CURVE SMOOTH"
);
},
{
closed = 1;
nodes = (
"551 161 OFFCURVE",
"575 184 OFFCURVE",
"575 213 CURVE SMOOTH",
"575 241 OFFCURVE",
"551 264 OFFCURVE",
"522 264 CURVE SMOOTH",
"492 264 OFFCURVE",
"469 241 OFFCURVE",
"469 213 CURVE SMOOTH",
"469 184 OFFCURVE",
"492 161 OFFCURVE",
"522 161 CURVE SMOOTH"
);
},
{
closed = 1;
nodes = (
"102 52 OFFCURVE",
"126 75 OFFCURVE",
"126 104 CURVE SMOOTH",
"126 132 OFFCURVE",
"102 155 OFFCURVE",
"73 155 CURVE SMOOTH",
"43 155 OFFCURVE",
"20 132 OFFCURVE",
"20 104 CURVE SMOOTH",
"20 75 OFFCURVE",
"43 52 OFFCURVE",
"73 52 CURVE SMOOTH"
);
},
{
closed = 1;
nodes = (
"551 52 OFFCURVE",
"575 75 OFFCURVE",
"575 104 CURVE SMOOTH",
"575 132 OFFCURVE",
"551 155 OFFCURVE",
"522 155 CURVE SMOOTH",
"492 155 OFFCURVE",
"469 132 OFFCURVE",
"469 104 CURVE SMOOTH",
"469 75 OFFCURVE",
"492 52 OFFCURVE",
"522 52 CURVE SMOOTH"
);
},
{
closed = 1;
nodes = (
"102 -58 OFFCURVE",
"126 -35 OFFCURVE",
"126 -6 CURVE SMOOTH",
"126 22 OFFCURVE",
"102 45 OFFCURVE",
"73 45 CURVE SMOOTH",
"43 45 OFFCURVE",
"20 22 OFFCURVE",
"20 -6 CURVE SMOOTH",
"20 -35 OFFCURVE",
"43 -58 OFFCURVE",
"73 -58 CURVE SMOOTH"
);
},
{
closed = 1;
nodes = (
"551 -58 OFFCURVE",
"575 -35 OFFCURVE",
"575 -6 CURVE SMOOTH",
"575 22 OFFCURVE",
"551 45 OFFCURVE",
"522 45 CURVE SMOOTH",
"492 45 OFFCURVE",
"469 22 OFFCURVE",
"469 -6 CURVE SMOOTH",
"469 -35 OFFCURVE",
"492 -58 OFFCURVE",
"522 -58 CURVE SMOOTH"
);
}
);
width = 600;
}
);
note = a;
unicode = 0061;
},
{
glyphname = b;
layers = (
{
hints = (
{
horizontal = 1;
place = "{-58, 103}";
type = Stem;
},
{
horizontal = 1;
place = "{270, 103}";
type = Stem;
},
{
horizontal = 1;
place = "{597, 103}";
type = Stem;
},
{
place = "{20, 106}";
type = Stem;
},
{
place = "{244, 106}";
type = Stem;
},
{
place = "{469, 106}";
type = Stem;
},
{
place = "{132, 106}";
type = Stem;
},
{
place = "{356, 106}";
type = Stem;
},
{
horizontal = 1;
place = "{488, 103}";
type = Stem;
},
{
horizontal = 1;
place = "{379, 103}";
type = Stem;
},
{
horizontal = 1;
place = "{161, 103}";
type = Stem;
},
{
horizontal = 1;
place = "{52, 103}";
type = Stem;
}
);
layerId = "50A2E4FD-7804-43F3-BCDE-AB93253BBBDA";
paths = (
{
closed = 1;
nodes = (
"102 597 OFFCURVE",
"126 620 OFFCURVE",
"126 649 CURVE SMOOTH",
"126 677 OFFCURVE",
"102 700 OFFCURVE",
"73 700 CURVE SMOOTH",
"43 700 OFFCURVE",
"20 677 OFFCURVE",
"20 649 CURVE SMOOTH",
"20 620 OFFCURVE",
"43 597 OFFCURVE",
"73 597 CURVE SMOOTH"
);
},
{
closed = 1;
nodes = (
"214 597 OFFCURVE",
"238 620 OFFCURVE",
"238 649 CURVE SMOOTH",
"238 677 OFFCURVE",
"214 700 OFFCURVE",
"185 700 CURVE SMOOTH",
"155 700 OFFCURVE",
"132 677 OFFCURVE",
"132 649 CURVE SMOOTH",
"132 620 OFFCURVE",
"155 597 OFFCURVE",
"185 597 CURVE SMOOTH"
);
},
{
closed = 1;
nodes = (
"326 597 OFFCURVE",
"350 620 OFFCURVE",
"350 649 CURVE SMOOTH",
"350 677 OFFCURVE",
"326 700 OFFCURVE",
"297 700 CURVE SMOOTH",
"267 700 OFFCURVE",
"244 677 OFFCURVE",
"244 649 CURVE SMOOTH",
"244 620 OFFCURVE",
"267 597 OFFCURVE",
"297 597 CURVE SMOOTH"
);
},
{
closed = 1;
nodes = (
"438 597 OFFCURVE",
"462 620 OFFCURVE",
"462 649 CURVE SMOOTH",
"462 677 OFFCURVE",
"438 700 OFFCURVE",
"409 700 CURVE SMOOTH",
"379 700 OFFCURVE",
"356 677 OFFCURVE",
"356 649 CURVE SMOOTH",
"356 620 OFFCURVE",
"379 597 OFFCURVE",
"409 597 CURVE SMOOTH"
);
},
{
closed = 1;
nodes = (
"102 488 OFFCURVE",
"126 511 OFFCURVE",
"126 540 CURVE SMOOTH",
"126 568 OFFCURVE",
"102 591 OFFCURVE",
"73 591 CURVE SMOOTH",
"43 591 OFFCURVE",
"20 568 OFFCURVE",
"20 540 CURVE SMOOTH",
"20 511 OFFCURVE",
"43 488 OFFCURVE",
"73 488 CURVE SMOOTH"
);
},
{
closed = 1;
nodes = (
"551 488 OFFCURVE",
"575 511 OFFCURVE",
"575 540 CURVE SMOOTH",
"575 568 OFFCURVE",
"551 591 OFFCURVE",
"522 591 CURVE SMOOTH",
"492 591 OFFCURVE",
"469 568 OFFCURVE",
"469 540 CURVE SMOOTH",
"469 511 OFFCURVE",
"492 488 OFFCURVE",
"522 488 CURVE SMOOTH"
);
},
{
closed = 1;
nodes = (
"102 379 OFFCURVE",
"126 402 OFFCURVE",
"126 431 CURVE SMOOTH",
"126 459 OFFCURVE",
"102 482 OFFCURVE",
"73 482 CURVE SMOOTH",
"43 482 OFFCURVE",
"20 459 OFFCURVE",
"20 431 CURVE SMOOTH",
"20 402 OFFCURVE",
"43 379 OFFCURVE",
"73 379 CURVE SMOOTH"
);
},
{
closed = 1;
nodes = (
"551 379 OFFCURVE",
"575 402 OFFCURVE",
"575 431 CURVE SMOOTH",
"575 459 OFFCURVE",
"551 482 OFFCURVE",
"522 482 CURVE SMOOTH",
"492 482 OFFCURVE",
"469 459 OFFCURVE",
"469 431 CURVE SMOOTH",
"469 402 OFFCURVE",
"492 379 OFFCURVE",
"522 379 CURVE SMOOTH"
);
},
{
closed = 1;
nodes = (
"102 270 OFFCURVE",
"126 293 OFFCURVE",
"126 322 CURVE SMOOTH",
"126 350 OFFCURVE",
"102 373 OFFCURVE",
"73 373 CURVE SMOOTH",
"43 373 OFFCURVE",
"20 350 OFFCURVE",
"20 322 CURVE SMOOTH",
"20 293 OFFCURVE",
"43 270 OFFCURVE",
"73 270 CURVE SMOOTH"
);
},
{
closed = 1;
nodes = (
"214 270 OFFCURVE",
"238 293 OFFCURVE",
"238 322 CURVE SMOOTH",
"238 350 OFFCURVE",
"214 373 OFFCURVE",
"185 373 CURVE SMOOTH",
"155 373 OFFCURVE",
"132 350 OFFCURVE",
"132 322 CURVE SMOOTH",
"132 293 OFFCURVE",
"155 270 OFFCURVE",
"185 270 CURVE SMOOTH"
);
},
{
closed = 1;
nodes = (
"326 270 OFFCURVE",
"350 293 OFFCURVE",
"350 322 CURVE SMOOTH",
"350 350 OFFCURVE",
"326 373 OFFCURVE",
"297 373 CURVE SMOOTH",
"267 373 OFFCURVE",
"244 350 OFFCURVE",
"244 322 CURVE SMOOTH",
"244 293 OFFCURVE",
"267 270 OFFCURVE",
"297 270 CURVE SMOOTH"
);
},
{
closed = 1;
nodes = (
"438 270 OFFCURVE",
"462 293 OFFCURVE",
"462 322 CURVE SMOOTH",
"462 350 OFFCURVE",
"438 373 OFFCURVE",
"409 373 CURVE SMOOTH",
"379 373 OFFCURVE",
"356 350 OFFCURVE",
"356 322 CURVE SMOOTH",
"356 293 OFFCURVE",
"379 270 OFFCURVE",
"409 270 CURVE SMOOTH"
);
},
{
closed = 1;
nodes = (
"102 161 OFFCURVE",
"126 184 OFFCURVE",
"126 213 CURVE SMOOTH",
"126 241 OFFCURVE",
"102 264 OFFCURVE",
"73 264 CURVE SMOOTH",
"43 264 OFFCURVE",
"20 241 OFFCURVE",
"20 213 CURVE SMOOTH",
"20 184 OFFCURVE",
"43 161 OFFCURVE",
"73 161 CURVE SMOOTH"
);
},
{
closed = 1;
nodes = (
"551 161 OFFCURVE",
"575 184 OFFCURVE",
"575 213 CURVE SMOOTH",
"575 241 OFFCURVE",
"551 264 OFFCURVE",
"522 264 CURVE SMOOTH",
"492 264 OFFCURVE",
"469 241 OFFCURVE",
"469 213 CURVE SMOOTH",
"469 184 OFFCURVE",
"492 161 OFFCURVE",
"522 161 CURVE SMOOTH"
);
},
{
closed = 1;
nodes = (
"102 52 OFFCURVE",
"126 75 OFFCURVE",
"126 104 CURVE SMOOTH",
"126 132 OFFCURVE",
"102 155 OFFCURVE",
"73 155 CURVE SMOOTH",
"43 155 OFFCURVE",
"20 132 OFFCURVE",
"20 104 CURVE SMOOTH",
"20 75 OFFCURVE",
"43 52 OFFCURVE",
"73 52 CURVE SMOOTH"
);
},
{
closed = 1;
nodes = (
"551 52 OFFCURVE",
"575 75 OFFCURVE",
"575 104 CURVE SMOOTH",
"575 132 OFFCURVE",
"551 155 OFFCURVE",
"522 155 CURVE SMOOTH",
"492 155 OFFCURVE",
"469 132 OFFCURVE",
"469 104 CURVE SMOOTH",
"469 75 OFFCURVE",
"492 52 OFFCURVE",
"522 52 CURVE SMOOTH"
);
},
{
closed = 1;
nodes = (
"102 -58 OFFCURVE",
"126 -35 OFFCURVE",
"126 -6 CURVE SMOOTH",
"126 22 OFFCURVE",
"102 45 OFFCURVE",
"73 45 CURVE SMOOTH",
"43 45 OFFCURVE",
"20 22 OFFCURVE",
"20 -6 CURVE SMOOTH",
"20 -35 OFFCURVE",
"43 -58 OFFCURVE",
"73 -58 CURVE SMOOTH"
);
},
{
closed = 1;
nodes = (
"214 -58 OFFCURVE",
"238 -35 OFFCURVE",
"238 -6 CURVE SMOOTH",
"238 22 OFFCURVE",
"214 45 OFFCURVE",
"185 45 CURVE SMOOTH",
"155 45 OFFCURVE",
"132 22 OFFCURVE",
"132 -6 CURVE SMOOTH",
"132 -35 OFFCURVE",
"155 -58 OFFCURVE",
"185 -58 CURVE SMOOTH"
);
},
{
closed = 1;
nodes = (
"326 -58 OFFCURVE",
"350 -35 OFFCURVE",
"350 -6 CURVE SMOOTH",
"350 22 OFFCURVE",
"326 45 OFFCURVE",
"297 45 CURVE SMOOTH",
"267 45 OFFCURVE",
"244 22 OFFCURVE",
"244 -6 CURVE SMOOTH",
"244 -35 OFFCURVE",
"267 -58 OFFCURVE",
"297 -58 CURVE SMOOTH"
);
},
{
closed = 1;
nodes = (
"438 -58 OFFCURVE",
"462 -35 OFFCURVE",
"462 -6 CURVE SMOOTH",
"462 22 OFFCURVE",
"438 45 OFFCURVE",
"409 45 CURVE SMOOTH",
"379 45 OFFCURVE",
"356 22 OFFCURVE",
"356 -6 CURVE SMOOTH",
"356 -35 OFFCURVE",
"379 -58 OFFCURVE",
"409 -58 CURVE SMOOTH"
);
}
);
width = 600;
}
);
note = b;
unicode = 0062;
},
{
glyphname = c;
layers = (
{
hints = (
{
horizontal = 1;
place = "{597, 103}";
type = Stem;
},
{
place = "{132, 106}";
type = Stem;
},
{
place = "{244, 106}";
type = Stem;
},
{
place = "{356, 106}";
type = Stem;
},
{
horizontal = 1;
place = "{488, 103}";
type = Stem;
},
{
place = "{20, 106}";
type = Stem;
},
{
place = "{469, 106}";
type = Stem;
},
{
horizontal = 1;
place = "{379, 103}";
type = Stem;
},
{
horizontal = 1;
place = "{270, 103}";
type = Stem;
},
{
horizontal = 1;
place = "{161, 103}";
type = Stem;
},
{
horizontal = 1;
place = "{52, 103}";
type = Stem;
},
{
horizontal = 1;
place = "{-58, 103}";
type = Stem;
}
);
layerId = "50A2E4FD-7804-43F3-BCDE-AB93253BBBDA";
paths = (
{
closed = 1;
nodes = (
"214 597 OFFCURVE",
"238 620 OFFCURVE",
"238 649 CURVE SMOOTH",
"238 677 OFFCURVE",
"214 700 OFFCURVE",
"185 700 CURVE SMOOTH",
"155 700 OFFCURVE",
"132 677 OFFCURVE",
"132 649 CURVE SMOOTH",
"132 620 OFFCURVE",
"155 597 OFFCURVE",
"185 597 CURVE SMOOTH"
);
},
{
closed = 1;
nodes = (
"326 597 OFFCURVE",
"350 620 OFFCURVE",
"350 649 CURVE SMOOTH",
"350 677 OFFCURVE",
"326 700 OFFCURVE",
"297 700 CURVE SMOOTH",
"267 700 OFFCURVE",
"244 677 OFFCURVE",
"244 649 CURVE SMOOTH",
"244 620 OFFCURVE",
"267 597 OFFCURVE",
"297 597 CURVE SMOOTH"
);
},
{
closed = 1;
nodes = (
"438 597 OFFCURVE",
"462 620 OFFCURVE",
"462 649 CURVE SMOOTH",
"462 677 OFFCURVE",
"438 700 OFFCURVE",
"409 700 CURVE SMOOTH",
"379 700 OFFCURVE",
"356 677 OFFCURVE",
"356 649 CURVE SMOOTH",
"356 620 OFFCURVE",
"379 597 OFFCURVE",
"409 597 CURVE SMOOTH"
);
},
{
closed = 1;
nodes = (
"102 488 OFFCURVE",
"126 511 OFFCURVE",
"126 540 CURVE SMOOTH",
"126 568 OFFCURVE",
"102 591 OFFCURVE",
"73 591 CURVE SMOOTH",
"43 591 OFFCURVE",
"20 568 OFFCURVE",
"20 540 CURVE SMOOTH",
"20 511 OFFCURVE",
"43 488 OFFCURVE",
"73 488 CURVE SMOOTH"
);
},
{
closed = 1;
nodes = (
"551 488 OFFCURVE",
"575 511 OFFCURVE",
"575 540 CURVE SMOOTH",
"575 568 OFFCURVE",
"551 591 OFFCURVE",
"522 591 CURVE SMOOTH",
"492 591 OFFCURVE",
"469 568 OFFCURVE",
"469 540 CURVE SMOOTH",
"469 511 OFFCURVE",
"492 488 OFFCURVE",
"522 488 CURVE SMOOTH"
);
},
{
closed = 1;
nodes = (
"102 379 OFFCURVE",
"126 402 OFFCURVE",
"126 431 CURVE SMOOTH",
"126 459 OFFCURVE",
"102 482 OFFCURVE",
"73 482 CURVE SMOOTH",
"43 482 OFFCURVE",
"20 459 OFFCURVE",
"20 431 CURVE SMOOTH",
"20 402 OFFCURVE",
"43 379 OFFCURVE",
"73 379 CURVE SMOOTH"
);
},
{
closed = 1;
nodes = (
"102 270 OFFCURVE",
"126 293 OFFCURVE",
"126 322 CURVE SMOOTH",
"126 350 OFFCURVE",
"102 373 OFFCURVE",
"73 373 CURVE SMOOTH",
"43 373 OFFCURVE",
"20 350 OFFCURVE",
"20 322 CURVE SMOOTH",
"20 293 OFFCURVE",
"43 270 OFFCURVE",
"73 270 CURVE SMOOTH"
);
},
{
closed = 1;
nodes = (
"102 161 OFFCURVE",
"126 184 OFFCURVE",
"126 213 CURVE SMOOTH",
"126 241 OFFCURVE",
"102 264 OFFCURVE",
"73 264 CURVE SMOOTH",
"43 264 OFFCURVE",
"20 241 OFFCURVE",
"20 213 CURVE SMOOTH",
"20 184 OFFCURVE",
"43 161 OFFCURVE",
"73 161 CURVE SMOOTH"
);
},
{
closed = 1;
nodes = (
"102 52 OFFCURVE",
"126 75 OFFCURVE",
"126 104 CURVE SMOOTH",
"126 132 OFFCURVE",
"102 155 OFFCURVE",
"73 155 CURVE SMOOTH",
"43 155 OFFCURVE",
"20 132 OFFCURVE",
"20 104 CURVE SMOOTH",
"20 75 OFFCURVE",
"43 52 OFFCURVE",
"73 52 CURVE SMOOTH"
);
},
{
closed = 1;
nodes = (
"551 52 OFFCURVE",
"575 75 OFFCURVE",
"575 104 CURVE SMOOTH",
"575 132 OFFCURVE",
"551 155 OFFCURVE",
"522 155 CURVE SMOOTH",
"492 155 OFFCURVE",
"469 132 OFFCURVE",
"469 104 CURVE SMOOTH",
"469 75 OFFCURVE",
"492 52 OFFCURVE",
"522 52 CURVE SMOOTH"
);
},
{
closed = 1;
nodes = (
"214 -58 OFFCURVE",
"238 -35 OFFCURVE",
"238 -6 CURVE SMOOTH",
"238 22 OFFCURVE",
"214 45 OFFCURVE",
"185 45 CURVE SMOOTH",
"155 45 OFFCURVE",
"132 22 OFFCURVE",
"132 -6 CURVE SMOOTH",
"132 -35 OFFCURVE",
"155 -58 OFFCURVE",
"185 -58 CURVE SMOOTH"
);
},
{
closed = 1;
nodes = (
"326 -58 OFFCURVE",
"350 -35 OFFCURVE",
"350 -6 CURVE SMOOTH",
"350 22 OFFCURVE",
"326 45 OFFCURVE",
"297 45 CURVE SMOOTH",
"267 45 OFFCURVE",
"244 22 OFFCURVE",
"244 -6 CURVE SMOOTH",
"244 -35 OFFCURVE",
"267 -58 OFFCURVE",
"297 -58 CURVE SMOOTH"
);
},
{
closed = 1;
nodes = (
"438 -58 OFFCURVE",
"462 -35 OFFCURVE",
"462 -6 CURVE SMOOTH",
"462 22 OFFCURVE",
"438 45 OFFCURVE",
"409 45 CURVE SMOOTH",
"379 45 OFFCURVE",
"356 22 OFFCURVE",
"356 -6 CURVE SMOOTH",
"356 -35 OFFCURVE",
"379 -58 OFFCURVE",
"409 -58 CURVE SMOOTH"
);
}
);
width = 600;
}
);
note = c;
unicode = 0063;
},
{
glyphname = d;
layers = (
{
hints = (
{
horizontal = 1;
place = "{-58, 103}";
type = Stem;
},
{
horizontal = 1;
place = "{161, 103}";
type = Stem;
},
{
horizontal = 1;
place = "{379, 103}";
type = Stem;
},
{
horizontal = 1;
place = "{597, 103}";
type = Stem;
},
{
place = "{20, 106}";
type = Stem;
},
{
place = "{244, 106}";
type = Stem;
},
{
place = "{469, 106}";
type = Stem;
},
{
place = "{132, 106}";
type = Stem;
},
{
place = "{356, 106}";
type = Stem;
},
{
horizontal = 1;
place = "{488, 103}";
type = Stem;
},
{
horizontal = 1;
place = "{270, 103}";
type = Stem;
},
{
horizontal = 1;
place = "{52, 103}";
type = Stem;
}
);
layerId = "50A2E4FD-7804-43F3-BCDE-AB93253BBBDA";
paths = (
{
closed = 1;
nodes = (
"102 597 OFFCURVE",
"126 620 OFFCURVE",
"126 649 CURVE SMOOTH",
"126 677 OFFCURVE",
"102 700 OFFCURVE",
"73 700 CURVE SMOOTH",
"43 700 OFFCURVE",
"20 677 OFFCURVE",
"20 649 CURVE SMOOTH",
"20 620 OFFCURVE",
"43 597 OFFCURVE",
"73 597 CURVE SMOOTH"
);
},
{
closed = 1;
nodes = (
"214 597 OFFCURVE",
"238 620 OFFCURVE",
"238 649 CURVE SMOOTH",
"238 677 OFFCURVE",
"214 700 OFFCURVE",
"185 700 CURVE SMOOTH",
"155 700 OFFCURVE",
"132 677 OFFCURVE",
"132 649 CURVE SMOOTH",
"132 620 OFFCURVE",
"155 597 OFFCURVE",
"185 597 CURVE SMOOTH"
);
},
{
closed = 1;
nodes = (
"326 597 OFFCURVE",
"350 620 OFFCURVE",
"350 649 CURVE SMOOTH",
"350 677 OFFCURVE",
"326 700 OFFCURVE",
"297 700 CURVE SMOOTH",
"267 700 OFFCURVE",
"244 677 OFFCURVE",
"244 649 CURVE SMOOTH",
"244 620 OFFCURVE",
"267 597 OFFCURVE",
"297 597 CURVE SMOOTH"
);
},
{
closed = 1;
nodes = (
"438 597 OFFCURVE",
"462 620 OFFCURVE",
"462 649 CURVE SMOOTH",
"462 677 OFFCURVE",
"438 700 OFFCURVE",
"409 700 CURVE SMOOTH",
"379 700 OFFCURVE",
"356 677 OFFCURVE",
"356 649 CURVE SMOOTH",
"356 620 OFFCURVE",
"379 597 OFFCURVE",
"409 597 CURVE SMOOTH"
);
},
{
closed = 1;
nodes = (
"102 488 OFFCURVE",
"126 511 OFFCURVE",
"126 540 CURVE SMOOTH",
"126 568 OFFCURVE",
"102 591 OFFCURVE",
"73 591 CURVE SMOOTH",
"43 591 OFFCURVE",
"20 568 OFFCURVE",
"20 540 CURVE SMOOTH",
"20 511 OFFCURVE",
"43 488 OFFCURVE",
"73 488 CURVE SMOOTH"
);
},
{
closed = 1;
nodes = (
"551 488 OFFCURVE",
"575 511 OFFCURVE",
"575 540 CURVE SMOOTH",
"575 568 OFFCURVE",
"551 591 OFFCURVE",
"522 591 CURVE SMOOTH",
"492 591 OFFCURVE",
"469 568 OFFCURVE",
"469 540 CURVE SMOOTH",
"469 511 OFFCURVE",
"492 488 OFFCURVE",
"522 488 CURVE SMOOTH"
);
},
{
closed = 1;
nodes = (
"102 379 OFFCURVE",
"126 402 OFFCURVE",
"126 431 CURVE SMOOTH",
"126 459 OFFCURVE",
"102 482 OFFCURVE",
"73 482 CURVE SMOOTH",
"43 482 OFFCURVE",
"20 459 OFFCURVE",
"20 431 CURVE SMOOTH",
"20 402 OFFCURVE",
"43 379 OFFCURVE",
"73 379 CURVE SMOOTH"
);
},
{
closed = 1;
nodes = (
"551 379 OFFCURVE",
"575 402 OFFCURVE",
"575 431 CURVE SMOOTH",
"575 459 OFFCURVE",
"551 482 OFFCURVE",
"522 482 CURVE SMOOTH",
"492 482 OFFCURVE",
"469 459 OFFCURVE",
"469 431 CURVE SMOOTH",
"469 402 OFFCURVE",
"492 379 OFFCURVE",
"522 379 CURVE SMOOTH"
);
},
{
closed = 1;
nodes = (
"102 270 OFFCURVE",
"126 293 OFFCURVE",
"126 322 CURVE SMOOTH",
"126 350 OFFCURVE",
"102 373 OFFCURVE",
"73 373 CURVE SMOOTH",
"43 373 OFFCURVE",
"20 350 OFFCURVE",
"20 322 CURVE SMOOTH",
"20 293 OFFCURVE",
"43 270 OFFCURVE",
"73 270 CURVE SMOOTH"
);
},
{
closed = 1;
nodes = (
"551 270 OFFCURVE",
"575 293 OFFCURVE",
"575 322 CURVE SMOOTH",
"575 350 OFFCURVE",
"551 373 OFFCURVE",
"522 373 CURVE SMOOTH",
"492 373 OFFCURVE",
"469 350 OFFCURVE",
"469 322 CURVE SMOOTH",
"469 293 OFFCURVE",
"492 270 OFFCURVE",
"522 270 CURVE SMOOTH"
);
},
{
closed = 1;
nodes = (
"102 161 OFFCURVE",
"126 184 OFFCURVE",
"126 213 CURVE SMOOTH",
"126 241 OFFCURVE",
"102 264 OFFCURVE",
"73 264 CURVE SMOOTH",
"43 264 OFFCURVE",
"20 241 OFFCURVE",
"20 213 CURVE SMOOTH",
"20 184 OFFCURVE",
"43 161 OFFCURVE",
"73 161 CURVE SMOOTH"
);
},
{
closed = 1;
nodes = (
"551 161 OFFCURVE",
"575 184 OFFCURVE",
"575 213 CURVE SMOOTH",
"575 241 OFFCURVE",
"551 264 OFFCURVE",
"522 264 CURVE SMOOTH",
"492 264 OFFCURVE",
"469 241 OFFCURVE",
"469 213 CURVE SMOOTH",
"469 184 OFFCURVE",
"492 161 OFFCURVE",
"522 161 CURVE SMOOTH"
);
},
{
closed = 1;
nodes = (
"102 52 OFFCURVE",
"126 75 OFFCURVE",
"126 104 CURVE SMOOTH",
"126 132 OFFCURVE",
"102 155 OFFCURVE",
"73 155 CURVE SMOOTH",
"43 155 OFFCURVE",
"20 132 OFFCURVE",
"20 104 CURVE SMOOTH",
"20 75 OFFCURVE",
"43 52 OFFCURVE",
"73 52 CURVE SMOOTH"
);
},
{
closed = 1;
nodes = (
"551 52 OFFCURVE",
"575 75 OFFCURVE",
"575 104 CURVE SMOOTH",
"575 132 OFFCURVE",
"551 155 OFFCURVE",
"522 155 CURVE SMOOTH",
"492 155 OFFCURVE",
"469 132 OFFCURVE",
"469 104 CURVE SMOOTH",
"469 75 OFFCURVE",
"492 52 OFFCURVE",
"522 52 CURVE SMOOTH"
);
},
{
closed = 1;
nodes = (
"102 -58 OFFCURVE",
"126 -35 OFFCURVE",
"126 -6 CURVE SMOOTH",
"126 22 OFFCURVE",
"102 45 OFFCURVE",
"73 45 CURVE SMOOTH",
"43 45 OFFCURVE",
"20 22 OFFCURVE",
"20 -6 CURVE SMOOTH",
"20 -35 OFFCURVE",
"43 -58 OFFCURVE",
"73 -58 CURVE SMOOTH"
);
},
{
closed = 1;
nodes = (
"214 -58 OFFCURVE",
"238 -35 OFFCURVE",
"238 -6 CURVE SMOOTH",
"238 22 OFFCURVE",
"214 45 OFFCURVE",
"185 45 CURVE SMOOTH",
"155 45 OFFCURVE",
"132 22 OFFCURVE",
"132 -6 CURVE SMOOTH",
"132 -35 OFFCURVE",
"155 -58 OFFCURVE",
"185 -58 CURVE SMOOTH"
);
},
{
closed = 1;
nodes = (
"326 -58 OFFCURVE",
"350 -35 OFFCURVE",
"350 -6 CURVE SMOOTH",
"350 22 OFFCURVE",
"326 45 OFFCURVE",
"297 45 CURVE SMOOTH",
"267 45 OFFCURVE",
"244 22 OFFCURVE",
"244 -6 CURVE SMOOTH",
"244 -35 OFFCURVE",
"267 -58 OFFCURVE",
"297 -58 CURVE SMOOTH"
);
},
{
closed = 1;
nodes = (
"438 -58 OFFCURVE",
"462 -35 OFFCURVE",
"462 -6 CURVE SMOOTH",
"462 22 OFFCURVE",
"438 45 OFFCURVE",
"409 45 CURVE SMOOTH",
"379 45 OFFCURVE",
"356 22 OFFCURVE",
"356 -6 CURVE SMOOTH",
"356 -35 OFFCURVE",
"379 -58 OFFCURVE",
"409 -58 CURVE SMOOTH"
);
}
);
width = 600;
}
);
note = d;
unicode = 0064;
},
{
glyphname = e;
layers = (
{
hints = (
{
horizontal = 1;
place = "{-58, 103}";
type = Stem;
},
{
horizontal = 1;
place = "{270, 103}";
type = Stem;
},
{
horizontal = 1;
place = "{597, 103}";
type = Stem;
},
{
place = "{20, 106}";
type = Stem;
},
{
place = "{244, 106}";
type = Stem;
},
{
place = "{469, 106}";
type = Stem;
},
{
place = "{132, 106}";
type = Stem;
},
{
place = "{356, 106}";
type = Stem;
},
{
horizontal = 1;
place = "{488, 103}";
type = Stem;
},
{
horizontal = 1;
place = "{379, 103}";
type = Stem;
},
{
horizontal = 1;
place = "{161, 103}";
type = Stem;
},
{
horizontal = 1;
place = "{52, 103}";
type = Stem;
}
);
layerId = "50A2E4FD-7804-43F3-BCDE-AB93253BBBDA";
paths = (
{
closed = 1;
nodes = (
"102 597 OFFCURVE",
"126 620 OFFCURVE",
"126 649 CURVE SMOOTH",
"126 677 OFFCURVE",
"102 700 OFFCURVE",
"73 700 CURVE SMOOTH",
"43 700 OFFCURVE",
"20 677 OFFCURVE",
"20 649 CURVE SMOOTH",
"20 620 OFFCURVE",
"43 597 OFFCURVE",
"73 597 CURVE SMOOTH"
);
},
{
closed = 1;
nodes = (
"214 597 OFFCURVE",
"238 620 OFFCURVE",
"238 649 CURVE SMOOTH",
"238 677 OFFCURVE",
"214 700 OFFCURVE",
"185 700 CURVE SMOOTH",
"155 700 OFFCURVE",
"132 677 OFFCURVE",
"132 649 CURVE SMOOTH",
"132 620 OFFCURVE",
"155 597 OFFCURVE",
"185 597 CURVE SMOOTH"
);
},
{
closed = 1;
nodes = (
"326 597 OFFCURVE",
"350 620 OFFCURVE",
"350 649 CURVE SMOOTH",
"350 677 OFFCURVE",
"326 700 OFFCURVE",
"297 700 CURVE SMOOTH",
"267 700 OFFCURVE",
"244 677 OFFCURVE",
"244 649 CURVE SMOOTH",
"244 620 OFFCURVE",
"267 597 OFFCURVE",
"297 597 CURVE SMOOTH"
);
},
{
closed = 1;
nodes = (
"438 597 OFFCURVE",
"462 620 OFFCURVE",
"462 649 CURVE SMOOTH",
"462 677 OFFCURVE",
"438 700 OFFCURVE",
"409 700 CURVE SMOOTH",
"379 700 OFFCURVE",
"356 677 OFFCURVE",
"356 649 CURVE SMOOTH",
"356 620 OFFCURVE",
"379 597 OFFCURVE",
"409 597 CURVE SMOOTH"
);
},
{
closed = 1;
nodes = (
"551 597 OFFCURVE",
"575 620 OFFCURVE",
"575 649 CURVE SMOOTH",
"575 677 OFFCURVE",
"551 700 OFFCURVE",
"522 700 CURVE SMOOTH",
"492 700 OFFCURVE",
"469 677 OFFCURVE",
"469 649 CURVE SMOOTH",
"469 620 OFFCURVE",
"492 597 OFFCURVE",
"522 597 CURVE SMOOTH"
);
},
{
closed = 1;
nodes = (
"102 488 OFFCURVE",
"126 511 OFFCURVE",
"126 540 CURVE SMOOTH",
"126 568 OFFCURVE",
"102 591 OFFCURVE",
"73 591 CURVE SMOOTH",
"43 591 OFFCURVE",
"20 568 OFFCURVE",
"20 540 CURVE SMOOTH",
"20 511 OFFCURVE",
"43 488 OFFCURVE",
"73 488 CURVE SMOOTH"
);
},
{
closed = 1;
nodes = (
"102 379 OFFCURVE",
"126 402 OFFCURVE",
"126 431 CURVE SMOOTH",
"126 459 OFFCURVE",
"102 482 OFFCURVE",
"73 482 CURVE SMOOTH",
"43 482 OFFCURVE",
"20 459 OFFCURVE",
"20 431 CURVE SMOOTH",
"20 402 OFFCURVE",
"43 379 OFFCURVE",
"73 379 CURVE SMOOTH"
);
},
{
closed = 1;
nodes = (
"102 270 OFFCURVE",
"126 293 OFFCURVE",
"126 322 CURVE SMOOTH",
"126 350 OFFCURVE",
"102 373 OFFCURVE",
"73 373 CURVE SMOOTH",
"43 373 OFFCURVE",
"20 350 OFFCURVE",
"20 322 CURVE SMOOTH",
"20 293 OFFCURVE",
"43 270 OFFCURVE",
"73 270 CURVE SMOOTH"
);
},
{
closed = 1;
nodes = (
"214 270 OFFCURVE",
"238 293 OFFCURVE",
"238 322 CURVE SMOOTH",
"238 350 OFFCURVE",
"214 373 OFFCURVE",
"185 373 CURVE SMOOTH",
"155 373 OFFCURVE",
"132 350 OFFCURVE",
"132 322 CURVE SMOOTH",
"132 293 OFFCURVE",
"155 270 OFFCURVE",
"185 270 CURVE SMOOTH"
);
},
{
closed = 1;
nodes = (
"326 270 OFFCURVE",
"350 293 OFFCURVE",
"350 322 CURVE SMOOTH",
"350 350 OFFCURVE",
"326 373 OFFCURVE",
"297 373 CURVE SMOOTH",
"267 373 OFFCURVE",
"244 350 OFFCURVE",
"244 322 CURVE SMOOTH",
"244 293 OFFCURVE",
"267 270 OFFCURVE",
"297 270 CURVE SMOOTH"
);
},
{
closed = 1;
nodes = (
"438 270 OFFCURVE",
"462 293 OFFCURVE",
"462 322 CURVE SMOOTH",
"462 350 OFFCURVE",
"438 373 OFFCURVE",
"409 373 CURVE SMOOTH",
"379 373 OFFCURVE",
"356 350 OFFCURVE",
"356 322 CURVE SMOOTH",
"356 293 OFFCURVE",
"379 270 OFFCURVE",
"409 270 CURVE SMOOTH"
);
},
{
closed = 1;
nodes = (
"102 161 OFFCURVE",
"126 184 OFFCURVE",
"126 213 CURVE SMOOTH",
"126 241 OFFCURVE",
"102 264 OFFCURVE",
"73 264 CURVE SMOOTH",
"43 264 OFFCURVE",
"20 241 OFFCURVE",
"20 213 CURVE SMOOTH",
"20 184 OFFCURVE",
"43 161 OFFCURVE",
"73 161 CURVE SMOOTH"
);
},
{
closed = 1;
nodes = (
"102 52 OFFCURVE",
"126 75 OFFCURVE",
"126 104 CURVE SMOOTH",
"126 132 OFFCURVE",
"102 155 OFFCURVE",
"73 155 CURVE SMOOTH",
"43 155 OFFCURVE",
"20 132 OFFCURVE",
"20 104 CURVE SMOOTH",
"20 75 OFFCURVE",
"43 52 OFFCURVE",
"73 52 CURVE SMOOTH"
);
},
{
closed = 1;
nodes = (
"102 -58 OFFCURVE",
"126 -35 OFFCURVE",
"126 -6 CURVE SMOOTH",
"126 22 OFFCURVE",
"102 45 OFFCURVE",
"73 45 CURVE SMOOTH",
"43 45 OFFCURVE",
"20 22 OFFCURVE",
"20 -6 CURVE SMOOTH",
"20 -35 OFFCURVE",
"43 -58 OFFCURVE",
"73 -58 CURVE SMOOTH"
);
},
{
closed = 1;
nodes = (
"214 -58 OFFCURVE",
"238 -35 OFFCURVE",
"238 -6 CURVE SMOOTH",
"238 22 OFFCURVE",
"214 45 OFFCURVE",
"185 45 CURVE SMOOTH",
"155 45 OFFCURVE",
"132 22 OFFCURVE",
"132 -6 CURVE SMOOTH",
"132 -35 OFFCURVE",
"155 -58 OFFCURVE",
"185 -58 CURVE SMOOTH"
);
},
{
closed = 1;
nodes = (
"326 -58 OFFCURVE",
"350 -35 OFFCURVE",
"350 -6 CURVE SMOOTH",
"350 22 OFFCURVE",
"326 45 OFFCURVE",
"297 45 CURVE SMOOTH",
"267 45 OFFCURVE",
"244 22 OFFCURVE",
"244 -6 CURVE SMOOTH",
"244 -35 OFFCURVE",
"267 -58 OFFCURVE",
"297 -58 CURVE SMOOTH"
);
},
{
closed = 1;
nodes = (
"438 -58 OFFCURVE",
"462 -35 OFFCURVE",
"462 -6 CURVE SMOOTH",
"462 22 OFFCURVE",
"438 45 OFFCURVE",
"409 45 CURVE SMOOTH",
"379 45 OFFCURVE",
"356 22 OFFCURVE",
"356 -6 CURVE SMOOTH",
"356 -35 OFFCURVE",
"379 -58 OFFCURVE",
"409 -58 CURVE SMOOTH"
);
},
{
closed = 1;
nodes = (
"551 -58 OFFCURVE",
"575 -35 OFFCURVE",
"575 -6 CURVE SMOOTH",
"575 22 OFFCURVE",
"551 45 OFFCURVE",
"522 45 CURVE SMOOTH",
"492 45 OFFCURVE",
"469 22 OFFCURVE",
"469 -6 CURVE SMOOTH",
"469 -35 OFFCURVE",
"492 -58 OFFCURVE",
"522 -58 CURVE SMOOTH"
);
}
);
width = 600;
}
);
note = e;
unicode = 0065;
},
{
glyphname = f;
layers = (
{
hints = (
{
horizontal = 1;
place = "{52, 103}";
type = Stem;
},
{
horizontal = 1;
place = "{270, 103}";
type = Stem;
},
{
horizontal = 1;
place = "{597, 103}";
type = Stem;
},
{
place = "{20, 106}";
type = Stem;
},
{
place = "{244, 106}";
type = Stem;
},
{
place = "{469, 106}";
type = Stem;
},
{
place = "{132, 106}";
type = Stem;
},
{
place = "{356, 106}";
type = Stem;
},
{
horizontal = 1;
place = "{488, 103}";
type = Stem;
},
{
horizontal = 1;
place = "{379, 103}";
type = Stem;
},
{
horizontal = 1;
place = "{161, 103}";
type = Stem;
},
{
horizontal = 1;
place = "{-58, 103}";
type = Stem;
}
);
layerId = "50A2E4FD-7804-43F3-BCDE-AB93253BBBDA";
paths = (
{
closed = 1;
nodes = (
"102 597 OFFCURVE",
"126 620 OFFCURVE",
"126 649 CURVE SMOOTH",
"126 677 OFFCURVE",
"102 700 OFFCURVE",
"73 700 CURVE SMOOTH",
"43 700 OFFCURVE",
"20 677 OFFCURVE",
"20 649 CURVE SMOOTH",
"20 620 OFFCURVE",
"43 597 OFFCURVE",
"73 597 CURVE SMOOTH"
);
},
{
closed = 1;
nodes = (
"214 597 OFFCURVE",
"238 620 OFFCURVE",
"238 649 CURVE SMOOTH",
"238 677 OFFCURVE",
"214 700 OFFCURVE",
"185 700 CURVE SMOOTH",
"155 700 OFFCURVE",
"132 677 OFFCURVE",
"132 649 CURVE SMOOTH",
"132 620 OFFCURVE",
"155 597 OFFCURVE",
"185 597 CURVE SMOOTH"
);
},
{
closed = 1;
nodes = (
"326 597 OFFCURVE",
"350 620 OFFCURVE",
"350 649 CURVE SMOOTH",
"350 677 OFFCURVE",
"326 700 OFFCURVE",
"297 700 CURVE SMOOTH",
"267 700 OFFCURVE",
"244 677 OFFCURVE",
"244 649 CURVE SMOOTH",
"244 620 OFFCURVE",
"267 597 OFFCURVE",
"297 597 CURVE SMOOTH"
);
},
{
closed = 1;
nodes = (
"438 597 OFFCURVE",
"462 620 OFFCURVE",
"462 649 CURVE SMOOTH",
"462 677 OFFCURVE",
"438 700 OFFCURVE",
"409 700 CURVE SMOOTH",
"379 700 OFFCURVE",
"356 677 OFFCURVE",
"356 649 CURVE SMOOTH",
"356 620 OFFCURVE",
"379 597 OFFCURVE",
"409 597 CURVE SMOOTH"
);
},
{
closed = 1;
nodes = (
"551 597 OFFCURVE",
"575 620 OFFCURVE",
"575 649 CURVE SMOOTH",
"575 677 OFFCURVE",
"551 700 OFFCURVE",
"522 700 CURVE SMOOTH",
"492 700 OFFCURVE",
"469 677 OFFCURVE",
"469 649 CURVE SMOOTH",
"469 620 OFFCURVE",
"492 597 OFFCURVE",
"522 597 CURVE SMOOTH"
);
},
{
closed = 1;
nodes = (
"102 488 OFFCURVE",
"126 511 OFFCURVE",
"126 540 CURVE SMOOTH",
"126 568 OFFCURVE",
"102 591 OFFCURVE",
"73 591 CURVE SMOOTH",
"43 591 OFFCURVE",
"20 568 OFFCURVE",
"20 540 CURVE SMOOTH",
"20 511 OFFCURVE",
"43 488 OFFCURVE",
"73 488 CURVE SMOOTH"
);
},
{
closed = 1;
nodes = (
"102 379 OFFCURVE",
"126 402 OFFCURVE",
"126 431 CURVE SMOOTH",
"126 459 OFFCURVE",
"102 482 OFFCURVE",
"73 482 CURVE SMOOTH",
"43 482 OFFCURVE",
"20 459 OFFCURVE",
"20 431 CURVE SMOOTH",
"20 402 OFFCURVE",
"43 379 OFFCURVE",
"73 379 CURVE SMOOTH"
);
},
{
closed = 1;
nodes = (
"102 270 OFFCURVE",
"126 293 OFFCURVE",
"126 322 CURVE SMOOTH",
"126 350 OFFCURVE",
"102 373 OFFCURVE",
"73 373 CURVE SMOOTH",
"43 373 OFFCURVE",
"20 350 OFFCURVE",
"20 322 CURVE SMOOTH",
"20 293 OFFCURVE",
"43 270 OFFCURVE",
"73 270 CURVE SMOOTH"
);
},
{
closed = 1;
nodes = (
"214 270 OFFCURVE",
"238 293 OFFCURVE",
"238 322 CURVE SMOOTH",
"238 350 OFFCURVE",
"214 373 OFFCURVE",
"185 373 CURVE SMOOTH",
"155 373 OFFCURVE",
"132 350 OFFCURVE",
"132 322 CURVE SMOOTH",
"132 293 OFFCURVE",
"155 270 OFFCURVE",
"185 270 CURVE SMOOTH"
);
},
{
closed = 1;
nodes = (
"326 270 OFFCURVE",
"350 293 OFFCURVE",
"350 322 CURVE SMOOTH",
"350 350 OFFCURVE",
"326 373 OFFCURVE",
"297 373 CURVE SMOOTH",
"267 373 OFFCURVE",
"244 350 OFFCURVE",
"244 322 CURVE SMOOTH",
"244 293 OFFCURVE",
"267 270 OFFCURVE",
"297 270 CURVE SMOOTH"
);
},
{
closed = 1;
nodes = (
"438 270 OFFCURVE",
"462 293 OFFCURVE",
"462 322 CURVE SMOOTH",
"462 350 OFFCURVE",
"438 373 OFFCURVE",
"409 373 CURVE SMOOTH",
"379 373 OFFCURVE",
"356 350 OFFCURVE",
"356 322 CURVE SMOOTH",
"356 293 OFFCURVE",
"379 270 OFFCURVE",
"409 270 CURVE SMOOTH"
);
},
{
closed = 1;
nodes = (
"102 161 OFFCURVE",
"126 184 OFFCURVE",
"126 213 CURVE SMOOTH",
"126 241 OFFCURVE",
"102 264 OFFCURVE",
"73 264 CURVE SMOOTH",
"43 264 OFFCURVE",
"20 241 OFFCURVE",
"20 213 CURVE SMOOTH",
"20 184 OFFCURVE",
"43 161 OFFCURVE",
"73 161 CURVE SMOOTH"
);
},
{
closed = 1;
nodes = (
"102 52 OFFCURVE",
"126 75 OFFCURVE",
"126 104 CURVE SMOOTH",
"126 132 OFFCURVE",
"102 155 OFFCURVE",
"73 155 CURVE SMOOTH",
"43 155 OFFCURVE",
"20 132 OFFCURVE",
"20 104 CURVE SMOOTH",
"20 75 OFFCURVE",
"43 52 OFFCURVE",
"73 52 CURVE SMOOTH"
);
},
{
closed = 1;
nodes = (
"102 -58 OFFCURVE",
"126 -35 OFFCURVE",
"126 -6 CURVE SMOOTH",
"126 22 OFFCURVE",
"102 45 OFFCURVE",
"73 45 CURVE SMOOTH",
"43 45 OFFCURVE",
"20 22 OFFCURVE",
"20 -6 CURVE SMOOTH",
"20 -35 OFFCURVE",
"43 -58 OFFCURVE",
"73 -58 CURVE SMOOTH"
);
}
);
width = 600;
}
);
note = f;
unicode = 0066;
},
{
glyphname = g;
layers = (
{
hints = (
{
horizontal = 1;
place = "{597, 103}";
type = Stem;
},
{
place = "{132, 106}";
type = Stem;
},
{
place = "{244, 106}";
type = Stem;
},
{
place = "{356, 106}";
type = Stem;
},
{
horizontal = 1;
place = "{488, 103}";
type = Stem;
},
{
place = "{20, 106}";
type = Stem;
},
{
place = "{469, 106}";
type = Stem;
},
{
horizontal = 1;
place = "{379, 103}";
type = Stem;
},
{
horizontal = 1;
place = "{270, 103}";
type = Stem;
},
{
horizontal = 1;
place = "{161, 103}";
type = Stem;
},
{
horizontal = 1;
place = "{52, 103}";
type = Stem;
},
{
horizontal = 1;
place = "{-58, 103}";
type = Stem;
}
);
layerId = "50A2E4FD-7804-43F3-BCDE-AB93253BBBDA";
paths = (
{
closed = 1;
nodes = (
"214 597 OFFCURVE",
"238 620 OFFCURVE",
"238 649 CURVE SMOOTH",
"238 677 OFFCURVE",
"214 700 OFFCURVE",
"185 700 CURVE SMOOTH",
"155 700 OFFCURVE",
"132 677 OFFCURVE",
"132 649 CURVE SMOOTH",
"132 620 OFFCURVE",
"155 597 OFFCURVE",
"185 597 CURVE SMOOTH"
);
},
{
closed = 1;
nodes = (
"326 597 OFFCURVE",
"350 620 OFFCURVE",
"350 649 CURVE SMOOTH",
"350 677 OFFCURVE",
"326 700 OFFCURVE",
"297 700 CURVE SMOOTH",
"267 700 OFFCURVE",
"244 677 OFFCURVE",
"244 649 CURVE SMOOTH",
"244 620 OFFCURVE",
"267 597 OFFCURVE",
"297 597 CURVE SMOOTH"
);
},
{
closed = 1;
nodes = (
"438 597 OFFCURVE",
"462 620 OFFCURVE",
"462 649 CURVE SMOOTH",
"462 677 OFFCURVE",
"438 700 OFFCURVE",
"409 700 CURVE SMOOTH",
"379 700 OFFCURVE",
"356 677 OFFCURVE",
"356 649 CURVE SMOOTH",
"356 620 OFFCURVE",
"379 597 OFFCURVE",
"409 597 CURVE SMOOTH"
);
},
{
closed = 1;
nodes = (
"102 488 OFFCURVE",
"126 511 OFFCURVE",
"126 540 CURVE SMOOTH",
"126 568 OFFCURVE",
"102 591 OFFCURVE",
"73 591 CURVE SMOOTH",
"43 591 OFFCURVE",
"20 568 OFFCURVE",
"20 540 CURVE SMOOTH",
"20 511 OFFCURVE",
"43 488 OFFCURVE",
"73 488 CURVE SMOOTH"
);
},
{
closed = 1;
nodes = (
"551 488 OFFCURVE",
"575 511 OFFCURVE",
"575 540 CURVE SMOOTH",
"575 568 OFFCURVE",
"551 591 OFFCURVE",
"522 591 CURVE SMOOTH",
"492 591 OFFCURVE",
"469 568 OFFCURVE",
"469 540 CURVE SMOOTH",
"469 511 OFFCURVE",
"492 488 OFFCURVE",
"522 488 CURVE SMOOTH"
);
},
{
closed = 1;
nodes = (
"102 379 OFFCURVE",
"126 402 OFFCURVE",
"126 431 CURVE SMOOTH",
"126 459 OFFCURVE",
"102 482 OFFCURVE",
"73 482 CURVE SMOOTH",
"43 482 OFFCURVE",
"20 459 OFFCURVE",
"20 431 CURVE SMOOTH",
"20 402 OFFCURVE",
"43 379 OFFCURVE",
"73 379 CURVE SMOOTH"
);
},
{
closed = 1;
nodes = (
"102 270 OFFCURVE",
"126 293 OFFCURVE",
"126 322 CURVE SMOOTH",
"126 350 OFFCURVE",
"102 373 OFFCURVE",
"73 373 CURVE SMOOTH",
"43 373 OFFCURVE",
"20 350 OFFCURVE",
"20 322 CURVE SMOOTH",
"20 293 OFFCURVE",
"43 270 OFFCURVE",
"73 270 CURVE SMOOTH"
);
},
{
closed = 1;
nodes = (
"326 270 OFFCURVE",
"350 293 OFFCURVE",
"350 322 CURVE SMOOTH",
"350 350 OFFCURVE",
"326 373 OFFCURVE",
"297 373 CURVE SMOOTH",
"267 373 OFFCURVE",
"244 350 OFFCURVE",
"244 322 CURVE SMOOTH",
"244 293 OFFCURVE",
"267 270 OFFCURVE",
"297 270 CURVE SMOOTH"
);
},
{
closed = 1;
nodes = (
"438 270 OFFCURVE",
"462 293 OFFCURVE",
"462 322 CURVE SMOOTH",
"462 350 OFFCURVE",
"438 373 OFFCURVE",
"409 373 CURVE SMOOTH",
"379 373 OFFCURVE",
"356 350 OFFCURVE",
"356 322 CURVE SMOOTH",
"356 293 OFFCURVE",
"379 270 OFFCURVE",
"409 270 CURVE SMOOTH"
);
},
{
closed = 1;
nodes = (
"551 270 OFFCURVE",
"575 293 OFFCURVE",
"575 322 CURVE SMOOTH",
"575 350 OFFCURVE",
"551 373 OFFCURVE",
"522 373 CURVE SMOOTH",
"492 373 OFFCURVE",
"469 350 OFFCURVE",
"469 322 CURVE SMOOTH",
"469 293 OFFCURVE",
"492 270 OFFCURVE",
"522 270 CURVE SMOOTH"
);
},
{
closed = 1;
nodes = (
"102 161 OFFCURVE",
"126 184 OFFCURVE",
"126 213 CURVE SMOOTH",
"126 241 OFFCURVE",
"102 264 OFFCURVE",
"73 264 CURVE SMOOTH",
"43 264 OFFCURVE",
"20 241 OFFCURVE",
"20 213 CURVE SMOOTH",
"20 184 OFFCURVE",
"43 161 OFFCURVE",
"73 161 CURVE SMOOTH"
);
},
{
closed = 1;
nodes = (
"551 161 OFFCURVE",
"575 184 OFFCURVE",
"575 213 CURVE SMOOTH",
"575 241 OFFCURVE",
"551 264 OFFCURVE",
"522 264 CURVE SMOOTH",
"492 264 OFFCURVE",
"469 241 OFFCURVE",
"469 213 CURVE SMOOTH",
"469 184 OFFCURVE",
"492 161 OFFCURVE",
"522 161 CURVE SMOOTH"
);
},
{
closed = 1;
nodes = (
"102 52 OFFCURVE",
"126 75 OFFCURVE",
"126 104 CURVE SMOOTH",
"126 132 OFFCURVE",
"102 155 OFFCURVE",
"73 155 CURVE SMOOTH",
"43 155 OFFCURVE",
"20 132 OFFCURVE",
"20 104 CURVE SMOOTH",
"20 75 OFFCURVE",
"43 52 OFFCURVE",
"73 52 CURVE SMOOTH"
);
},
{
closed = 1;
nodes = (
"551 52 OFFCURVE",
"575 75 OFFCURVE",
"575 104 CURVE SMOOTH",
"575 132 OFFCURVE",
"551 155 OFFCURVE",
"522 155 CURVE SMOOTH",
"492 155 OFFCURVE",
"469 132 OFFCURVE",
"469 104 CURVE SMOOTH",
"469 75 OFFCURVE",
"492 52 OFFCURVE",
"522 52 CURVE SMOOTH"
);
},
{
closed = 1;
nodes = (
"214 -58 OFFCURVE",
"238 -35 OFFCURVE",
"238 -6 CURVE SMOOTH",
"238 22 OFFCURVE",
"214 45 OFFCURVE",
"185 45 CURVE SMOOTH",
"155 45 OFFCURVE",
"132 22 OFFCURVE",
"132 -6 CURVE SMOOTH",
"132 -35 OFFCURVE",
"155 -58 OFFCURVE",
"185 -58 CURVE SMOOTH"
);
},
{
closed = 1;
nodes = (
"326 -58 OFFCURVE",
"350 -35 OFFCURVE",
"350 -6 CURVE SMOOTH",
"350 22 OFFCURVE",
"326 45 OFFCURVE",
"297 45 CURVE SMOOTH",
"267 45 OFFCURVE",
"244 22 OFFCURVE",
"244 -6 CURVE SMOOTH",
"244 -35 OFFCURVE",
"267 -58 OFFCURVE",
"297 -58 CURVE SMOOTH"
);
},
{
closed = 1;
nodes = (
"438 -58 OFFCURVE",
"462 -35 OFFCURVE",
"462 -6 CURVE SMOOTH",
"462 22 OFFCURVE",
"438 45 OFFCURVE",
"409 45 CURVE SMOOTH",
"379 45 OFFCURVE",
"356 22 OFFCURVE",
"356 -6 CURVE SMOOTH",
"356 -35 OFFCURVE",
"379 -58 OFFCURVE",
"409 -58 CURVE SMOOTH"
);
},
{
closed = 1;
nodes = (
"551 -58 OFFCURVE",
"575 -35 OFFCURVE",
"575 -6 CURVE SMOOTH",
"575 22 OFFCURVE",
"551 45 OFFCURVE",
"522 45 CURVE SMOOTH",
"492 45 OFFCURVE",
"469 22 OFFCURVE",
"469 -6 CURVE SMOOTH",
"469 -35 OFFCURVE",
"492 -58 OFFCURVE",
"522 -58 CURVE SMOOTH"
);
}
);
width = 600;
}
);
note = g;
unicode = 0067;
},
{
glyphname = h;
layers = (
{
hints = (
{
horizontal = 1;
place = "{52, 103}";
type = Stem;
},
{
horizontal = 1;
place = "{270, 103}";
type = Stem;
},
{
horizontal = 1;
place = "{597, 103}";
type = Stem;
},
{
place = "{20, 106}";
type = Stem;
},
{
place = "{244, 106}";
type = Stem;
},
{
place = "{469, 106}";
type = Stem;
},
{
horizontal = 1;
place = "{488, 103}";
type = Stem;
},
{
horizontal = 1;
place = "{379, 103}";
type = Stem;
},
{
place = "{132, 106}";
type = Stem;
},
{
place = "{356, 106}";
type = Stem;
},
{
horizontal = 1;
place = "{161, 103}";
type = Stem;
},
{
horizontal = 1;
place = "{-58, 103}";
type = Stem;
}
);
layerId = "50A2E4FD-7804-43F3-BCDE-AB93253BBBDA";
paths = (
{
closed = 1;
nodes = (
"102 597 OFFCURVE",
"126 620 OFFCURVE",
"126 649 CURVE SMOOTH",
"126 677 OFFCURVE",
"102 700 OFFCURVE",
"73 700 CURVE SMOOTH",
"43 700 OFFCURVE",
"20 677 OFFCURVE",
"20 649 CURVE SMOOTH",
"20 620 OFFCURVE",
"43 597 OFFCURVE",
"73 597 CURVE SMOOTH"
);
},
{
closed = 1;
nodes = (
"551 597 OFFCURVE",
"575 620 OFFCURVE",
"575 649 CURVE SMOOTH",
"575 677 OFFCURVE",
"551 700 OFFCURVE",
"522 700 CURVE SMOOTH",
"492 700 OFFCURVE",
"469 677 OFFCURVE",
"469 649 CURVE SMOOTH",
"469 620 OFFCURVE",
"492 597 OFFCURVE",
"522 597 CURVE SMOOTH"
);
},
{
closed = 1;
nodes = (
"102 488 OFFCURVE",
"126 511 OFFCURVE",
"126 540 CURVE SMOOTH",
"126 568 OFFCURVE",
"102 591 OFFCURVE",
"73 591 CURVE SMOOTH",
"43 591 OFFCURVE",
"20 568 OFFCURVE",
"20 540 CURVE SMOOTH",
"20 511 OFFCURVE",
"43 488 OFFCURVE",
"73 488 CURVE SMOOTH"
);
},
{
closed = 1;
nodes = (
"551 488 OFFCURVE",
"575 511 OFFCURVE",
"575 540 CURVE SMOOTH",
"575 568 OFFCURVE",
"551 591 OFFCURVE",
"522 591 CURVE SMOOTH",
"492 591 OFFCURVE",
"469 568 OFFCURVE",
"469 540 CURVE SMOOTH",
"469 511 OFFCURVE",
"492 488 OFFCURVE",
"522 488 CURVE SMOOTH"
);
},
{
closed = 1;
nodes = (
"102 379 OFFCURVE",
"126 402 OFFCURVE",
"126 431 CURVE SMOOTH",
"126 459 OFFCURVE",
"102 482 OFFCURVE",
"73 482 CURVE SMOOTH",
"43 482 OFFCURVE",
"20 459 OFFCURVE",
"20 431 CURVE SMOOTH",
"20 402 OFFCURVE",
"43 379 OFFCURVE",
"73 379 CURVE SMOOTH"
);
},
{
closed = 1;
nodes = (
"551 379 OFFCURVE",
"575 402 OFFCURVE",
"575 431 CURVE SMOOTH",
"575 459 OFFCURVE",
"551 482 OFFCURVE",
"522 482 CURVE SMOOTH",
"492 482 OFFCURVE",
"469 459 OFFCURVE",
"469 431 CURVE SMOOTH",
"469 402 OFFCURVE",
"492 379 OFFCURVE",
"522 379 CURVE SMOOTH"
);
},
{
closed = 1;
nodes = (
"102 270 OFFCURVE",
"126 293 OFFCURVE",
"126 322 CURVE SMOOTH",
"126 350 OFFCURVE",
"102 373 OFFCURVE",
"73 373 CURVE SMOOTH",
"43 373 OFFCURVE",
"20 350 OFFCURVE",
"20 322 CURVE SMOOTH",
"20 293 OFFCURVE",
"43 270 OFFCURVE",
"73 270 CURVE SMOOTH"
);
},
{
closed = 1;
nodes = (
"214 270 OFFCURVE",
"238 293 OFFCURVE",
"238 322 CURVE SMOOTH",
"238 350 OFFCURVE",
"214 373 OFFCURVE",
"185 373 CURVE SMOOTH",
"155 373 OFFCURVE",
"132 350 OFFCURVE",
"132 322 CURVE SMOOTH",
"132 293 OFFCURVE",
"155 270 OFFCURVE",
"185 270 CURVE SMOOTH"
);
},
{
closed = 1;
nodes = (
"326 270 OFFCURVE",
"350 293 OFFCURVE",
"350 322 CURVE SMOOTH",
"350 350 OFFCURVE",
"326 373 OFFCURVE",
"297 373 CURVE SMOOTH",
"267 373 OFFCURVE",
"244 350 OFFCURVE",
"244 322 CURVE SMOOTH",
"244 293 OFFCURVE",
"267 270 OFFCURVE",
"297 270 CURVE SMOOTH"
);
},
{
closed = 1;
nodes = (
"438 270 OFFCURVE",
"462 293 OFFCURVE",
"462 322 CURVE SMOOTH",
"462 350 OFFCURVE",
"438 373 OFFCURVE",
"409 373 CURVE SMOOTH",
"379 373 OFFCURVE",
"356 350 OFFCURVE",
"356 322 CURVE SMOOTH",
"356 293 OFFCURVE",
"379 270 OFFCURVE",
"409 270 CURVE SMOOTH"
);
},
{
closed = 1;
nodes = (
"551 270 OFFCURVE",
"575 293 OFFCURVE",
"575 322 CURVE SMOOTH",
"575 350 OFFCURVE",
"551 373 OFFCURVE",
"522 373 CURVE SMOOTH",
"492 373 OFFCURVE",
"469 350 OFFCURVE",
"469 322 CURVE SMOOTH",
"469 293 OFFCURVE",
"492 270 OFFCURVE",
"522 270 CURVE SMOOTH"
);
},
{
closed = 1;
nodes = (
"102 161 OFFCURVE",
"126 184 OFFCURVE",
"126 213 CURVE SMOOTH",
"126 241 OFFCURVE",
"102 264 OFFCURVE",
"73 264 CURVE SMOOTH",
"43 264 OFFCURVE",
"20 241 OFFCURVE",
"20 213 CURVE SMOOTH",
"20 184 OFFCURVE",
"43 161 OFFCURVE",
"73 161 CURVE SMOOTH"
);
},
{
closed = 1;
nodes = (
"551 161 OFFCURVE",
"575 184 OFFCURVE",
"575 213 CURVE SMOOTH",
"575 241 OFFCURVE",
"551 264 OFFCURVE",
"522 264 CURVE SMOOTH",
"492 264 OFFCURVE",
"469 241 OFFCURVE",
"469 213 CURVE SMOOTH",
"469 184 OFFCURVE",
"492 161 OFFCURVE",
"522 161 CURVE SMOOTH"
);
},
{
closed = 1;
nodes = (
"102 52 OFFCURVE",
"126 75 OFFCURVE",
"126 104 CURVE SMOOTH",
"126 132 OFFCURVE",
"102 155 OFFCURVE",
"73 155 CURVE SMOOTH",
"43 155 OFFCURVE",
"20 132 OFFCURVE",
"20 104 CURVE SMOOTH",
"20 75 OFFCURVE",
"43 52 OFFCURVE",
"73 52 CURVE SMOOTH"
);
},
{
closed = 1;
nodes = (
"551 52 OFFCURVE",
"575 75 OFFCURVE",
"575 104 CURVE SMOOTH",
"575 132 OFFCURVE",
"551 155 OFFCURVE",
"522 155 CURVE SMOOTH",
"492 155 OFFCURVE",
"469 132 OFFCURVE",
"469 104 CURVE SMOOTH",
"469 75 OFFCURVE",
"492 52 OFFCURVE",
"522 52 CURVE SMOOTH"
);
},
{
closed = 1;
nodes = (
"102 -58 OFFCURVE",
"126 -35 OFFCURVE",
"126 -6 CURVE SMOOTH",
"126 22 OFFCURVE",
"102 45 OFFCURVE",
"73 45 CURVE SMOOTH",
"43 45 OFFCURVE",
"20 22 OFFCURVE",
"20 -6 CURVE SMOOTH",
"20 -35 OFFCURVE",
"43 -58 OFFCURVE",
"73 -58 CURVE SMOOTH"
);
},
{
closed = 1;
nodes = (
"551 -58 OFFCURVE",
"575 -35 OFFCURVE",
"575 -6 CURVE SMOOTH",
"575 22 OFFCURVE",
"551 45 OFFCURVE",
"522 45 CURVE SMOOTH",
"492 45 OFFCURVE",
"469 22 OFFCURVE",
"469 -6 CURVE SMOOTH",
"469 -35 OFFCURVE",
"492 -58 OFFCURVE",
"522 -58 CURVE SMOOTH"
);
}
);
width = 600;
}
);
note = h;
unicode = 0068;
},
{
glyphname = i;
layers = (
{
hints = (
{
horizontal = 1;
place = "{597, 103}";
type = Stem;
},
{
place = "{132, 106}";
type = Stem;
},
{
place = "{244, 106}";
type = Stem;
},
{
place = "{356, 106}";
type = Stem;
},
{
horizontal = 1;
place = "{488, 103}";
type = Stem;
},
{
horizontal = 1;
place = "{379, 103}";
type = Stem;
},
{
horizontal = 1;
place = "{270, 103}";
type = Stem;
},
{
horizontal = 1;
place = "{161, 103}";
type = Stem;
},
{
horizontal = 1;
place = "{52, 103}";
type = Stem;
},
{
horizontal = 1;
place = "{-58, 103}";
type = Stem;
}
);
layerId = "50A2E4FD-7804-43F3-BCDE-AB93253BBBDA";
paths = (
{
closed = 1;
nodes = (
"214 597 OFFCURVE",
"238 620 OFFCURVE",
"238 649 CURVE SMOOTH",
"238 677 OFFCURVE",
"214 700 OFFCURVE",
"185 700 CURVE SMOOTH",
"155 700 OFFCURVE",
"132 677 OFFCURVE",
"132 649 CURVE SMOOTH",
"132 620 OFFCURVE",
"155 597 OFFCURVE",
"185 597 CURVE SMOOTH"
);
},
{
closed = 1;
nodes = (
"326 597 OFFCURVE",
"350 620 OFFCURVE",
"350 649 CURVE SMOOTH",
"350 677 OFFCURVE",
"326 700 OFFCURVE",
"297 700 CURVE SMOOTH",
"267 700 OFFCURVE",
"244 677 OFFCURVE",
"244 649 CURVE SMOOTH",
"244 620 OFFCURVE",
"267 597 OFFCURVE",
"297 597 CURVE SMOOTH"
);
},
{
closed = 1;
nodes = (
"438 597 OFFCURVE",
"462 620 OFFCURVE",
"462 649 CURVE SMOOTH",
"462 677 OFFCURVE",
"438 700 OFFCURVE",
"409 700 CURVE SMOOTH",
"379 700 OFFCURVE",
"356 677 OFFCURVE",
"356 649 CURVE SMOOTH",
"356 620 OFFCURVE",
"379 597 OFFCURVE",
"409 597 CURVE SMOOTH"
);
},
{
closed = 1;
nodes = (
"326 488 OFFCURVE",
"350 511 OFFCURVE",
"350 540 CURVE SMOOTH",
"350 568 OFFCURVE",
"326 591 OFFCURVE",
"297 591 CURVE SMOOTH",
"267 591 OFFCURVE",
"244 568 OFFCURVE",
"244 540 CURVE SMOOTH",
"244 511 OFFCURVE",
"267 488 OFFCURVE",
"297 488 CURVE SMOOTH"
);
},
{
closed = 1;
nodes = (
"326 379 OFFCURVE",
"350 402 OFFCURVE",
"350 431 CURVE SMOOTH",
"350 459 OFFCURVE",
"326 482 OFFCURVE",
"297 482 CURVE SMOOTH",
"267 482 OFFCURVE",
"244 459 OFFCURVE",
"244 431 CURVE SMOOTH",
"244 402 OFFCURVE",
"267 379 OFFCURVE",
"297 379 CURVE SMOOTH"
);
},
{
closed = 1;
nodes = (
"326 270 OFFCURVE",
"350 293 OFFCURVE",
"350 322 CURVE SMOOTH",
"350 350 OFFCURVE",
"326 373 OFFCURVE",
"297 373 CURVE SMOOTH",
"267 373 OFFCURVE",
"244 350 OFFCURVE",
"244 322 CURVE SMOOTH",
"244 293 OFFCURVE",
"267 270 OFFCURVE",
"297 270 CURVE SMOOTH"
);
},
{
closed = 1;
nodes = (
"326 161 OFFCURVE",
"350 184 OFFCURVE",
"350 213 CURVE SMOOTH",
"350 241 OFFCURVE",
"326 264 OFFCURVE",
"297 264 CURVE SMOOTH",
"267 264 OFFCURVE",
"244 241 OFFCURVE",
"244 213 CURVE SMOOTH",
"244 184 OFFCURVE",
"267 161 OFFCURVE",
"297 161 CURVE SMOOTH"
);
},
{
closed = 1;
nodes = (
"326 52 OFFCURVE",
"350 75 OFFCURVE",
"350 104 CURVE SMOOTH",
"350 132 OFFCURVE",
"326 155 OFFCURVE",
"297 155 CURVE SMOOTH",
"267 155 OFFCURVE",
"244 132 OFFCURVE",
"244 104 CURVE SMOOTH",
"244 75 OFFCURVE",
"267 52 OFFCURVE",
"297 52 CURVE SMOOTH"
);
},
{
closed = 1;
nodes = (
"214 -58 OFFCURVE",
"238 -35 OFFCURVE",
"238 -6 CURVE SMOOTH",
"238 22 OFFCURVE",
"214 45 OFFCURVE",
"185 45 CURVE SMOOTH",
"155 45 OFFCURVE",
"132 22 OFFCURVE",
"132 -6 CURVE SMOOTH",
"132 -35 OFFCURVE",
"155 -58 OFFCURVE",
"185 -58 CURVE SMOOTH"
);
},
{
closed = 1;
nodes = (
"326 -58 OFFCURVE",
"350 -35 OFFCURVE",
"350 -6 CURVE SMOOTH",
"350 22 OFFCURVE",
"326 45 OFFCURVE",
"297 45 CURVE SMOOTH",
"267 45 OFFCURVE",
"244 22 OFFCURVE",
"244 -6 CURVE SMOOTH",
"244 -35 OFFCURVE",
"267 -58 OFFCURVE",
"297 -58 CURVE SMOOTH"
);
},
{
closed = 1;
nodes = (
"438 -58 OFFCURVE",
"462 -35 OFFCURVE",
"462 -6 CURVE SMOOTH",
"462 22 OFFCURVE",
"438 45 OFFCURVE",
"409 45 CURVE SMOOTH",
"379 45 OFFCURVE",
"356 22 OFFCURVE",
"356 -6 CURVE SMOOTH",
"356 -35 OFFCURVE",
"379 -58 OFFCURVE",
"409 -58 CURVE SMOOTH"
);
}
);
width = 600;
}
);
note = i;
unicode = 0069;
},
{
glyphname = j;
layers = (
{
hints = (
{
horizontal = 1;
place = "{-58, 103}";
type = Stem;
},
{
horizontal = 1;
place = "{161, 103}";
type = Stem;
},
{
horizontal = 1;
place = "{379, 103}";
type = Stem;
},
{
horizontal = 1;
place = "{597, 103}";
type = Stem;
},
{
place = "{20, 106}";
type = Stem;
},
{
place = "{244, 106}";
type = Stem;
},
{
place = "{469, 106}";
type = Stem;
},
{
horizontal = 1;
place = "{488, 103}";
type = Stem;
},
{
horizontal = 1;
place = "{270, 103}";
type = Stem;
},
{
horizontal = 1;
place = "{52, 103}";
type = Stem;
},
{
place = "{132, 106}";
type = Stem;
},
{
place = "{356, 106}";
type = Stem;
}
);
layerId = "50A2E4FD-7804-43F3-BCDE-AB93253BBBDA";
paths = (
{
closed = 1;
nodes = (
"551 597 OFFCURVE",
"575 620 OFFCURVE",
"575 649 CURVE SMOOTH",
"575 677 OFFCURVE",
"551 700 OFFCURVE",
"522 700 CURVE SMOOTH",
"492 700 OFFCURVE",
"469 677 OFFCURVE",
"469 649 CURVE SMOOTH",
"469 620 OFFCURVE",
"492 597 OFFCURVE",
"522 597 CURVE SMOOTH"
);
},
{
closed = 1;
nodes = (
"551 488 OFFCURVE",
"575 511 OFFCURVE",
"575 540 CURVE SMOOTH",
"575 568 OFFCURVE",
"551 591 OFFCURVE",
"522 591 CURVE SMOOTH",
"492 591 OFFCURVE",
"469 568 OFFCURVE",
"469 540 CURVE SMOOTH",
"469 511 OFFCURVE",
"492 488 OFFCURVE",
"522 488 CURVE SMOOTH"
);
},
{
closed = 1;
nodes = (
"551 379 OFFCURVE",
"575 402 OFFCURVE",
"575 431 CURVE SMOOTH",
"575 459 OFFCURVE",
"551 482 OFFCURVE",
"522 482 CURVE SMOOTH",
"492 482 OFFCURVE",
"469 459 OFFCURVE",
"469 431 CURVE SMOOTH",
"469 402 OFFCURVE",
"492 379 OFFCURVE",
"522 379 CURVE SMOOTH"
);
},
{
closed = 1;
nodes = (
"551 270 OFFCURVE",
"575 293 OFFCURVE",
"575 322 CURVE SMOOTH",
"575 350 OFFCURVE",
"551 373 OFFCURVE",
"522 373 CURVE SMOOTH",
"492 373 OFFCURVE",
"469 350 OFFCURVE",
"469 322 CURVE SMOOTH",
"469 293 OFFCURVE",
"492 270 OFFCURVE",
"522 270 CURVE SMOOTH"
);
},
{
closed = 1;
nodes = (
"551 161 OFFCURVE",
"575 184 OFFCURVE",
"575 213 CURVE SMOOTH",
"575 241 OFFCURVE",
"551 264 OFFCURVE",
"522 264 CURVE SMOOTH",
"492 264 OFFCURVE",
"469 241 OFFCURVE",
"469 213 CURVE SMOOTH",
"469 184 OFFCURVE",
"492 161 OFFCURVE",
"522 161 CURVE SMOOTH"
);
},
{
closed = 1;
nodes = (
"102 52 OFFCURVE",
"126 75 OFFCURVE",
"126 104 CURVE SMOOTH",
"126 132 OFFCURVE",
"102 155 OFFCURVE",
"73 155 CURVE SMOOTH",
"43 155 OFFCURVE",
"20 132 OFFCURVE",
"20 104 CURVE SMOOTH",
"20 75 OFFCURVE",
"43 52 OFFCURVE",
"73 52 CURVE SMOOTH"
);
},
{
closed = 1;
nodes = (
"551 52 OFFCURVE",
"575 75 OFFCURVE",
"575 104 CURVE SMOOTH",
"575 132 OFFCURVE",
"551 155 OFFCURVE",
"522 155 CURVE SMOOTH",
"492 155 OFFCURVE",
"469 132 OFFCURVE",
"469 104 CURVE SMOOTH",
"469 75 OFFCURVE",
"492 52 OFFCURVE",
"522 52 CURVE SMOOTH"
);
},
{
closed = 1;
nodes = (
"214 -58 OFFCURVE",
"238 -35 OFFCURVE",
"238 -6 CURVE SMOOTH",
"238 22 OFFCURVE",
"214 45 OFFCURVE",
"185 45 CURVE SMOOTH",
"155 45 OFFCURVE",
"132 22 OFFCURVE",
"132 -6 CURVE SMOOTH",
"132 -35 OFFCURVE",
"155 -58 OFFCURVE",
"185 -58 CURVE SMOOTH"
);
},
{
closed = 1;
nodes = (
"326 -58 OFFCURVE",
"350 -35 OFFCURVE",
"350 -6 CURVE SMOOTH",
"350 22 OFFCURVE",
"326 45 OFFCURVE",
"297 45 CURVE SMOOTH",
"267 45 OFFCURVE",
"244 22 OFFCURVE",
"244 -6 CURVE SMOOTH",
"244 -35 OFFCURVE",
"267 -58 OFFCURVE",
"297 -58 CURVE SMOOTH"
);
},
{
closed = 1;
nodes = (
"438 -58 OFFCURVE",
"462 -35 OFFCURVE",
"462 -6 CURVE SMOOTH",
"462 22 OFFCURVE",
"438 45 OFFCURVE",
"409 45 CURVE SMOOTH",
"379 45 OFFCURVE",
"356 22 OFFCURVE",
"356 -6 CURVE SMOOTH",
"356 -35 OFFCURVE",
"379 -58 OFFCURVE",
"409 -58 CURVE SMOOTH"
);
}
);
width = 600;
}
);
note = j;
unicode = 006A;
},
{
glyphname = k;
layers = (
{
hints = (
{
horizontal = 1;
place = "{52, 103}";
type = Stem;
},
{
horizontal = 1;
place = "{270, 103}";
type = Stem;
},
{
horizontal = 1;
place = "{597, 103}";
type = Stem;
},
{
place = "{20, 106}";
type = Stem;
},
{
place = "{244, 106}";
type = Stem;
},
{
place = "{469, 106}";
type = Stem;
},
{
horizontal = 1;
place = "{488, 103}";
type = Stem;
},
{
horizontal = 1;
place = "{379, 103}";
type = Stem;
},
{
place = "{356, 106}";
type = Stem;
},
{
place = "{132, 106}";
type = Stem;
},
{
horizontal = 1;
place = "{161, 103}";
type = Stem;
},
{
horizontal = 1;
place = "{-58, 103}";
type = Stem;
}
);
layerId = "50A2E4FD-7804-43F3-BCDE-AB93253BBBDA";
paths = (
{
closed = 1;
nodes = (
"102 597 OFFCURVE",
"126 620 OFFCURVE",
"126 649 CURVE SMOOTH",
"126 677 OFFCURVE",
"102 700 OFFCURVE",
"73 700 CURVE SMOOTH",
"43 700 OFFCURVE",
"20 677 OFFCURVE",
"20 649 CURVE SMOOTH",
"20 620 OFFCURVE",
"43 597 OFFCURVE",
"73 597 CURVE SMOOTH"
);
},
{
closed = 1;
nodes = (
"551 597 OFFCURVE",
"575 620 OFFCURVE",
"575 649 CURVE SMOOTH",
"575 677 OFFCURVE",
"551 700 OFFCURVE",
"522 700 CURVE SMOOTH",
"492 700 OFFCURVE",
"469 677 OFFCURVE",
"469 649 CURVE SMOOTH",
"469 620 OFFCURVE",
"492 597 OFFCURVE",
"522 597 CURVE SMOOTH"
);
},
{
closed = 1;
nodes = (
"102 488 OFFCURVE",
"126 511 OFFCURVE",
"126 540 CURVE SMOOTH",
"126 568 OFFCURVE",
"102 591 OFFCURVE",
"73 591 CURVE SMOOTH",
"43 591 OFFCURVE",
"20 568 OFFCURVE",
"20 540 CURVE SMOOTH",
"20 511 OFFCURVE",
"43 488 OFFCURVE",
"73 488 CURVE SMOOTH"
);
},
{
closed = 1;
nodes = (
"551 488 OFFCURVE",
"575 511 OFFCURVE",
"575 540 CURVE SMOOTH",
"575 568 OFFCURVE",
"551 591 OFFCURVE",
"522 591 CURVE SMOOTH",
"492 591 OFFCURVE",
"469 568 OFFCURVE",
"469 540 CURVE SMOOTH",
"469 511 OFFCURVE",
"492 488 OFFCURVE",
"522 488 CURVE SMOOTH"
);
},
{
closed = 1;
nodes = (
"102 379 OFFCURVE",
"126 402 OFFCURVE",
"126 431 CURVE SMOOTH",
"126 459 OFFCURVE",
"102 482 OFFCURVE",
"73 482 CURVE SMOOTH",
"43 482 OFFCURVE",
"20 459 OFFCURVE",
"20 431 CURVE SMOOTH",
"20 402 OFFCURVE",
"43 379 OFFCURVE",
"73 379 CURVE SMOOTH"
);
},
{
closed = 1;
nodes = (
"438 379 OFFCURVE",
"462 402 OFFCURVE",
"462 431 CURVE SMOOTH",
"462 459 OFFCURVE",
"438 482 OFFCURVE",
"409 482 CURVE SMOOTH",
"379 482 OFFCURVE",
"356 459 OFFCURVE",
"356 431 CURVE SMOOTH",
"356 402 OFFCURVE",
"379 379 OFFCURVE",
"409 379 CURVE SMOOTH"
);
},
{
closed = 1;
nodes = (
"102 270 OFFCURVE",
"126 293 OFFCURVE",
"126 322 CURVE SMOOTH",
"126 350 OFFCURVE",
"102 373 OFFCURVE",
"73 373 CURVE SMOOTH",
"43 373 OFFCURVE",
"20 350 OFFCURVE",
"20 322 CURVE SMOOTH",
"20 293 OFFCURVE",
"43 270 OFFCURVE",
"73 270 CURVE SMOOTH"
);
},
{
closed = 1;
nodes = (
"214 270 OFFCURVE",
"238 293 OFFCURVE",
"238 322 CURVE SMOOTH",
"238 350 OFFCURVE",
"214 373 OFFCURVE",
"185 373 CURVE SMOOTH",
"155 373 OFFCURVE",
"132 350 OFFCURVE",
"132 322 CURVE SMOOTH",
"132 293 OFFCURVE",
"155 270 OFFCURVE",
"185 270 CURVE SMOOTH"
);
},
{
closed = 1;
nodes = (
"326 270 OFFCURVE",
"350 293 OFFCURVE",
"350 322 CURVE SMOOTH",
"350 350 OFFCURVE",
"326 373 OFFCURVE",
"297 373 CURVE SMOOTH",
"267 373 OFFCURVE",
"244 350 OFFCURVE",
"244 322 CURVE SMOOTH",
"244 293 OFFCURVE",
"267 270 OFFCURVE",
"297 270 CURVE SMOOTH"
);
},
{
closed = 1;
nodes = (
"102 161 OFFCURVE",
"126 184 OFFCURVE",
"126 213 CURVE SMOOTH",
"126 241 OFFCURVE",
"102 264 OFFCURVE",
"73 264 CURVE SMOOTH",
"43 264 OFFCURVE",
"20 241 OFFCURVE",
"20 213 CURVE SMOOTH",
"20 184 OFFCURVE",
"43 161 OFFCURVE",
"73 161 CURVE SMOOTH"
);
},
{
closed = 1;
nodes = (
"438 161 OFFCURVE",
"462 184 OFFCURVE",
"462 213 CURVE SMOOTH",
"462 241 OFFCURVE",
"438 264 OFFCURVE",
"409 264 CURVE SMOOTH",
"379 264 OFFCURVE",
"356 241 OFFCURVE",
"356 213 CURVE SMOOTH",
"356 184 OFFCURVE",
"379 161 OFFCURVE",
"409 161 CURVE SMOOTH"
);
},
{
closed = 1;
nodes = (
"102 52 OFFCURVE",
"126 75 OFFCURVE",
"126 104 CURVE SMOOTH",
"126 132 OFFCURVE",
"102 155 OFFCURVE",
"73 155 CURVE SMOOTH",
"43 155 OFFCURVE",
"20 132 OFFCURVE",
"20 104 CURVE SMOOTH",
"20 75 OFFCURVE",
"43 52 OFFCURVE",
"73 52 CURVE SMOOTH"
);
},
{
closed = 1;
nodes = (
"551 52 OFFCURVE",
"575 75 OFFCURVE",
"575 104 CURVE SMOOTH",
"575 132 OFFCURVE",
"551 155 OFFCURVE",
"522 155 CURVE SMOOTH",
"492 155 OFFCURVE",
"469 132 OFFCURVE",
"469 104 CURVE SMOOTH",
"469 75 OFFCURVE",
"492 52 OFFCURVE",
"522 52 CURVE SMOOTH"
);
},
{
closed = 1;
nodes = (
"102 -58 OFFCURVE",
"126 -35 OFFCURVE",
"126 -6 CURVE SMOOTH",
"126 22 OFFCURVE",
"102 45 OFFCURVE",
"73 45 CURVE SMOOTH",
"43 45 OFFCURVE",
"20 22 OFFCURVE",
"20 -6 CURVE SMOOTH",
"20 -35 OFFCURVE",
"43 -58 OFFCURVE",
"73 -58 CURVE SMOOTH"
);
},
{
closed = 1;
nodes = (
"551 -58 OFFCURVE",
"575 -35 OFFCURVE",
"575 -6 CURVE SMOOTH",
"575 22 OFFCURVE",
"551 45 OFFCURVE",
"522 45 CURVE SMOOTH",
"492 45 OFFCURVE",
"469 22 OFFCURVE",
"469 -6 CURVE SMOOTH",
"469 -35 OFFCURVE",
"492 -58 OFFCURVE",
"522 -58 CURVE SMOOTH"
);
}
);
width = 600;
}
);
note = k;
unicode = 006B;
},
{
glyphname = l;
layers = (
{
hints = (
{
horizontal = 1;
place = "{-58, 103}";
type = Stem;
},
{
horizontal = 1;
place = "{161, 103}";
type = Stem;
},
{
horizontal = 1;
place = "{379, 103}";
type = Stem;
},
{
horizontal = 1;
place = "{597, 103}";
type = Stem;
},
{
place = "{20, 106}";
type = Stem;
},
{
place = "{244, 106}";
type = Stem;
},
{
place = "{469, 106}";
type = Stem;
},
{
horizontal = 1;
place = "{488, 103}";
type = Stem;
},
{
horizontal = 1;
place = "{270, 103}";
type = Stem;
},
{
horizontal = 1;
place = "{52, 103}";
type = Stem;
},
{
place = "{132, 106}";
type = Stem;
},
{
place = "{356, 106}";
type = Stem;
}
);
layerId = "50A2E4FD-7804-43F3-BCDE-AB93253BBBDA";
paths = (
{
closed = 1;
nodes = (
"102 597 OFFCURVE",
"126 620 OFFCURVE",
"126 649 CURVE SMOOTH",
"126 677 OFFCURVE",
"102 700 OFFCURVE",
"73 700 CURVE SMOOTH",
"43 700 OFFCURVE",
"20 677 OFFCURVE",
"20 649 CURVE SMOOTH",
"20 620 OFFCURVE",
"43 597 OFFCURVE",
"73 597 CURVE SMOOTH"
);
},
{
closed = 1;
nodes = (
"102 488 OFFCURVE",
"126 511 OFFCURVE",
"126 540 CURVE SMOOTH",
"126 568 OFFCURVE",
"102 591 OFFCURVE",
"73 591 CURVE SMOOTH",
"43 591 OFFCURVE",
"20 568 OFFCURVE",
"20 540 CURVE SMOOTH",
"20 511 OFFCURVE",
"43 488 OFFCURVE",
"73 488 CURVE SMOOTH"
);
},
{
closed = 1;
nodes = (
"102 379 OFFCURVE",
"126 402 OFFCURVE",
"126 431 CURVE SMOOTH",
"126 459 OFFCURVE",
"102 482 OFFCURVE",
"73 482 CURVE SMOOTH",
"43 482 OFFCURVE",
"20 459 OFFCURVE",
"20 431 CURVE SMOOTH",
"20 402 OFFCURVE",
"43 379 OFFCURVE",
"73 379 CURVE SMOOTH"
);
},
{
closed = 1;
nodes = (
"102 270 OFFCURVE",
"126 293 OFFCURVE",
"126 322 CURVE SMOOTH",
"126 350 OFFCURVE",
"102 373 OFFCURVE",
"73 373 CURVE SMOOTH",
"43 373 OFFCURVE",
"20 350 OFFCURVE",
"20 322 CURVE SMOOTH",
"20 293 OFFCURVE",
"43 270 OFFCURVE",
"73 270 CURVE SMOOTH"
);
},
{
closed = 1;
nodes = (
"102 161 OFFCURVE",
"126 184 OFFCURVE",
"126 213 CURVE SMOOTH",
"126 241 OFFCURVE",
"102 264 OFFCURVE",
"73 264 CURVE SMOOTH",
"43 264 OFFCURVE",
"20 241 OFFCURVE",
"20 213 CURVE SMOOTH",
"20 184 OFFCURVE",
"43 161 OFFCURVE",
"73 161 CURVE SMOOTH"
);
},
{
closed = 1;
nodes = (
"102 52 OFFCURVE",
"126 75 OFFCURVE",
"126 104 CURVE SMOOTH",
"126 132 OFFCURVE",
"102 155 OFFCURVE",
"73 155 CURVE SMOOTH",
"43 155 OFFCURVE",
"20 132 OFFCURVE",
"20 104 CURVE SMOOTH",
"20 75 OFFCURVE",
"43 52 OFFCURVE",
"73 52 CURVE SMOOTH"
);
},
{
closed = 1;
nodes = (
"102 -58 OFFCURVE",
"126 -35 OFFCURVE",
"126 -6 CURVE SMOOTH",
"126 22 OFFCURVE",
"102 45 OFFCURVE",
"73 45 CURVE SMOOTH",
"43 45 OFFCURVE",
"20 22 OFFCURVE",
"20 -6 CURVE SMOOTH",
"20 -35 OFFCURVE",
"43 -58 OFFCURVE",
"73 -58 CURVE SMOOTH"
);
},
{
closed = 1;
nodes = (
"214 -58 OFFCURVE",
"238 -35 OFFCURVE",
"238 -6 CURVE SMOOTH",
"238 22 OFFCURVE",
"214 45 OFFCURVE",
"185 45 CURVE SMOOTH",
"155 45 OFFCURVE",
"132 22 OFFCURVE",
"132 -6 CURVE SMOOTH",
"132 -35 OFFCURVE",
"155 -58 OFFCURVE",
"185 -58 CURVE SMOOTH"
);
},
{
closed = 1;
nodes = (
"326 -58 OFFCURVE",
"350 -35 OFFCURVE",
"350 -6 CURVE SMOOTH",
"350 22 OFFCURVE",
"326 45 OFFCURVE",
"297 45 CURVE SMOOTH",
"267 45 OFFCURVE",
"244 22 OFFCURVE",
"244 -6 CURVE SMOOTH",
"244 -35 OFFCURVE",
"267 -58 OFFCURVE",
"297 -58 CURVE SMOOTH"
);
},
{
closed = 1;
nodes = (
"438 -58 OFFCURVE",
"462 -35 OFFCURVE",
"462 -6 CURVE SMOOTH",
"462 22 OFFCURVE",
"438 45 OFFCURVE",
"409 45 CURVE SMOOTH",
"379 45 OFFCURVE",
"356 22 OFFCURVE",
"356 -6 CURVE SMOOTH",
"356 -35 OFFCURVE",
"379 -58 OFFCURVE",
"409 -58 CURVE SMOOTH"
);
},
{
closed = 1;
nodes = (
"551 -58 OFFCURVE",
"575 -35 OFFCURVE",
"575 -6 CURVE SMOOTH",
"575 22 OFFCURVE",
"551 45 OFFCURVE",
"522 45 CURVE SMOOTH",
"492 45 OFFCURVE",
"469 22 OFFCURVE",
"469 -6 CURVE SMOOTH",
"469 -35 OFFCURVE",
"492 -58 OFFCURVE",
"522 -58 CURVE SMOOTH"
);
}
);
width = 600;
}
);
note = l;
unicode = 006C;
},
{
glyphname = m;
layers = (
{
hints = (
{
horizontal = 1;
place = "{597, 103}";
type = Stem;
},
{
place = "{20, 106}";
type = Stem;
},
{
place = "{469, 106}";
type = Stem;
},
{
horizontal = 1;
place = "{488, 103}";
type = Stem;
},
{
place = "{132, 106}";
type = Stem;
},
{
place = "{356, 106}";
type = Stem;
},
{
horizontal = 1;
place = "{379, 103}";
type = Stem;
},
{
place = "{244, 106}";
type = Stem;
},
{
horizontal = 1;
place = "{270, 103}";
type = Stem;
},
{
horizontal = 1;
place = "{161, 103}";
type = Stem;
},
{
horizontal = 1;
place = "{52, 103}";
type = Stem;
},
{
horizontal = 1;
place = "{-58, 103}";
type = Stem;
}
);
layerId = "50A2E4FD-7804-43F3-BCDE-AB93253BBBDA";
paths = (
{
closed = 1;
nodes = (
"102 597 OFFCURVE",
"126 620 OFFCURVE",
"126 649 CURVE SMOOTH",
"126 677 OFFCURVE",
"102 700 OFFCURVE",
"73 700 CURVE SMOOTH",
"43 700 OFFCURVE",
"20 677 OFFCURVE",
"20 649 CURVE SMOOTH",
"20 620 OFFCURVE",
"43 597 OFFCURVE",
"73 597 CURVE SMOOTH"
);
},
{
closed = 1;
nodes = (
"551 597 OFFCURVE",
"575 620 OFFCURVE",
"575 649 CURVE SMOOTH",
"575 677 OFFCURVE",
"551 700 OFFCURVE",
"522 700 CURVE SMOOTH",
"492 700 OFFCURVE",
"469 677 OFFCURVE",
"469 649 CURVE SMOOTH",
"469 620 OFFCURVE",
"492 597 OFFCURVE",
"522 597 CURVE SMOOTH"
);
},
{
closed = 1;
nodes = (
"102 488 OFFCURVE",
"126 511 OFFCURVE",
"126 540 CURVE SMOOTH",
"126 568 OFFCURVE",
"102 591 OFFCURVE",
"73 591 CURVE SMOOTH",
"43 591 OFFCURVE",
"20 568 OFFCURVE",
"20 540 CURVE SMOOTH",
"20 511 OFFCURVE",
"43 488 OFFCURVE",
"73 488 CURVE SMOOTH"
);
},
{
closed = 1;
nodes = (
"214 488 OFFCURVE",
"238 511 OFFCURVE",
"238 540 CURVE SMOOTH",
"238 568 OFFCURVE",
"214 591 OFFCURVE",
"185 591 CURVE SMOOTH",
"155 591 OFFCURVE",
"132 568 OFFCURVE",
"132 540 CURVE SMOOTH",
"132 511 OFFCURVE",
"155 488 OFFCURVE",
"185 488 CURVE SMOOTH"
);
},
{
closed = 1;
nodes = (
"438 488 OFFCURVE",
"462 511 OFFCURVE",
"462 540 CURVE SMOOTH",
"462 568 OFFCURVE",
"438 591 OFFCURVE",
"409 591 CURVE SMOOTH",
"379 591 OFFCURVE",
"356 568 OFFCURVE",
"356 540 CURVE SMOOTH",
"356 511 OFFCURVE",
"379 488 OFFCURVE",
"409 488 CURVE SMOOTH"
);
},
{
closed = 1;
nodes = (
"551 488 OFFCURVE",
"575 511 OFFCURVE",
"575 540 CURVE SMOOTH",
"575 568 OFFCURVE",
"551 591 OFFCURVE",
"522 591 CURVE SMOOTH",
"492 591 OFFCURVE",
"469 568 OFFCURVE",
"469 540 CURVE SMOOTH",
"469 511 OFFCURVE",
"492 488 OFFCURVE",
"522 488 CURVE SMOOTH"
);
},
{
closed = 1;
nodes = (
"102 379 OFFCURVE",
"126 402 OFFCURVE",
"126 431 CURVE SMOOTH",
"126 459 OFFCURVE",
"102 482 OFFCURVE",
"73 482 CURVE SMOOTH",
"43 482 OFFCURVE",
"20 459 OFFCURVE",
"20 431 CURVE SMOOTH",
"20 402 OFFCURVE",
"43 379 OFFCURVE",
"73 379 CURVE SMOOTH"
);
},
{
closed = 1;
nodes = (
"326 379 OFFCURVE",
"350 402 OFFCURVE",
"350 431 CURVE SMOOTH",
"350 459 OFFCURVE",
"326 482 OFFCURVE",
"297 482 CURVE SMOOTH",
"267 482 OFFCURVE",
"244 459 OFFCURVE",
"244 431 CURVE SMOOTH",
"244 402 OFFCURVE",
"267 379 OFFCURVE",
"297 379 CURVE SMOOTH"
);
},
{
closed = 1;
nodes = (
"551 379 OFFCURVE",
"575 402 OFFCURVE",
"575 431 CURVE SMOOTH",
"575 459 OFFCURVE",
"551 482 OFFCURVE",
"522 482 CURVE SMOOTH",
"492 482 OFFCURVE",
"469 459 OFFCURVE",
"469 431 CURVE SMOOTH",
"469 402 OFFCURVE",
"492 379 OFFCURVE",
"522 379 CURVE SMOOTH"
);
},
{
closed = 1;
nodes = (
"102 270 OFFCURVE",
"126 293 OFFCURVE",
"126 322 CURVE SMOOTH",
"126 350 OFFCURVE",
"102 373 OFFCURVE",
"73 373 CURVE SMOOTH",
"43 373 OFFCURVE",
"20 350 OFFCURVE",
"20 322 CURVE SMOOTH",
"20 293 OFFCURVE",
"43 270 OFFCURVE",
"73 270 CURVE SMOOTH"
);
},
{
closed = 1;
nodes = (
"326 270 OFFCURVE",
"350 293 OFFCURVE",
"350 322 CURVE SMOOTH",
"350 350 OFFCURVE",
"326 373 OFFCURVE",
"297 373 CURVE SMOOTH",
"267 373 OFFCURVE",
"244 350 OFFCURVE",
"244 322 CURVE SMOOTH",
"244 293 OFFCURVE",
"267 270 OFFCURVE",
"297 270 CURVE SMOOTH"
);
},
{
closed = 1;
nodes = (
"551 270 OFFCURVE",
"575 293 OFFCURVE",
"575 322 CURVE SMOOTH",
"575 350 OFFCURVE",
"551 373 OFFCURVE",
"522 373 CURVE SMOOTH",
"492 373 OFFCURVE",
"469 350 OFFCURVE",
"469 322 CURVE SMOOTH",
"469 293 OFFCURVE",
"492 270 OFFCURVE",
"522 270 CURVE SMOOTH"
);
},
{
closed = 1;
nodes = (
"102 161 OFFCURVE",
"126 184 OFFCURVE",
"126 213 CURVE SMOOTH",
"126 241 OFFCURVE",
"102 264 OFFCURVE",
"73 264 CURVE SMOOTH",
"43 264 OFFCURVE",
"20 241 OFFCURVE",
"20 213 CURVE SMOOTH",
"20 184 OFFCURVE",
"43 161 OFFCURVE",
"73 161 CURVE SMOOTH"
);
},
{
closed = 1;
nodes = (
"551 161 OFFCURVE",
"575 184 OFFCURVE",
"575 213 CURVE SMOOTH",
"575 241 OFFCURVE",
"551 264 OFFCURVE",
"522 264 CURVE SMOOTH",
"492 264 OFFCURVE",
"469 241 OFFCURVE",
"469 213 CURVE SMOOTH",
"469 184 OFFCURVE",
"492 161 OFFCURVE",
"522 161 CURVE SMOOTH"
);
},
{
closed = 1;
nodes = (
"102 52 OFFCURVE",
"126 75 OFFCURVE",
"126 104 CURVE SMOOTH",
"126 132 OFFCURVE",
"102 155 OFFCURVE",
"73 155 CURVE SMOOTH",
"43 155 OFFCURVE",
"20 132 OFFCURVE",
"20 104 CURVE SMOOTH",
"20 75 OFFCURVE",
"43 52 OFFCURVE",
"73 52 CURVE SMOOTH"
);
},
{
closed = 1;
nodes = (
"551 52 OFFCURVE",
"575 75 OFFCURVE",
"575 104 CURVE SMOOTH",
"575 132 OFFCURVE",
"551 155 OFFCURVE",
"522 155 CURVE SMOOTH",
"492 155 OFFCURVE",
"469 132 OFFCURVE",
"469 104 CURVE SMOOTH",
"469 75 OFFCURVE",
"492 52 OFFCURVE",
"522 52 CURVE SMOOTH"
);
},
{
closed = 1;
nodes = (
"102 -58 OFFCURVE",
"126 -35 OFFCURVE",
"126 -6 CURVE SMOOTH",
"126 22 OFFCURVE",
"102 45 OFFCURVE",
"73 45 CURVE SMOOTH",
"43 45 OFFCURVE",
"20 22 OFFCURVE",
"20 -6 CURVE SMOOTH",
"20 -35 OFFCURVE",
"43 -58 OFFCURVE",
"73 -58 CURVE SMOOTH"
);
},
{
closed = 1;
nodes = (
"551 -58 OFFCURVE",
"575 -35 OFFCURVE",
"575 -6 CURVE SMOOTH",
"575 22 OFFCURVE",
"551 45 OFFCURVE",
"522 45 CURVE SMOOTH",
"492 45 OFFCURVE",
"469 22 OFFCURVE",
"469 -6 CURVE SMOOTH",
"469 -35 OFFCURVE",
"492 -58 OFFCURVE",
"522 -58 CURVE SMOOTH"
);
}
);
width = 600;
}
);
note = m;
unicode = 006D;
},
